<svg width="222" height="205" viewBox="0 0 222 205" fill="none" xmlns="http://www.w3.org/2000/svg">
<rect width="221.096" height="204.346" rx="20" fill="white"/>
<path d="M107.375 159.156H104.344V148.688H99.0625V146.25H104.344V138.688H107.375V159.156ZM108.094 166.062H89.1562V157.375H92.1562V163.625H108.094V166.062ZM94.0312 144.281C94.0417 145.469 94.3177 146.625 94.8594 147.75C95.401 148.875 96.1771 149.875 97.1875 150.75C98.2083 151.625 99.4062 152.302 100.781 152.781L99.2812 155.094C97.7292 154.552 96.3802 153.75 95.2344 152.688C94.099 151.625 93.2188 150.385 92.5938 148.969C91.9792 150.531 91.0677 151.901 89.8594 153.078C88.651 154.255 87.2188 155.135 85.5625 155.719L84.0312 153.344C85.4479 152.854 86.6823 152.146 87.7344 151.219C88.7969 150.292 89.6094 149.229 90.1719 148.031C90.7448 146.833 91.0312 145.594 91.0312 144.312V143.25H84.9375V140.844H100.031V143.25H94.0312V144.281ZM120.062 147.25C120.062 148.729 120.286 150.182 120.734 151.609C121.193 153.026 121.865 154.312 122.75 155.469C123.635 156.615 124.698 157.521 125.938 158.188L124.281 160.438C122.979 159.74 121.854 158.766 120.906 157.516C119.958 156.255 119.219 154.812 118.688 153.188C118.167 154.948 117.427 156.51 116.469 157.875C115.51 159.24 114.385 160.302 113.094 161.062L111.344 158.812C112.604 158.083 113.672 157.104 114.547 155.875C115.432 154.646 116.099 153.286 116.547 151.797C116.995 150.297 117.219 148.781 117.219 147.25V146.125H112.219V143.688H117.219V139.625H120.094V143.688H125.031V146.125H120.062V147.25ZM135.719 166.625H132.844V138.656H135.719V166.625ZM130 165.25H127.188V152.031H123.188V149.594H127.188V139.25H130V165.25Z" fill="black"/>
<g filter="url(#filter0_d_1424_373)">
<path d="M93.0586 85.4219H81.2227L78.4688 93H73.8594L84.7188 64.7188H89.6016L100.461 93H95.8125L93.0586 85.4219ZM91.6328 81.5156L87.2578 69.4453H87.0625L82.6484 81.5156H91.6328ZM104.016 64.7188H108.234V89.0547H121.203V93H104.016V64.7188ZM125.695 64.7188H129.914V89.0547H142.883V93H125.695V64.7188Z" fill="black" fill-opacity="0.72" shape-rendering="crispEdges"/>
</g>
<defs>
<filter id="filter0_d_1424_373" x="69.8594" y="64.7188" width="77.0234" height="36.2812" filterUnits="userSpaceOnUse" color-interpolation-filters="sRGB">
<feFlood flood-opacity="0" result="BackgroundImageFix"/>
<feColorMatrix in="SourceAlpha" type="matrix" values="0 0 0 0 0 0 0 0 0 0 0 0 0 0 0 0 0 0 127 0" result="hardAlpha"/>
<feOffset dy="4"/>
<feGaussianBlur stdDeviation="2"/>
<feComposite in2="hardAlpha" operator="out"/>
<feColorMatrix type="matrix" values="0 0 0 0 0 0 0 0 0 0 0 0 0 0 0 0 0 0 0.25 0"/>
<feBlend mode="normal" in2="BackgroundImageFix" result="effect1_dropShadow_1424_373"/>
<feBlend mode="normal" in="SourceGraphic" in2="effect1_dropShadow_1424_373" result="shape"/>
</filter>
</defs>
</svg>
