<svg width="220" height="220" viewBox="0 0 220 220" fill="none" xmlns="http://www.w3.org/2000/svg">
<path d="M0 0H219.238V219.238H0V0Z" fill="#CEE2FE"/>
<path d="M94.3866 165.764H103.173V168.384H94.3866V165.764ZM101.362 156.206H104.561V181.718H101.362V156.206ZM82.3242 187.615H105.524V190.235H82.3242V187.615ZM82.3242 179.483H85.5228V188.963H82.3242V179.483ZM84.7906 160.522H87.4112V163.336C87.4112 169.656 83.4803 175.128 77.6611 177.286L76.004 174.743C81.2066 172.893 84.7906 168.269 84.7906 163.336V160.522ZM85.4072 160.522H87.9893V163.297C87.9893 167.806 91.3806 172.199 96.4291 173.972L94.8105 176.477C89.1454 174.435 85.4072 169.193 85.4072 163.297V160.522ZM77.006 159.019H95.6198V161.602H77.006V159.019ZM125.561 169.926H132.151V172.546H125.561V169.926ZM118.47 165.07H120.936V166.881C120.936 173.818 118.046 180.832 112.959 183.876L111.07 181.449C115.772 178.712 118.47 172.585 118.47 166.881V165.07ZM119.048 165.07H121.514V166.881C121.514 172.431 124.289 178.173 128.991 180.716L127.179 183.106C122.054 180.254 119.048 173.664 119.048 166.881V165.07ZM112.034 162.565H127.95V165.224H112.034V162.565ZM118.47 157.401H121.553V164.607H118.47V157.401ZM137.854 156.168H140.937V191.006H137.854V156.168ZM130.879 156.977H133.885V189.233H130.879V156.977Z" fill="#4661AC"/>
<path d="M54.52 121L68.38 76.3H81.22L95.08 121H83.8L78.22 98.68C77.02 94.24 75.88 88.9 74.68 84.34H74.44C73.36 89.02 72.16 94.24 71.02 98.68L65.44 121H54.52ZM63.94 110.74V102.46H85.54V110.74H63.94ZM99.7694 121V76.3H110.509V112H127.909V121H99.7694ZM135.629 121V76.3H146.369V112H163.769V121H135.629Z" fill="#4661AC"/>
</svg>
