<svg width="293" height="273" viewBox="0 0 293 273" fill="none" xmlns="http://www.w3.org/2000/svg">
<g filter="url(#filter0_d_1146_174)">
<rect x="5" y="0.146484" width="282.597" height="263.278" rx="55.463" fill="url(#paint0_linear_1146_174)" shape-rendering="crispEdges"/>
</g>
<path d="M137.674 226.86H132.5V214.063H126.773V209.955H132.5V200.673H137.674V226.86ZM138.464 235.944H113.738V224.648H118.873V231.836H138.464V235.944ZM120.927 207.585C120.927 209.073 121.223 210.508 121.816 211.89C122.421 213.273 123.343 214.517 124.581 215.623C125.818 216.729 127.352 217.591 129.182 218.21L126.654 222.16C124.719 221.528 123.06 220.599 121.678 219.375C120.308 218.137 119.222 216.676 118.419 214.991C117.603 216.847 116.464 218.453 115.002 219.809C113.541 221.166 111.777 222.186 109.71 222.87L107.142 218.842C109.051 218.21 110.651 217.308 111.941 216.136C113.232 214.964 114.186 213.648 114.805 212.186C115.437 210.712 115.753 209.191 115.753 207.624V207.15H108.525V203.082H128.037V207.15H120.927V207.585ZM153.513 211.535C153.513 214.484 154.079 217.176 155.211 219.612C156.356 222.034 158.134 223.884 160.543 225.161L157.778 228.953C156.225 228.15 154.895 227.064 153.789 225.695C152.696 224.325 151.821 222.739 151.162 220.935C150.491 222.949 149.596 224.714 148.477 226.228C147.371 227.742 146.048 228.94 144.507 229.822L141.624 225.951C144.046 224.556 145.824 222.561 146.956 219.967C148.101 217.374 148.668 214.563 148.654 211.535V210.784H142.967V206.676H148.654V201.818H153.552V206.676H159.161V210.784H153.513V211.535ZM173.419 236.537H168.522V200.633H173.419V236.537ZM165.994 234.917H161.215V218.407H157.028V214.26H161.215V201.226H165.994V234.917Z" fill="black" fill-opacity="0.72"/>
<g filter="url(#filter1_d_1146_174)">
<rect x="5.59766" width="282.597" height="263.278" rx="55.463" fill="url(#paint1_linear_1146_174)" shape-rendering="crispEdges"/>
</g>
<path d="M137.674 226.86H132.5V214.063H126.773V209.955H132.5V200.673H137.674V226.86ZM138.464 235.944H113.738V224.648H118.873V231.836H138.464V235.944ZM120.927 207.585C120.927 209.073 121.223 210.508 121.816 211.89C122.421 213.273 123.343 214.517 124.581 215.623C125.818 216.729 127.352 217.591 129.182 218.21L126.654 222.16C124.719 221.528 123.06 220.599 121.678 219.375C120.308 218.137 119.222 216.676 118.419 214.991C117.603 216.847 116.464 218.453 115.002 219.809C113.541 221.166 111.777 222.186 109.71 222.87L107.142 218.842C109.051 218.21 110.651 217.308 111.941 216.136C113.232 214.964 114.186 213.648 114.805 212.186C115.437 210.712 115.753 209.191 115.753 207.624V207.15H108.525V203.082H128.037V207.15H120.927V207.585ZM153.513 211.535C153.513 214.484 154.079 217.176 155.211 219.612C156.356 222.034 158.134 223.884 160.543 225.161L157.778 228.953C156.225 228.15 154.895 227.064 153.789 225.695C152.696 224.325 151.821 222.739 151.162 220.935C150.491 222.949 149.596 224.714 148.477 226.228C147.371 227.742 146.048 228.94 144.507 229.822L141.624 225.951C144.046 224.556 145.824 222.561 146.956 219.967C148.101 217.374 148.668 214.563 148.654 211.535V210.784H142.967V206.676H148.654V201.818H153.552V206.676H159.161V210.784H153.513V211.535ZM173.419 236.537H168.522V200.633H173.419V236.537ZM165.994 234.917H161.215V218.407H157.028V214.26H161.215V201.226H165.994V234.917Z" fill="#68686B"/>
<g filter="url(#filter2_d_1146_174)">
<path d="M123.642 131.34H104.701L101.001 142.134H89.9359L108.876 92.9839H119.467L138.407 142.134H127.341L123.642 131.34ZM120.451 121.971L114.307 104.117H114.036L107.892 121.971H120.451ZM144.245 92.9839H154.292V132.698H175.133V142.134H144.245V92.9839ZM182.601 92.9839H192.648V132.698H213.489V142.134H182.601V92.9839Z" fill="black" fill-opacity="0.72" shape-rendering="crispEdges"/>
</g>
<defs>
<filter id="filter0_d_1146_174" x="0.562958" y="0.146484" width="291.472" height="272.151" filterUnits="userSpaceOnUse" color-interpolation-filters="sRGB">
<feFlood flood-opacity="0" result="BackgroundImageFix"/>
<feColorMatrix in="SourceAlpha" type="matrix" values="0 0 0 0 0 0 0 0 0 0 0 0 0 0 0 0 0 0 127 0" result="hardAlpha"/>
<feOffset dy="4.43704"/>
<feGaussianBlur stdDeviation="2.21852"/>
<feComposite in2="hardAlpha" operator="out"/>
<feColorMatrix type="matrix" values="0 0 0 0 0 0 0 0 0 0 0 0 0 0 0 0 0 0 0.25 0"/>
<feBlend mode="normal" in2="BackgroundImageFix" result="effect1_dropShadow_1146_174"/>
<feBlend mode="normal" in="SourceGraphic" in2="effect1_dropShadow_1146_174" result="shape"/>
</filter>
<filter id="filter1_d_1146_174" x="1.16061" y="0" width="291.472" height="272.151" filterUnits="userSpaceOnUse" color-interpolation-filters="sRGB">
<feFlood flood-opacity="0" result="BackgroundImageFix"/>
<feColorMatrix in="SourceAlpha" type="matrix" values="0 0 0 0 0 0 0 0 0 0 0 0 0 0 0 0 0 0 127 0" result="hardAlpha"/>
<feOffset dy="4.43704"/>
<feGaussianBlur stdDeviation="2.21852"/>
<feComposite in2="hardAlpha" operator="out"/>
<feColorMatrix type="matrix" values="0 0 0 0 0 0 0 0 0 0 0 0 0 0 0 0 0 0 0.25 0"/>
<feBlend mode="normal" in2="BackgroundImageFix" result="effect1_dropShadow_1146_174"/>
<feBlend mode="normal" in="SourceGraphic" in2="effect1_dropShadow_1146_174" result="shape"/>
</filter>
<filter id="filter2_d_1146_174" x="84.8818" y="92.9844" width="133.662" height="59.2608" filterUnits="userSpaceOnUse" color-interpolation-filters="sRGB">
<feFlood flood-opacity="0" result="BackgroundImageFix"/>
<feColorMatrix in="SourceAlpha" type="matrix" values="0 0 0 0 0 0 0 0 0 0 0 0 0 0 0 0 0 0 127 0" result="hardAlpha"/>
<feOffset dy="5.0557"/>
<feGaussianBlur stdDeviation="2.52785"/>
<feComposite in2="hardAlpha" operator="out"/>
<feColorMatrix type="matrix" values="0 0 0 0 0 0 0 0 0 0 0 0 0 0 0 0 0 0 0.25 0"/>
<feBlend mode="normal" in2="BackgroundImageFix" result="effect1_dropShadow_1146_174"/>
<feBlend mode="normal" in="SourceGraphic" in2="effect1_dropShadow_1146_174" result="shape"/>
</filter>
<linearGradient id="paint0_linear_1146_174" x1="146.299" y1="0.146484" x2="146.299" y2="263.424" gradientUnits="userSpaceOnUse">
<stop stop-color="white"/>
<stop offset="1" stop-color="white" stop-opacity="0"/>
</linearGradient>
<linearGradient id="paint1_linear_1146_174" x1="146.896" y1="0" x2="146.896" y2="263.278" gradientUnits="userSpaceOnUse">
<stop stop-color="white"/>
<stop offset="1" stop-color="white" stop-opacity="0"/>
</linearGradient>
</defs>
</svg>
