<svg width="282" height="265" viewBox="0 0 282 265" fill="none" xmlns="http://www.w3.org/2000/svg">
<g filter="url(#filter0_d_1424_373)">
<rect x="30" width="221.096" height="204.346" rx="20" fill="white"/>
</g>
<path d="M137.375 159.156H134.344V148.688H129.062V146.25H134.344V138.688H137.375V159.156ZM138.094 166.062H119.156V157.375H122.156V163.625H138.094V166.062ZM124.031 144.281C124.042 145.469 124.318 146.625 124.859 147.75C125.401 148.875 126.177 149.875 127.188 150.75C128.208 151.625 129.406 152.302 130.781 152.781L129.281 155.094C127.729 154.552 126.38 153.75 125.234 152.688C124.099 151.625 123.219 150.385 122.594 148.969C121.979 150.531 121.068 151.901 119.859 153.078C118.651 154.255 117.219 155.135 115.562 155.719L114.031 153.344C115.448 152.854 116.682 152.146 117.734 151.219C118.797 150.292 119.609 149.229 120.172 148.031C120.745 146.833 121.031 145.594 121.031 144.312V143.25H114.938V140.844H130.031V143.25H124.031V144.281ZM150.062 147.25C150.062 148.729 150.286 150.182 150.734 151.609C151.193 153.026 151.865 154.312 152.75 155.469C153.635 156.615 154.698 157.521 155.938 158.188L154.281 160.438C152.979 159.74 151.854 158.766 150.906 157.516C149.958 156.255 149.219 154.812 148.688 153.188C148.167 154.948 147.427 156.51 146.469 157.875C145.51 159.24 144.385 160.302 143.094 161.062L141.344 158.812C142.604 158.083 143.672 157.104 144.547 155.875C145.432 154.646 146.099 153.286 146.547 151.797C146.995 150.297 147.219 148.781 147.219 147.25V146.125H142.219V143.688H147.219V139.625H150.094V143.688H155.031V146.125H150.062V147.25ZM165.719 166.625H162.844V138.656H165.719V166.625ZM160 165.25H157.188V152.031H153.188V149.594H157.188V139.25H160V165.25Z" fill="black"/>
<g filter="url(#filter1_d_1424_373)">
<path d="M123.059 85.4219H111.223L108.469 93H103.859L114.719 64.7188H119.602L130.461 93H125.812L123.059 85.4219ZM121.633 81.5156L117.258 69.4453H117.062L112.648 81.5156H121.633ZM134.016 64.7188H138.234V89.0547H151.203V93H134.016V64.7188ZM155.695 64.7188H159.914V89.0547H172.883V93H155.695V64.7188Z" fill="black" fill-opacity="0.72" shape-rendering="crispEdges"/>
</g>
<defs>
<filter id="filter0_d_1424_373" x="0" y="0" width="281.098" height="264.346" filterUnits="userSpaceOnUse" color-interpolation-filters="sRGB">
<feFlood flood-opacity="0" result="BackgroundImageFix"/>
<feColorMatrix in="SourceAlpha" type="matrix" values="0 0 0 0 0 0 0 0 0 0 0 0 0 0 0 0 0 0 127 0" result="hardAlpha"/>
<feOffset dy="30"/>
<feGaussianBlur stdDeviation="15"/>
<feComposite in2="hardAlpha" operator="out"/>
<feColorMatrix type="matrix" values="0 0 0 0 0 0 0 0 0 0 0 0 0 0 0 0 0 0 0.09 0"/>
<feBlend mode="normal" in2="BackgroundImageFix" result="effect1_dropShadow_1424_373"/>
<feBlend mode="normal" in="SourceGraphic" in2="effect1_dropShadow_1424_373" result="shape"/>
</filter>
<filter id="filter1_d_1424_373" x="99.8594" y="64.7188" width="77.0234" height="36.2812" filterUnits="userSpaceOnUse" color-interpolation-filters="sRGB">
<feFlood flood-opacity="0" result="BackgroundImageFix"/>
<feColorMatrix in="SourceAlpha" type="matrix" values="0 0 0 0 0 0 0 0 0 0 0 0 0 0 0 0 0 0 127 0" result="hardAlpha"/>
<feOffset dy="4"/>
<feGaussianBlur stdDeviation="2"/>
<feComposite in2="hardAlpha" operator="out"/>
<feColorMatrix type="matrix" values="0 0 0 0 0 0 0 0 0 0 0 0 0 0 0 0 0 0 0.25 0"/>
<feBlend mode="normal" in2="BackgroundImageFix" result="effect1_dropShadow_1424_373"/>
<feBlend mode="normal" in="SourceGraphic" in2="effect1_dropShadow_1424_373" result="shape"/>
</filter>
</defs>
</svg>
