<svg width="249" height="228" viewBox="0 0 249 228" fill="none" xmlns="http://www.w3.org/2000/svg">
<rect x="0.109375" y="0.431641" width="248.149" height="227.373" rx="20.5231" fill="white"/>
<path d="M118.328 170.762H115.676V161.602H111.055V159.469H115.676V152.852H118.328V170.762ZM118.957 176.805H102.387V169.203H105.012V174.672H118.957V176.805ZM106.652 157.746C106.661 158.785 106.903 159.797 107.377 160.781C107.851 161.766 108.53 162.641 109.414 163.406C110.307 164.172 111.355 164.764 112.559 165.184L111.246 167.207C109.888 166.733 108.708 166.031 107.705 165.102C106.712 164.172 105.941 163.087 105.395 161.848C104.857 163.215 104.059 164.413 103.002 165.443C101.945 166.473 100.691 167.243 99.2422 167.754L97.9023 165.676C99.1419 165.247 100.222 164.628 101.143 163.816C102.072 163.005 102.783 162.076 103.275 161.027C103.777 159.979 104.027 158.895 104.027 157.773V156.844H98.6953V154.738H111.902V156.844H106.652V157.746ZM129.43 160.344C129.43 161.638 129.626 162.91 130.018 164.158C130.419 165.398 131.007 166.523 131.781 167.535C132.556 168.538 133.486 169.331 134.57 169.914L133.121 171.883C131.982 171.272 130.997 170.42 130.168 169.326C129.339 168.223 128.691 166.961 128.227 165.539C127.771 167.079 127.124 168.447 126.285 169.641C125.447 170.835 124.462 171.764 123.332 172.43L121.801 170.461C122.904 169.823 123.838 168.966 124.604 167.891C125.378 166.815 125.962 165.626 126.354 164.322C126.745 163.01 126.941 161.684 126.941 160.344V159.359H122.566V157.227H126.941V153.672H129.457V157.227H133.777V159.359H129.43V160.344ZM143.129 177.297H140.613V152.824H143.129V177.297ZM138.125 176.094H135.664V164.527H132.164V162.395H135.664V153.344H138.125V176.094Z" fill="#686868"/>
<g filter="url(#filter0_d_1548_371)">
<path d="M104 98.6973H88.668L84.8105 109H80.123L93.6484 73.6484H99.0195L112.545 109H107.857L104 98.6973ZM102.511 94.6934L96.4316 78.4824H96.2363L90.1572 94.6934H102.511ZM117.135 73.6484H121.432V104.996H138.229V109H117.135V73.6484ZM143.99 73.6484H148.287V104.996H165.084V109H143.99V73.6484Z" fill="black" fill-opacity="0.72" shape-rendering="crispEdges"/>
</g>
<defs>
<filter id="filter0_d_1548_371" x="76.0204" y="73.6484" width="93.1702" height="43.5608" filterUnits="userSpaceOnUse" color-interpolation-filters="sRGB">
<feFlood flood-opacity="0" result="BackgroundImageFix"/>
<feColorMatrix in="SourceAlpha" type="matrix" values="0 0 0 0 0 0 0 0 0 0 0 0 0 0 0 0 0 0 127 0" result="hardAlpha"/>
<feOffset dy="4.10461"/>
<feGaussianBlur stdDeviation="2.05231"/>
<feComposite in2="hardAlpha" operator="out"/>
<feColorMatrix type="matrix" values="0 0 0 0 0 0 0 0 0 0 0 0 0 0 0 0 0 0 0.25 0"/>
<feBlend mode="normal" in2="BackgroundImageFix" result="effect1_dropShadow_1548_371"/>
<feBlend mode="normal" in="SourceGraphic" in2="effect1_dropShadow_1548_371" result="shape"/>
</filter>
</defs>
</svg>
