<svg width="293" height="273" viewBox="0 0 293 273" fill="none" xmlns="http://www.w3.org/2000/svg">
<g filter="url(#filter0_d_1149_7)">
<rect x="5" width="282.597" height="263.278" rx="55.463" fill="url(#paint0_linear_1149_7)" shape-rendering="crispEdges"/>
</g>
<path d="M140.155 221.568H107.372V217.499H121.196V214.497H111.321V202.135H136.244V206.163H116.377V210.469H136.402V214.497H126.291V217.499H140.155V221.568ZM123.645 223.345C126.251 223.345 128.496 223.608 130.379 224.135C132.262 224.648 133.703 225.405 134.704 226.406C135.705 227.393 136.205 228.585 136.205 229.98C136.205 231.376 135.705 232.568 134.704 233.555C133.703 234.542 132.262 235.293 130.379 235.806C128.496 236.32 126.251 236.577 123.645 236.577C121.038 236.577 118.786 236.32 116.89 235.806C115.008 235.293 113.56 234.536 112.546 233.535C111.545 232.548 111.045 231.363 111.045 229.98C111.045 228.585 111.545 227.393 112.546 226.406C113.56 225.405 115.008 224.648 116.89 224.135C118.786 223.608 121.038 223.345 123.645 223.345ZM123.645 227.216C118.681 227.216 116.206 228.137 116.219 229.98C116.206 230.902 116.818 231.587 118.056 232.034C119.306 232.482 121.169 232.706 123.645 232.706C126.107 232.706 127.956 232.482 129.194 232.034C130.432 231.587 131.044 230.902 131.031 229.98C131.044 228.137 128.582 227.216 123.645 227.216ZM175.07 218.882H161.167V221.173H171.081V230.336H151.135V232.429H172.029V236.3H146.079V226.821H166.026V224.925H146V221.173H156.072V218.882H142.248V214.853H175.07V218.882ZM170.884 212.918H146.316V201.661H170.884V212.918ZM151.332 209.007H165.868V205.571H151.332V209.007Z" fill="black" fill-opacity="0.72"/>
<path d="M140.155 221.568H107.372V217.499H121.196V214.497H111.321V202.135H136.244V206.163H116.377V210.469H136.402V214.497H126.291V217.499H140.155V221.568ZM123.645 223.345C126.251 223.345 128.496 223.608 130.379 224.135C132.262 224.648 133.703 225.405 134.704 226.406C135.705 227.393 136.205 228.585 136.205 229.98C136.205 231.376 135.705 232.568 134.704 233.555C133.703 234.542 132.262 235.293 130.379 235.806C128.496 236.32 126.251 236.577 123.645 236.577C121.038 236.577 118.786 236.32 116.89 235.806C115.008 235.293 113.56 234.536 112.546 233.535C111.545 232.548 111.045 231.363 111.045 229.98C111.045 228.585 111.545 227.393 112.546 226.406C113.56 225.405 115.008 224.648 116.89 224.135C118.786 223.608 121.038 223.345 123.645 223.345ZM123.645 227.216C118.681 227.216 116.206 228.137 116.219 229.98C116.206 230.902 116.818 231.587 118.056 232.034C119.306 232.482 121.169 232.706 123.645 232.706C126.107 232.706 127.956 232.482 129.194 232.034C130.432 231.587 131.044 230.902 131.031 229.98C131.044 228.137 128.582 227.216 123.645 227.216ZM175.07 218.882H161.167V221.173H171.081V230.336H151.135V232.429H172.029V236.3H146.079V226.821H166.026V224.925H146V221.173H156.072V218.882H142.248V214.853H175.07V218.882ZM170.884 212.918H146.316V201.661H170.884V212.918ZM151.332 209.007H165.868V205.571H151.332V209.007Z" fill="black" fill-opacity="0.72"/>
<g filter="url(#filter1_d_1149_7)">
<rect x="5" width="282.597" height="263.278" rx="55.463" fill="url(#paint1_linear_1149_7)" shape-rendering="crispEdges"/>
</g>
<path d="M140.155 221.568H107.372V217.499H121.196V214.497H111.321V202.135H136.244V206.163H116.377V210.469H136.402V214.497H126.291V217.499H140.155V221.568ZM123.645 223.345C126.251 223.345 128.496 223.608 130.379 224.135C132.262 224.648 133.703 225.405 134.704 226.406C135.705 227.393 136.205 228.585 136.205 229.98C136.205 231.376 135.705 232.568 134.704 233.555C133.703 234.542 132.262 235.293 130.379 235.806C128.496 236.32 126.251 236.577 123.645 236.577C121.038 236.577 118.786 236.32 116.89 235.806C115.008 235.293 113.56 234.536 112.546 233.535C111.545 232.548 111.045 231.363 111.045 229.98C111.045 228.585 111.545 227.393 112.546 226.406C113.56 225.405 115.008 224.648 116.89 224.135C118.786 223.608 121.038 223.345 123.645 223.345ZM123.645 227.216C118.681 227.216 116.206 228.137 116.219 229.98C116.206 230.902 116.818 231.587 118.056 232.034C119.306 232.482 121.169 232.706 123.645 232.706C126.107 232.706 127.956 232.482 129.194 232.034C130.432 231.587 131.044 230.902 131.031 229.98C131.044 228.137 128.582 227.216 123.645 227.216ZM175.07 218.882H161.167V221.173H171.081V230.336H151.135V232.429H172.029V236.3H146.079V226.821H166.026V224.925H146V221.173H156.072V218.882H142.248V214.853H175.07V218.882ZM170.884 212.918H146.316V201.661H170.884V212.918ZM151.332 209.007H165.868V205.571H151.332V209.007Z" fill="#68686B"/>
<path d="M140.155 221.568H107.372V217.499H121.196V214.497H111.321V202.135H136.244V206.163H116.377V210.469H136.402V214.497H126.291V217.499H140.155V221.568ZM123.645 223.345C126.251 223.345 128.496 223.608 130.379 224.135C132.262 224.648 133.703 225.405 134.704 226.406C135.705 227.393 136.205 228.585 136.205 229.98C136.205 231.376 135.705 232.568 134.704 233.555C133.703 234.542 132.262 235.293 130.379 235.806C128.496 236.32 126.251 236.577 123.645 236.577C121.038 236.577 118.786 236.32 116.89 235.806C115.008 235.293 113.56 234.536 112.546 233.535C111.545 232.548 111.045 231.363 111.045 229.98C111.045 228.585 111.545 227.393 112.546 226.406C113.56 225.405 115.008 224.648 116.89 224.135C118.786 223.608 121.038 223.345 123.645 223.345ZM123.645 227.216C118.681 227.216 116.206 228.137 116.219 229.98C116.206 230.902 116.818 231.587 118.056 232.034C119.306 232.482 121.169 232.706 123.645 232.706C126.107 232.706 127.956 232.482 129.194 232.034C130.432 231.587 131.044 230.902 131.031 229.98C131.044 228.137 128.582 227.216 123.645 227.216ZM175.07 218.882H161.167V221.173H171.081V230.336H151.135V232.429H172.029V236.3H146.079V226.821H166.026V224.925H146V221.173H156.072V218.882H142.248V214.853H175.07V218.882ZM170.884 212.918H146.316V201.661H170.884V212.918ZM151.332 209.007H165.868V205.571H151.332V209.007Z" fill="#68686B"/>
<path d="M83 172.494H204.337V51.1569H83V172.494Z" fill="black"/>
<defs>
<filter id="filter0_d_1149_7" x="0.562958" y="0" width="291.472" height="272.151" filterUnits="userSpaceOnUse" color-interpolation-filters="sRGB">
<feFlood flood-opacity="0" result="BackgroundImageFix"/>
<feColorMatrix in="SourceAlpha" type="matrix" values="0 0 0 0 0 0 0 0 0 0 0 0 0 0 0 0 0 0 127 0" result="hardAlpha"/>
<feOffset dy="4.43704"/>
<feGaussianBlur stdDeviation="2.21852"/>
<feComposite in2="hardAlpha" operator="out"/>
<feColorMatrix type="matrix" values="0 0 0 0 0 0 0 0 0 0 0 0 0 0 0 0 0 0 0.25 0"/>
<feBlend mode="normal" in2="BackgroundImageFix" result="effect1_dropShadow_1149_7"/>
<feBlend mode="normal" in="SourceGraphic" in2="effect1_dropShadow_1149_7" result="shape"/>
</filter>
<filter id="filter1_d_1149_7" x="0.562958" y="0" width="291.472" height="272.151" filterUnits="userSpaceOnUse" color-interpolation-filters="sRGB">
<feFlood flood-opacity="0" result="BackgroundImageFix"/>
<feColorMatrix in="SourceAlpha" type="matrix" values="0 0 0 0 0 0 0 0 0 0 0 0 0 0 0 0 0 0 127 0" result="hardAlpha"/>
<feOffset dy="4.43704"/>
<feGaussianBlur stdDeviation="2.21852"/>
<feComposite in2="hardAlpha" operator="out"/>
<feColorMatrix type="matrix" values="0 0 0 0 0 0 0 0 0 0 0 0 0 0 0 0 0 0 0.25 0"/>
<feBlend mode="normal" in2="BackgroundImageFix" result="effect1_dropShadow_1149_7"/>
<feBlend mode="normal" in="SourceGraphic" in2="effect1_dropShadow_1149_7" result="shape"/>
</filter>
<linearGradient id="paint0_linear_1149_7" x1="146.299" y1="0" x2="146.299" y2="263.278" gradientUnits="userSpaceOnUse">
<stop stop-color="white"/>
<stop offset="1" stop-color="white" stop-opacity="0"/>
</linearGradient>
<linearGradient id="paint1_linear_1149_7" x1="146.299" y1="0" x2="146.299" y2="263.278" gradientUnits="userSpaceOnUse">
<stop stop-color="white"/>
<stop offset="1" stop-color="white" stop-opacity="0"/>
</linearGradient>
</defs>
</svg>
