<svg width="220" height="220" viewBox="0 0 220 220" fill="none" xmlns="http://www.w3.org/2000/svg">
<rect width="219.238" height="219.238" fill="#506DBF"/>
<path d="M75.9269 173.317H107.451V175.899H75.9269V173.317ZM90.1089 167.729H93.2304V174.396H90.1089V167.729ZM79.8963 166.727H103.751V169.309H79.8963V166.727ZM79.8963 157.748H103.52V160.291H83.0564V168.269H79.8963V157.748ZM91.6504 178.404C95.3757 178.404 98.2918 178.956 100.398 180.061C102.505 181.14 103.559 182.682 103.559 184.686C103.559 186.69 102.505 188.231 100.398 189.31C98.2918 190.415 95.3757 190.967 91.6504 190.967C87.925 190.967 84.9962 190.415 82.8637 189.31C80.757 188.231 79.7036 186.69 79.7036 184.686C79.7036 182.682 80.757 181.14 82.8637 180.061C84.9962 178.956 87.925 178.404 91.6504 178.404ZM91.6118 180.909C89.8134 180.909 88.259 181.063 86.9488 181.371C85.6642 181.654 84.675 182.078 83.9813 182.643C83.2876 183.183 82.9408 183.864 82.9408 184.686C82.9408 185.482 83.2876 186.163 83.9813 186.728C84.675 187.293 85.6642 187.717 86.9488 188C88.259 188.308 89.8134 188.462 91.6118 188.462C93.4617 188.462 95.0289 188.308 96.3135 188C97.6238 187.717 98.6258 187.293 99.3194 186.728C100.013 186.163 100.36 185.482 100.36 184.686C100.36 183.864 100.013 183.183 99.3194 182.643C98.6258 182.078 97.6238 181.654 96.3135 181.371C95.0289 181.063 93.4617 180.909 91.6118 180.909ZM125.484 172.623H128.682V177.942H125.484V172.623ZM111.379 170.812H142.864V173.394H111.379V170.812ZM115.464 157.285H138.779V167.922H115.464V157.285ZM135.619 159.829H118.585V165.378H135.619V159.829ZM115.194 176.785H138.818V184.647H118.393V188.886H115.271V182.296H135.696V179.252H115.194V176.785ZM115.271 188.116H139.858V190.621H115.271V188.116Z" fill="#F5F5F7"/>
<path d="M135.047 103.749C133.544 98.8869 130.294 94.5989 125.797 91.5431C121.299 88.4873 115.802 86.8324 110.149 86.8324C104.496 86.8324 98.9985 88.4873 94.5009 91.5431C90.0032 94.5989 86.7535 98.8869 85.2502 103.749L81.6677 115.336C81.0245 117.417 80.9285 119.602 81.3873 121.721C81.846 123.84 82.8472 125.835 84.3126 127.552C85.778 129.269 87.6681 130.661 89.8355 131.619C92.0029 132.577 94.389 133.076 96.8079 133.076H123.49C125.908 133.076 128.295 132.577 130.462 131.619C132.629 130.661 134.52 129.269 135.985 127.552C137.45 125.835 138.451 123.84 138.91 121.721C139.369 119.602 139.273 117.417 138.63 115.336L135.047 103.749ZM130.987 124.156C130.112 125.19 128.978 126.028 127.677 126.603C126.376 127.178 124.942 127.475 123.49 127.471H96.8079C95.3565 127.471 93.9248 127.172 92.6244 126.597C91.3239 126.022 90.1898 125.187 89.3106 124.157C88.4313 123.126 87.8306 121.929 87.5553 120.657C87.2801 119.386 87.3377 118.075 87.7236 116.827L91.3061 105.24C92.4438 101.56 94.9032 98.3152 98.3068 96.0026C101.711 93.6901 105.871 92.4377 110.149 92.4377C114.427 92.4377 118.587 93.6901 121.991 96.0026C125.394 98.3152 127.854 101.56 128.991 105.24L132.574 116.827C132.965 118.075 133.026 119.387 132.75 120.659C132.475 121.931 131.871 123.129 130.987 124.157V124.156ZM88.5729 90.7405C89.1195 87.6926 88.3947 84.4298 86.5312 81.5508C84.6677 78.6718 81.8626 76.4803 78.6318 75.3787C75.1718 74.1997 71.6427 74.3875 68.6912 75.9072C62.8237 78.9298 61.2796 86.3794 65.2498 92.5136C67.1127 95.3926 69.918 97.5847 73.1489 98.6857C74.5801 99.1834 76.1014 99.4429 77.6374 99.4514C79.551 99.4576 81.4323 99.011 83.0895 98.1571C86.0392 96.6372 87.9867 94.0032 88.5729 90.7405ZM82.3691 89.8545C82.0884 91.4185 81.2285 92.6431 79.9479 93.3028C78.6673 93.9624 77.0488 94.0143 75.3899 93.4494C73.5026 92.8063 71.8335 91.4786 70.6897 89.711C68.4909 86.3128 69.0135 82.214 71.8323 80.7615C72.5409 80.4028 73.3435 80.2179 74.1582 80.2259C74.9224 80.2329 75.6787 80.3645 76.39 80.6142C78.2772 81.2576 79.9463 82.5852 81.0901 84.3528C82.2339 86.1203 82.688 88.0746 82.3691 89.8545ZM89.2534 79.1283C91.484 80.7193 94.0313 81.5478 96.6072 81.5477C97.3788 81.5475 98.1482 81.4734 98.902 81.3268C105.523 80.0427 109.537 73.3668 107.85 66.4452C107.059 63.1966 105.136 60.3465 102.434 58.4195C99.5415 56.3561 96.1148 55.575 92.7856 56.221C86.1652 57.505 82.151 64.1808 83.8372 71.1025C84.6286 74.3512 86.5522 77.2013 89.2534 79.1283ZM94.1198 61.6984C94.4251 61.6397 94.7365 61.6103 95.0488 61.6108C96.2165 61.6108 97.4176 62.0184 98.5114 62.7986C100.089 63.9241 101.226 65.6422 101.711 67.6368C102.646 71.4721 100.748 75.2334 97.5676 75.8503C96.1225 76.1305 94.5629 75.7403 93.1765 74.7511C91.5986 73.6255 90.4621 71.9073 89.9764 69.9129C89.0417 66.0766 90.9394 62.3153 94.1198 61.6984ZM151.606 75.9072C148.656 74.3875 145.125 74.1997 141.666 75.3787C138.435 76.48 135.63 78.6718 133.767 81.5508C131.904 84.4298 131.179 87.6933 131.725 90.7405C132.31 94.0032 134.258 96.6372 137.208 98.1571C138.866 99.011 140.747 99.4576 142.661 99.4514C144.197 99.4429 145.718 99.1834 147.149 98.6857C150.38 97.5847 153.185 95.3926 155.048 92.5136C159.018 86.3794 157.474 78.9298 151.606 75.9072ZM149.608 89.711C148.464 91.4786 146.795 92.8063 144.908 93.4494C143.249 94.0148 141.631 93.9628 140.35 93.3028C139.069 92.6427 138.21 91.4185 137.929 89.8545C137.61 88.0746 138.063 86.121 139.207 84.3543C140.351 82.5876 142.02 81.2592 143.908 80.6158C144.619 80.3659 145.375 80.2341 146.139 80.2268C146.954 80.2188 147.757 80.4036 148.465 80.7624C151.284 82.2136 151.807 86.312 149.608 89.711ZM121.395 81.3268C122.149 81.4734 122.919 81.5475 123.69 81.5477C126.266 81.5477 128.814 80.7193 131.044 79.1283C133.745 77.2015 135.669 74.3512 136.46 71.1026C138.146 64.181 134.132 57.5052 127.512 56.2212C124.183 55.5756 120.756 56.3561 117.863 58.4197C115.162 60.3465 113.238 63.1968 112.447 66.4452C110.761 73.3668 114.775 80.0427 121.395 81.3268ZM118.586 67.636C119.072 65.6414 120.208 63.9225 121.786 62.7977C122.88 62.0176 124.081 61.61 125.249 61.61C125.561 61.6095 125.872 61.6388 126.178 61.6975C129.358 62.3145 131.256 66.0766 130.321 69.911C129.835 71.9056 128.699 73.6245 127.121 74.7494C125.735 75.7384 124.177 76.1286 122.73 75.8485C119.549 75.2325 117.652 71.4707 118.586 67.636Z" fill="#F5F5F7"/>
</svg>
