<svg width="220" height="220" viewBox="0 0 220 220" fill="none" xmlns="http://www.w3.org/2000/svg">
<path d="M0 0H219.238V219.238H0V0Z" fill="#E3F0DC"/>
<path d="M73.9 129C71.4525 129 69.358 128.129 67.6166 126.388C65.8752 124.646 65.003 122.55 65 120.1V66.7C65 64.2525 65.8722 62.158 67.6166 60.4166C69.361 58.6752 71.4555 57.803 73.9 57.8H91.7L109.5 40L127.3 57.8H145.1C147.547 57.8 149.643 58.6722 151.388 60.4166C153.132 62.161 154.003 64.2555 154 66.7V120.1C154 122.547 153.129 124.643 151.388 126.388C149.646 128.132 147.55 129.003 145.1 129H73.9ZM82.8 111.2H136.2L119.512 88.95L106.162 106.75L96.15 93.4L82.8 111.2ZM133.975 88.95C135.829 88.95 137.406 88.3018 138.705 87.0053C140.005 85.7089 140.653 84.1321 140.65 82.275C140.65 80.4208 140.002 78.8455 138.705 77.5491C137.409 76.2527 135.832 75.603 133.975 75.6C132.121 75.6 130.546 76.2497 129.249 77.5491C127.953 78.8485 127.303 80.4238 127.3 82.275C127.3 84.1292 127.95 85.7059 129.249 87.0053C130.548 88.3047 132.124 88.953 133.975 88.95ZM101.045 57.8H117.955L109.5 49.345L101.045 57.8Z" fill="#4661AC"/>
<path d="M89.8006 164.569H96.6218V167.19H89.8006V164.569ZM89.8006 175.167H96.6218V177.826H89.8006V175.167ZM102.48 156.129H105.563V191.006H102.48V156.129ZM95.6198 156.861H98.6643V189.233H95.6198V156.861ZM83.7501 159.058C85.2659 159.058 86.5762 159.546 87.681 160.522C88.8114 161.499 89.6849 162.899 90.3016 164.723C90.9182 166.547 91.2265 168.692 91.2265 171.159C91.2265 173.651 90.9182 175.809 90.3016 177.633C89.6849 179.457 88.8114 180.87 87.681 181.872C86.5762 182.849 85.2659 183.337 83.7501 183.337C82.2857 183.337 80.9882 182.849 79.8578 181.872C78.753 180.87 77.8923 179.457 77.2757 177.633C76.6591 175.809 76.3508 173.651 76.3508 171.159C76.3508 168.692 76.6591 166.547 77.2757 164.723C77.8923 162.899 78.753 161.499 79.8578 160.522C80.9882 159.546 82.2857 159.058 83.7501 159.058ZM83.7501 162.025C82.8509 162.025 82.0544 162.398 81.3607 163.143C80.6928 163.888 80.1789 164.941 79.8192 166.303C79.4595 167.665 79.2797 169.283 79.2797 171.159C79.2797 173.034 79.4595 174.666 79.8192 176.053C80.1789 177.415 80.6928 178.468 81.3607 179.213C82.0544 179.958 82.8509 180.331 83.7501 180.331C84.7007 180.331 85.51 179.958 86.178 179.213C86.846 178.468 87.3598 177.415 87.7195 176.053C88.1049 174.666 88.2976 173.034 88.2976 171.159C88.2976 169.283 88.1049 167.665 87.7195 166.303C87.3598 164.941 86.846 163.888 86.178 163.143C85.51 162.398 84.7007 162.025 83.7501 162.025ZM125.484 156.322H128.22V157.594C128.22 158.775 127.963 159.88 127.449 160.908C126.935 161.935 126.229 162.873 125.33 163.721C124.456 164.543 123.428 165.275 122.247 165.918C121.065 166.534 119.78 167.061 118.393 167.498C117.031 167.909 115.631 168.204 114.192 168.384L113.113 165.956C114.372 165.802 115.605 165.558 116.813 165.224C118.02 164.864 119.138 164.428 120.165 163.914C121.219 163.4 122.144 162.822 122.94 162.18C123.762 161.512 124.392 160.792 124.829 160.021C125.265 159.251 125.484 158.441 125.484 157.594V156.322ZM126.023 156.322H128.759V157.594C128.759 158.441 128.978 159.251 129.415 160.021C129.877 160.792 130.506 161.512 131.303 162.18C132.099 162.822 133.011 163.4 134.039 163.914C135.092 164.428 136.223 164.864 137.43 165.224C138.638 165.558 139.871 165.802 141.13 165.956L140.051 168.384C138.612 168.204 137.199 167.909 135.812 167.498C134.45 167.061 133.178 166.534 131.997 165.918C130.815 165.275 129.774 164.543 128.875 163.721C128.002 162.873 127.308 161.935 126.794 160.908C126.28 159.88 126.023 158.775 126.023 157.594V156.322ZM125.484 172.546H128.682V177.865H125.484V172.546ZM111.379 170.658H142.864V173.24H111.379V170.658ZM115.194 176.67H138.818V184.647H118.393V188.809H115.271V182.296H135.696V179.175H115.194V176.67ZM115.271 188.116H139.858V190.621H115.271V188.116Z" fill="#4661AC"/>
</svg>
