<svg width="3619" height="2207" viewBox="0 0 3619 2207" fill="none" xmlns="http://www.w3.org/2000/svg">
<g filter="url(#filter0_f_1530_507)">
<path d="M2648.5 2057C3087.02 2057 3469 1673.69 3469 1244C3469 814.324 3113.52 150 2675 150C1781 150 1445.5 534.824 1445.5 964.504C1445.5 2057 2209.99 2057 2648.5 2057Z" fill="url(#paint0_linear_1530_507)" fill-opacity="0.4"/>
</g>
<g filter="url(#filter1_f_1530_507)">
<path d="M986.009 233.382C477.795 280.482 14.5969 931.131 141.498 1357C268.399 1782.87 1031.9 2144.11 1505.5 2030C1979.1 1915.89 2245.4 1322.87 2118.5 897C1991.6 471.133 1756.5 233.383 986.009 233.382Z" fill="url(#paint1_linear_1530_507)" fill-opacity="0.2"/>
</g>
<defs>
<filter id="filter0_f_1530_507" x="1295.5" y="0" width="2323.5" height="2207" filterUnits="userSpaceOnUse" color-interpolation-filters="sRGB">
<feFlood flood-opacity="0" result="BackgroundImageFix"/>
<feBlend mode="normal" in="SourceGraphic" in2="BackgroundImageFix" result="shape"/>
<feGaussianBlur stdDeviation="75" result="effect1_foregroundBlur_1530_507"/>
</filter>
<filter id="filter1_f_1530_507" x="0.296875" y="113.382" width="2269.75" height="2057.93" filterUnits="userSpaceOnUse" color-interpolation-filters="sRGB">
<feFlood flood-opacity="0" result="BackgroundImageFix"/>
<feBlend mode="normal" in="SourceGraphic" in2="BackgroundImageFix" result="shape"/>
<feGaussianBlur stdDeviation="60" result="effect1_foregroundBlur_1530_507"/>
</filter>
<linearGradient id="paint0_linear_1530_507" x1="2620.81" y1="1356.28" x2="3836.75" y2="1045.96" gradientUnits="userSpaceOnUse">
<stop stop-color="white" stop-opacity="0.3"/>
<stop offset="0.504191" stop-color="#FF81C5" stop-opacity="0.3"/>
<stop offset="1" stop-color="#6100FF" stop-opacity="0.3"/>
</linearGradient>
<linearGradient id="paint1_linear_1530_507" x1="468.039" y1="1335.07" x2="2102" y2="1485.73" gradientUnits="userSpaceOnUse">
<stop stop-color="#8D99FF"/>
<stop offset="1" stop-color="#ADEDDA"/>
</linearGradient>
</defs>
</svg>
