<svg width="1433" height="1322" viewBox="0 0 1433 1322" fill="none" xmlns="http://www.w3.org/2000/svg">
<g opacity="0.4" filter="url(#filter0_f_1469_27)">
<path d="M907.181 1201.12C1130.82 1201.12 1312.11 1014.18 1312.11 783.562C1312.11 552.949 1130.82 366 907.181 366C683.546 366 502.254 552.949 502.254 783.562C502.254 1014.18 683.546 1201.12 907.181 1201.12Z" fill="url(#paint0_linear_1469_27)" fill-opacity="0.4"/>
</g>
<g opacity="0.4" filter="url(#filter1_f_1469_27)">
<path d="M448.168 134.5C212.25 192.214 72.2455 413.609 135.46 629C198.674 844.391 441.168 972.213 677.086 914.499C913.004 856.785 1053.01 635.39 989.795 419.999C926.581 204.608 684.086 76.7859 448.168 134.5Z" fill="url(#paint1_linear_1469_27)" fill-opacity="0.2"/>
</g>
<defs>
<filter id="filter0_f_1469_27" x="382.254" y="246" width="1049.86" height="1075.12" filterUnits="userSpaceOnUse" color-interpolation-filters="sRGB">
<feFlood flood-opacity="0" result="BackgroundImageFix"/>
<feBlend mode="normal" in="SourceGraphic" in2="BackgroundImageFix" result="shape"/>
<feGaussianBlur stdDeviation="60" result="effect1_foregroundBlur_1469_27"/>
</filter>
<filter id="filter1_f_1469_27" x="0.28125" y="0.641602" width="1124.69" height="1047.72" filterUnits="userSpaceOnUse" color-interpolation-filters="sRGB">
<feFlood flood-opacity="0" result="BackgroundImageFix"/>
<feBlend mode="normal" in="SourceGraphic" in2="BackgroundImageFix" result="shape"/>
<feGaussianBlur stdDeviation="60" result="effect1_foregroundBlur_1469_27"/>
</filter>
<linearGradient id="paint0_linear_1469_27" x1="557.186" y1="858.21" x2="1181" y2="706.934" gradientUnits="userSpaceOnUse">
<stop stop-color="white" stop-opacity="0.3"/>
<stop offset="0.504191" stop-color="#FF008A" stop-opacity="0.3"/>
<stop offset="1" stop-color="#6100FF" stop-opacity="0.3"/>
</linearGradient>
<linearGradient id="paint1_linear_1469_27" x1="161.508" y1="612.863" x2="975.653" y2="686.798" gradientUnits="userSpaceOnUse">
<stop stop-color="#001AFF"/>
<stop offset="1" stop-color="#6EE5C2"/>
</linearGradient>
</defs>
</svg>
