<svg width="1063" height="112" viewBox="0 0 1063 112" fill="none" xmlns="http://www.w3.org/2000/svg">
<path d="M42.8 11.24H58.4C58.4 45.56 50.24 74.12 8.84 95.12L0.32 83C34.88 65.6 42.8 44.36 42.8 13.16V11.24ZM7.16 11.24H52.28V23.84H7.16V11.24ZM43.16 38.48V50.72L3.32 54.56L1.4 40.88L43.16 38.48ZM71.84 0.439993H87.92V111.56H71.84V0.439993ZM83.72 42.92H103.28V56H83.72V42.92ZM148.031 41H167.711V53.84H148.031V41ZM106.031 74.48H113.591C129.191 74.48 139.271 74.24 151.391 72.2L152.711 84.92C140.231 87.08 129.551 87.32 113.591 87.32H106.031V74.48ZM106.031 12.8H147.311V25.4H121.151V79.16H106.031V12.8ZM116.831 42.68H143.111V54.92H116.831V42.68ZM183.071 0.559999H198.311V111.68H183.071V0.559999ZM160.151 2.48H175.031V106.76H160.151V2.48ZM215.101 9.91999H285.541V22.76H215.101V9.91999ZM204.901 85.4H305.341V98.36H204.901V85.4ZM240.421 47.24H256.381V91.76H240.421V47.24ZM279.781 9.91999H295.741V20.6C295.741 34.52 295.741 50.12 291.301 73.88L275.341 72.08C279.781 50 279.781 33.92 279.781 20.6V9.91999ZM383.332 0.439993H399.292V111.92H383.332V0.439993ZM312.772 73.04H322.612C342.292 73.04 358.012 72.32 375.652 69.32L377.212 82.16C359.212 85.4 342.892 86 322.612 86H312.772V73.04ZM312.652 9.91999H365.092V52.88H328.972V77.84H312.772V40.28H348.772V22.64H312.652V9.91999ZM462.402 14.48H489.282V26.48H462.402V14.48ZM462.402 34.76H489.282V46.76H462.402V34.76ZM485.802 0.559999H501.763V57.56H485.802V0.559999ZM428.322 61.88H501.763V91.64H444.282V105.68H428.442V80.12H485.922V74.12H428.322V61.88ZM428.442 98.12H504.882V110.48H428.442V98.12ZM413.442 5.12H429.282V18.08H450.402V5.12H466.002V54.56H413.442V5.12ZM429.282 30.08V42.08H450.402V30.08H429.282ZM558.022 57.68H567.862V90.2H558.022V57.68ZM598.102 57.68H608.062V90.2H598.102V57.68ZM534.022 88.28H632.302V96.56H534.022V88.28ZM582.982 8.71999C605.902 8.71999 622.342 19.64 622.342 36.68C622.342 53.6 605.902 64.52 582.982 64.52C559.942 64.52 543.502 53.6 543.502 36.68C543.502 19.64 559.942 8.71999 582.982 8.71999ZM582.982 16.64C565.582 16.64 553.102 24.56 553.102 36.68C553.102 48.68 565.582 56.6 582.982 56.6C600.382 56.6 612.742 48.68 612.742 36.68C612.742 24.56 600.382 16.64 582.982 16.64ZM717.133 18.32H735.973V26.72H717.133V18.32ZM717.133 41.6H735.973V49.88H717.133V41.6ZM710.173 1.88H720.133V66.32H710.173V1.88ZM649.693 71.48H720.133V110.36H710.173V79.52H649.693V71.48ZM666.253 8.23999C682.573 8.23999 694.573 18.8 694.573 34.04C694.573 49.16 682.573 59.6 666.253 59.6C649.933 59.6 637.933 49.16 637.933 34.04C637.933 18.8 649.933 8.23999 666.253 8.23999ZM666.253 16.76C655.453 16.76 647.653 23.72 647.653 34.04C647.653 44.24 655.453 51.32 666.253 51.32C677.053 51.32 684.853 44.24 684.853 34.04C684.853 23.72 677.053 16.76 666.253 16.76ZM750.963 6.2H760.803V19.76H813.243V6.2H823.203V49.52H750.963V6.2ZM760.803 27.68V41.48H813.243V27.68H760.803ZM737.883 61.04H835.923V69.2H737.883V61.04ZM782.043 44.84H791.883V64.64H782.043V44.84ZM750.603 99.8H825.123V107.96H750.603V99.8ZM750.603 77.96H760.563V102.56H750.603V77.96ZM861.943 59.12H960.223V67.28H861.943V59.12ZM906.823 63.2H916.783V88.16H906.823V63.2ZM874.423 99.8H949.303V107.96H874.423V99.8ZM874.423 78.56H884.263V102.92H874.423V78.56ZM875.023 5.24H884.863V19.04H937.303V5.24H947.263V48.68H875.023V5.24ZM884.863 26.84V40.64H937.303V26.84H884.863ZM964.053 88.64H1062.33V96.92H964.053V88.64ZM1007.85 60.56H1017.81V92.36H1007.85V60.56ZM972.573 12.2H1053.09V20.36H972.573V12.2ZM972.813 55.88H1052.97V63.92H972.813V55.88ZM989.493 18.8H999.453V57.32H989.493V18.8ZM1026.45 18.8H1036.29V57.32H1026.45V18.8Z" fill="#686868"/>
</svg>
