<svg width="1061" height="110" viewBox="0 0 1061 110" fill="none" xmlns="http://www.w3.org/2000/svg">
<path d="M46.08 12.16H55.8C55.8 43.48 45.24 72.28 6.36 91.6L0.96 83.92C35.28 67 46.08 42.76 46.08 13.24V12.16ZM6.84 12.16H51.96V20.2H6.84V12.16ZM44.52 39.04V46.72L3 50.8L1.44 41.92L44.52 39.04ZM73.32 0.759997H83.4V109.36H73.32V0.759997ZM80.64 44.8H100.68V53.08H80.64V44.8ZM146.991 41.92H167.391V50.2H146.991V41.92ZM105.951 75.16H112.911C129.591 75.16 139.551 74.8 151.551 72.4L152.511 80.56C140.151 82.96 129.831 83.32 112.911 83.32H105.951V75.16ZM105.951 13.96H146.151V22H115.431V77.92H105.951V13.96ZM112.551 43.24H141.231V51.16H112.551V43.24ZM184.431 0.879996H194.031V109.36H184.431V0.879996ZM162.591 3.39999H172.071V103.84H162.591V3.39999ZM214.301 11.68H284.141V19.96H214.301V11.68ZM203.981 85.96H302.021V94.24H203.981V85.96ZM242.021 47.2H251.981V90.04H242.021V47.2ZM280.421 11.68H290.261V22.48C290.261 35.92 290.261 50.8 286.301 72.76L276.341 71.44C280.421 50.68 280.421 35.44 280.421 22.48V11.68ZM384.932 0.759997H394.892V109.48H384.932V0.759997ZM312.212 75.04H321.212C339.332 75.04 355.532 74.32 374.732 71.2L375.812 79.36C356.132 82.6 339.812 83.32 321.212 83.32H312.212V75.04ZM311.972 10.96H362.132V49.72H322.172V78.16H312.212V41.56H352.052V19.12H311.972V10.96ZM459.082 16.24H489.682V24.04H459.082V16.24ZM459.082 36.04H489.682V43.84H459.082V36.04ZM487.162 0.879996H497.122V57.4H487.162V0.879996ZM427.282 62.8H497.122V88.48H437.242V105.16H427.522V81.04H487.282V70.72H427.282V62.8ZM427.522 100H501.082V107.92H427.522V100ZM413.242 5.8H423.082V21.4H452.482V5.8H462.202V53.2H413.242V5.8ZM423.082 29.2V45.16H452.482V29.2H423.082ZM556.022 56.68H565.862V89.2H556.022V56.68ZM596.102 56.68H606.062V89.2H596.102V56.68ZM532.022 87.28H630.302V95.56H532.022V87.28ZM580.982 7.71999C603.902 7.71999 620.342 18.64 620.342 35.68C620.342 52.6 603.902 63.52 580.982 63.52C557.942 63.52 541.502 52.6 541.502 35.68C541.502 18.64 557.942 7.71999 580.982 7.71999ZM580.982 15.64C563.582 15.64 551.102 23.56 551.102 35.68C551.102 47.68 563.582 55.6 580.982 55.6C598.382 55.6 610.742 47.68 610.742 35.68C610.742 23.56 598.382 15.64 580.982 15.64ZM715.133 17.32H733.973V25.72H715.133V17.32ZM715.133 40.6H733.973V48.88H715.133V40.6ZM708.173 0.879996H718.133V65.32H708.173V0.879996ZM647.693 70.48H718.133V109.36H708.173V78.52H647.693V70.48ZM664.253 7.23999C680.573 7.23999 692.573 17.8 692.573 33.04C692.573 48.16 680.573 58.6 664.253 58.6C647.933 58.6 635.933 48.16 635.933 33.04C635.933 17.8 647.933 7.23999 664.253 7.23999ZM664.253 15.76C653.453 15.76 645.653 22.72 645.653 33.04C645.653 43.24 653.453 50.32 664.253 50.32C675.053 50.32 682.853 43.24 682.853 33.04C682.853 22.72 675.053 15.76 664.253 15.76ZM748.963 5.2H758.803V18.76H811.243V5.2H821.203V48.52H748.963V5.2ZM758.803 26.68V40.48H811.243V26.68H758.803ZM735.883 60.04H833.923V68.2H735.883V60.04ZM780.043 43.84H789.883V63.64H780.043V43.84ZM748.603 98.8H823.123V106.96H748.603V98.8ZM748.603 76.96H758.563V101.56H748.603V76.96ZM859.943 58.12H958.223V66.28H859.943V58.12ZM904.823 62.2H914.783V87.16H904.823V62.2ZM872.423 98.8H947.303V106.96H872.423V98.8ZM872.423 77.56H882.263V101.92H872.423V77.56ZM873.023 4.24H882.863V18.04H935.303V4.24H945.263V47.68H873.023V4.24ZM882.863 25.84V39.64H935.303V25.84H882.863ZM962.053 87.64H1060.33V95.92H962.053V87.64ZM1005.85 59.56H1015.81V91.36H1005.85V59.56ZM970.573 11.2H1051.09V19.36H970.573V11.2ZM970.813 54.88H1050.97V62.92H970.813V54.88ZM987.493 17.8H997.453V56.32H987.493V17.8ZM1024.45 17.8H1034.29V56.32H1024.45V17.8Z" fill="#686868"/>
</svg>
