<svg width="546" height="421" viewBox="0 0 546 421" fill="none" xmlns="http://www.w3.org/2000/svg">
<path opacity="0.9" d="M62.125 11.25C62.1667 25.1667 60.8958 37.25 58.3125 47.5C55.7708 57.7083 50.75 67.25 43.25 76.125C35.7917 85 24.9583 93.0417 10.75 100.25L0 84.75C8.625 80.4167 15.6667 75.9167 21.125 71.25C26.625 66.5417 30.9375 61.4375 34.0625 55.9375L3.875 58.875L1.5 41.625L40.125 39.5625C40.9583 35.7292 41.5208 31.6667 41.8125 27.375H7.75V11.25H62.125ZM93.875 43.125H108.75V59.875H93.875V116.25H73.5V0.625H93.875V43.125ZM158.25 28.75H134.25V43.75H154.5V59.375H134.25V76.125C139.625 76.0417 144.458 75.875 148.75 75.625C153.083 75.3333 157.458 74.875 161.875 74.25L163.375 90.5C157.458 91.375 151.625 91.9375 145.875 92.1875C140.167 92.3958 132.625 92.5 123.25 92.5H114.875V12.75H158.25V28.75ZM213.125 116.25H193.75V0.75H213.125V116.25ZM188.25 111.75H169.25V58H159V41.75H169.25V2.375H188.25V111.75ZM319.75 20.25V24.75C319.75 33.2917 319.438 41.5625 318.812 49.5625C318.229 57.5208 316.958 66.625 315 76.875L294.625 74.75C296.5 65.4167 297.729 56.8958 298.312 49.1875C298.938 41.4792 299.25 33.625 299.25 25.625H233.375V9.5H319.75V20.25ZM328.375 104H222.875V87.5H257.875V48.875H278.375V87.5H328.375V104ZM431.375 116.75H410.875V0.625H431.375V116.75ZM395 56.75H360.125V73.8125C368.833 73.7292 376.688 73.4167 383.688 72.875C390.729 72.3333 397.708 71.4583 404.625 70.25L406.625 86.5C398.417 88.0417 390.021 89.0833 381.438 89.625C372.896 90.125 362.458 90.375 350.125 90.375H339.375V40.875H374.125V26.125H339.25V9.875H395V56.75ZM542.625 59.5H522.125V50.375H505.125V57.125H448.375V5.25H468.625V16.75H485.125V5.25H505.125V14H522.125V0.875H542.625V59.5ZM542.625 96.375H484.625V99.625H545.375V115.375H464.5V81.75H522.375V78.625H464.375V63.125H542.625V96.375ZM485.125 41.5V31.875H468.625V41.5H485.125ZM522.125 35.25V29.25H505.125V35.25H522.125ZM107.125 256.875H1.625V240.375H23.25V213.938C19 211.104 15.7083 207.688 13.375 203.688C11.0833 199.646 9.95833 195.208 10 190.375C10 184.042 11.8958 178.458 15.6875 173.625C19.5208 168.792 24.7917 165.062 31.5 162.438C38.25 159.812 45.8333 158.5 54.25 158.5C62.7083 158.5 70.2917 159.812 77 162.438C83.75 165.062 89.0417 168.792 92.875 173.625C96.7083 178.458 98.625 184.042 98.625 190.375C98.625 195.208 97.4583 199.625 95.125 203.625C92.8333 207.625 89.5833 211.042 85.375 213.875V240.375H107.125V256.875ZM54.25 174.25C46.75 174.25 40.8542 175.625 36.5625 178.375C32.3125 181.125 30.1667 185.125 30.125 190.375C30.1667 195.542 32.3333 199.521 36.625 202.312C40.9167 205.062 46.7917 206.417 54.25 206.375C61.75 206.417 67.6458 205.062 71.9375 202.312C76.2708 199.521 78.4167 195.542 78.375 190.375C78.4167 185.125 76.2917 181.125 72 178.375C67.7083 175.625 61.7917 174.25 54.25 174.25ZM65 240.375V221.312C61.7083 221.854 58.125 222.125 54.25 222.125C50.5417 222.125 47 221.875 43.625 221.375V240.375H65ZM218.5 183.75H204.625V192.5H218.5V209H204.625V221.75H184.25V153.875H204.625V167.25H218.5V183.75ZM204.625 269.375H184.25V242H125.625V226H204.625V269.375ZM144.5 159.75C150.5 159.75 155.979 161 160.938 163.5C165.938 165.958 169.854 169.396 172.688 173.812C175.562 178.229 177 183.167 177 188.625C177 194.083 175.562 199 172.688 203.375C169.854 207.75 165.958 211.208 161 213.75C156.042 216.25 150.542 217.5 144.5 217.5C138.5 217.5 133.021 216.25 128.062 213.75C123.146 211.208 119.25 207.75 116.375 203.375C113.542 199 112.125 194.083 112.125 188.625C112.125 183.167 113.542 178.229 116.375 173.812C119.25 169.396 123.146 165.958 128.062 163.5C133.021 161 138.5 159.75 144.5 159.75ZM144.375 177C140.708 177 137.729 178 135.438 180C133.146 182 132 184.917 132 188.75C132 192.542 133.167 195.438 135.5 197.438C137.833 199.396 140.833 200.375 144.5 200.375C148.25 200.375 151.271 199.375 153.562 197.375C155.896 195.375 157.083 192.458 157.125 188.625C157.083 184.792 155.896 181.896 153.562 179.938C151.229 177.979 148.167 177 144.375 177ZM256 167H294.875V157.75H315.125V205.5H285.375V213.625H328.25V229.625H222.75V213.625H265V205.5H235.875V157.75H256V167ZM294.875 189.5V182.5H256V189.5H294.875ZM316.375 267.75H235V234.875H255.375V251.5H316.375V267.75ZM107 380.75H66.25V396.375H45.875V380.75H1.5V364.75H107V380.75ZM95.375 420.75H13V388.75H33.25V404.5H95.375V420.75ZM34.75 320.5H73.625V310.375H93.875V358.75H14.625V310.375H34.75V320.5ZM73.625 343.125V335.625H34.75V343.125H73.625ZM217.75 410.375H112.25V394H154.625V377H120.375V361H134.125V331.375H119.625V315.25H209.875V331.375H195.375V361H209.375V377H174.875V394H217.75V410.375ZM175 361V331.375H154.5V361H175Z" fill="#607ABB"/>
</svg>
