<svg width="873" height="88" viewBox="0 0 873 88" fill="none" xmlns="http://www.w3.org/2000/svg">
<path opacity="0.9" d="M46.25 9C46.2188 19.0312 45.2031 27.8594 43.2031 35.4844C41.2031 43.0781 37.3906 50.1719 31.7656 56.7656C26.1719 63.3281 18.1562 69.25 7.71875 74.5312L0.40625 64.125C7.125 60.75 12.625 57.2031 16.9062 53.4844C21.1875 49.7344 24.5312 45.625 26.9375 41.1562L3.03125 43.4062L1.4375 31.7812L31.0156 30.1406C31.7031 27.1094 32.2031 23.6562 32.5156 19.7812H6.03125V9H46.25ZM69.5 33.0938H81.125V44.3438H69.5V86.8125H55.8125V0.84375H69.5V33.0938ZM118.719 20.9062H99.5V33.1875H115.625V43.7812H99.5V57.5625C103.969 57.5 107.906 57.3594 111.312 57.1406C114.75 56.9219 118.219 56.5312 121.719 55.9688L122.75 66.9375C118.25 67.6562 113.797 68.125 109.391 68.3438C105.016 68.5312 99.375 68.625 92.4688 68.625H86.4688V10.125H118.719V20.9062ZM158.938 86.9062H146V0.9375H158.938V86.9062ZM140.656 83.3438H127.812V42.8438H119.281V31.875H127.812V2.25H140.656V83.3438ZM238.719 15.9375C238.688 21 238.609 25.3281 238.484 28.9219C238.391 32.5156 238.078 36.75 237.547 41.625C237.047 46.5 236.25 51.8125 235.156 57.5625L221.469 56.1562C222.875 49.0625 223.797 42.6406 224.234 36.8906C224.672 31.1406 224.906 25.0938 224.938 18.75H175.062V7.875H238.719V15.9375ZM245.656 77.1562H167.188V66H194.188V36.8438H207.875V66H245.656V77.1562ZM322.625 87.1875H308.938V0.84375H322.625V87.1875ZM295.812 42H268.625V56.1562C275.438 56.0938 281.578 55.8594 287.047 55.4531C292.547 55.0469 298.031 54.375 303.5 53.4375L304.812 64.4062C298.656 65.5312 292.438 66.2969 286.156 66.7031C279.906 67.1094 272.656 67.3125 264.406 67.3125H262.531H254.656V31.2188H281.75V18.8438H254.562V7.96875H295.812V42ZM406.062 44.9062H392.281V37.2188H378.125V42.75H336.5V4.40625H350.094V13.6875H364.625V4.40625H378.125V11.25H392.281V1.03125H406.062V44.9062ZM406.062 71.7188H361.906V75.4688H408.312V86.1562H348.406V61.875H392.375V58.3125H348.219V47.8125H406.062V71.7188ZM364.625 32.25V23.9062H350.094V32.25H364.625ZM392.281 27V21.5625H378.125V27H392.281ZM517.719 77.3438H439.156V66.1875H455.844V45.7969C452.594 43.7031 450.078 41.1719 448.297 38.2031C446.516 35.2031 445.625 31.875 445.625 28.2188C445.625 23.5625 447.031 19.4688 449.844 15.9375C452.656 12.375 456.547 9.625 461.516 7.6875C466.484 5.75 472.094 4.78125 478.344 4.78125C484.594 4.78125 490.188 5.75 495.125 7.6875C500.094 9.625 503.984 12.375 506.797 15.9375C509.641 19.4688 511.062 23.5625 511.062 28.2188C511.031 31.875 510.125 35.2031 508.344 38.2031C506.594 41.1719 504.094 43.6875 500.844 45.75V66.1875H517.719V77.3438ZM478.344 15.4688C474.469 15.4375 471.094 15.9219 468.219 16.9219C465.344 17.9219 463.125 19.375 461.562 21.2812C460 23.1875 459.219 25.5 459.219 28.2188C459.219 30.875 460 33.1719 461.562 35.1094C463.125 37.0156 465.344 38.4688 468.219 39.4688C471.094 40.4688 474.469 40.9688 478.344 40.9688C482.219 40.9688 485.594 40.4688 488.469 39.4688C491.344 38.4688 493.562 37.0156 495.125 35.1094C496.688 33.1719 497.469 30.875 497.469 28.2188C497.469 25.5 496.688 23.1875 495.125 21.2812C493.562 19.375 491.344 17.9219 488.469 16.9219C485.594 15.9219 482.219 15.4375 478.344 15.4688ZM487.156 66.1875V50.8125C484.219 51.3125 481.281 51.5625 478.344 51.5625C475.406 51.5625 472.469 51.3125 469.531 50.8125V66.1875H487.156ZM601.344 22.6875H590.562V30.2812H601.344V41.4375H590.562V51.5625H576.875V1.03125H590.562V11.5312H601.344V22.6875ZM590.562 87H576.875V65.7188H532.25V54.9375H590.562V87ZM546.219 5.4375C550.656 5.4375 554.688 6.375 558.312 8.25C561.938 10.0937 564.797 12.6406 566.891 15.8906C568.984 19.1094 570.031 22.75 570.031 26.8125C570.031 30.8438 568.984 34.4688 566.891 37.6875C564.828 40.9062 561.969 43.4375 558.312 45.2812C554.688 47.0938 550.656 48 546.219 48C541.75 48 537.688 47.0938 534.031 45.2812C530.406 43.4375 527.562 40.9062 525.5 37.6875C523.438 34.4688 522.406 30.8438 522.406 26.8125C522.406 22.75 523.438 19.0938 525.5 15.8438C527.594 12.5938 530.453 10.0469 534.078 8.20312C537.703 6.35938 541.75 5.4375 546.219 5.4375ZM546.219 17.0625C543.125 17.0938 540.594 17.9531 538.625 19.6406C536.688 21.3281 535.719 23.7188 535.719 26.8125C535.719 29.875 536.688 32.25 538.625 33.9375C540.562 35.625 543.062 36.4688 546.125 36.4688C549.25 36.4688 551.781 35.6406 553.719 33.9844C555.688 32.2969 556.656 29.9062 556.625 26.8125C556.656 23.7188 555.703 21.3281 553.766 19.6406C551.828 17.9531 549.312 17.0938 546.219 17.0625ZM628.438 11.625H660.031V4.03125H673.625V39.2812H650.938V45.9375H683.469V56.7188H605V45.9375H637.25V39.2812H614.938V4.03125H628.438V11.625ZM660.031 28.5V22.125H628.438V28.5H660.031ZM674.656 85.5938H614.281V61.2188H627.969V74.625H674.656V85.5938ZM789.594 55.3125H758.375V67.9688H744.594V55.3125H711.031V44.5312H789.594V55.3125ZM780.875 85.5938H719.844V61.875H733.531V74.625H780.875V85.5938ZM734.469 11.8125H766.062V3.65625H779.656V39.2812H720.969V3.65625H734.469V11.8125ZM766.062 28.6875V22.0312H734.469V28.6875H766.062ZM872.656 77.625H794.094V66.5625H826.344V52.5H800.375V41.8125H811.156V18.5625H799.906V7.59375H866.469V18.5625H855.125V41.8125H866.094V52.5H840.031V66.5625H872.656V77.625ZM841.438 41.8125V18.5625H824.938V41.8125H841.438Z" fill="#607ABB"/>
</svg>
