<svg width="1162" height="117" viewBox="0 0 1162 117" fill="none" xmlns="http://www.w3.org/2000/svg">
<path opacity="0.9" d="M60.125 11.25C60.1667 25.1667 58.8958 37.25 56.3125 47.5C53.7708 57.7083 48.75 67.25 41.25 76.125C33.7917 85 22.9583 93.0417 8.75 100.25L-2 84.75C6.625 80.4167 13.6667 75.9167 19.125 71.25C24.625 66.5417 28.9375 61.4375 32.0625 55.9375L1.875 58.875L-0.5 41.625L38.125 39.5625C38.9583 35.7292 39.5208 31.6667 39.8125 27.375H5.75V11.25H60.125ZM91.875 43.125H106.75V59.875H91.875V116.25H71.5V0.625H91.875V43.125ZM156.25 28.75H132.25V43.75H152.5V59.375H132.25V76.125C137.625 76.0417 142.458 75.875 146.75 75.625C151.083 75.3333 155.458 74.875 159.875 74.25L161.375 90.5C155.458 91.375 149.625 91.9375 143.875 92.1875C138.167 92.3958 130.625 92.5 121.25 92.5H112.875V12.75H156.25V28.75ZM211.125 116.25H191.75V0.75H211.125V116.25ZM186.25 111.75H167.25V58H157V41.75H167.25V2.375H186.25V111.75ZM317.75 20.25V24.75C317.75 33.2917 317.438 41.5625 316.812 49.5625C316.229 57.5208 314.958 66.625 313 76.875L292.625 74.75C294.5 65.4167 295.729 56.8958 296.312 49.1875C296.938 41.4792 297.25 33.625 297.25 25.625H231.375V9.5H317.75V20.25ZM326.375 104H220.875V87.5H255.875V48.875H276.375V87.5H326.375V104ZM429.375 116.75H408.875V0.625H429.375V116.75ZM393 56.75H358.125V73.8125C366.833 73.7292 374.688 73.4167 381.688 72.875C388.729 72.3333 395.708 71.4583 402.625 70.25L404.625 86.5C396.417 88.0417 388.021 89.0833 379.438 89.625C370.896 90.125 360.458 90.375 348.125 90.375H337.375V40.875H372.125V26.125H337.25V9.875H393V56.75ZM540.625 59.5H520.125V50.375H503.125V57.125H446.375V5.25H466.625V16.75H483.125V5.25H503.125V14H520.125V0.875H540.625V59.5ZM540.625 96.375H482.625V99.625H543.375V115.375H462.5V81.75H520.375V78.625H462.375V63.125H540.625V96.375ZM483.125 41.5V31.875H466.625V41.5H483.125ZM520.125 35.25V29.25H503.125V35.25H520.125ZM688.625 103.875H583.125V87.375H604.75V60.9375C600.5 58.1042 597.208 54.6875 594.875 50.6875C592.583 46.6458 591.458 42.2083 591.5 37.375C591.5 31.0417 593.396 25.4583 597.188 20.625C601.021 15.7917 606.292 12.0625 613 9.4375C619.75 6.8125 627.333 5.5 635.75 5.5C644.208 5.5 651.792 6.8125 658.5 9.4375C665.25 12.0625 670.542 15.7917 674.375 20.625C678.208 25.4583 680.125 31.0417 680.125 37.375C680.125 42.2083 678.958 46.625 676.625 50.625C674.333 54.625 671.083 58.0417 666.875 60.875V87.375H688.625V103.875ZM635.75 21.25C628.25 21.25 622.354 22.625 618.062 25.375C613.812 28.125 611.667 32.125 611.625 37.375C611.667 42.5417 613.833 46.5208 618.125 49.3125C622.417 52.0625 628.292 53.4167 635.75 53.375C643.25 53.4167 649.146 52.0625 653.438 49.3125C657.771 46.5208 659.917 42.5417 659.875 37.375C659.917 32.125 657.792 28.125 653.5 25.375C649.208 22.625 643.292 21.25 635.75 21.25ZM646.5 87.375V68.3125C643.208 68.8542 639.625 69.125 635.75 69.125C632.042 69.125 628.5 68.875 625.125 68.375V87.375H646.5ZM800 30.75H786.125V39.5H800V56H786.125V68.75H765.75V0.875H786.125V14.25H800V30.75ZM786.125 116.375H765.75V89H707.125V73H786.125V116.375ZM726 6.75C732 6.75 737.479 8 742.438 10.5C747.438 12.9583 751.354 16.3958 754.188 20.8125C757.062 25.2292 758.5 30.1667 758.5 35.625C758.5 41.0833 757.062 46 754.188 50.375C751.354 54.75 747.458 58.2083 742.5 60.75C737.542 63.25 732.042 64.5 726 64.5C720 64.5 714.521 63.25 709.562 60.75C704.646 58.2083 700.75 54.75 697.875 50.375C695.042 46 693.625 41.0833 693.625 35.625C693.625 30.1667 695.042 25.2292 697.875 20.8125C700.75 16.3958 704.646 12.9583 709.562 10.5C714.521 8 720 6.75 726 6.75ZM725.875 24C722.208 24 719.229 25 716.938 27C714.646 29 713.5 31.9167 713.5 35.75C713.5 39.5417 714.667 42.4375 717 44.4375C719.333 46.3958 722.333 47.375 726 47.375C729.75 47.375 732.771 46.375 735.062 44.375C737.396 42.375 738.583 39.4583 738.625 35.625C738.583 31.7917 737.396 28.8958 735.062 26.9375C732.729 24.9792 729.667 24 725.875 24ZM837.5 14H876.375V4.75H896.625V52.5H866.875V60.625H909.75V76.625H804.25V60.625H846.5V52.5H817.375V4.75H837.5V14ZM876.375 36.5V29.5H837.5V36.5H876.375ZM897.875 114.75H816.5V81.875H836.875V98.5H897.875V114.75ZM1050.75 74.75H1010V90.375H989.625V74.75H945.25V58.75H1050.75V74.75ZM1039.12 114.75H956.75V82.75H977V98.5H1039.12V114.75ZM978.5 14.5H1017.38V4.375H1037.62V52.75H958.375V4.375H978.5V14.5ZM1017.38 37.125V29.625H978.5V37.125H1017.38ZM1161.5 104.375H1056V88H1098.38V71H1064.12V55H1077.88V25.375H1063.38V9.25H1153.62V25.375H1139.12V55H1153.12V71H1118.62V88H1161.5V104.375ZM1118.75 55V25.375H1098.25V55H1118.75Z" fill="#607ABB"/>
</svg>
