<svg width="200" height="162" viewBox="0 0 200 162" fill="none" xmlns="http://www.w3.org/2000/svg">
<path d="M84 107.38L170.292 154.474V60.2855L84 107.38Z" fill="white"/>
<path d="M29 0H170V99H29V0Z" fill="white"/>
<path d="M114.484 107.38L28.6215 60.2857V154.474L114.484 107.38Z" fill="white"/>
<path d="M79.6053 59.7L97.8421 30L116.079 59.7H79.6053ZM116.079 96C111.934 96 108.412 94.5568 105.512 91.6704C102.611 88.784 101.16 85.2772 101.158 81.15C101.158 77.025 102.609 73.5193 105.512 70.6329C108.414 67.7465 111.936 66.3022 116.079 66.3C120.224 66.3 123.747 67.7443 126.65 70.6329C129.552 73.5215 131.002 77.0272 131 81.15C131 85.275 129.55 88.7818 126.65 91.6704C123.749 94.559 120.226 96.0022 116.079 96ZM68 94.35V67.95H94.5263V94.35H68Z" fill="#7295C9"/>
</svg>
