<svg width="18" height="19" viewBox="0 0 18 19" fill="none" xmlns="http://www.w3.org/2000/svg">
<path d="M3.31579 8.55L8.52632 0L13.7368 8.55H3.31579ZM13.7368 19C12.5526 19 11.5462 18.5845 10.7176 17.7536C9.88895 16.9227 9.47432 15.9131 9.47368 14.725C9.47368 13.5375 9.88832 12.5283 10.7176 11.6974C11.5468 10.8664 12.5533 10.4506 13.7368 10.45C14.9211 10.45 15.9278 10.8658 16.7571 11.6974C17.5863 12.5289 18.0006 13.5381 18 14.725C18 15.9125 17.5857 16.922 16.7571 17.7536C15.9284 18.5852 14.9217 19.0006 13.7368 19ZM0 18.525V10.925H7.57895V18.525H0Z" fill="black"/>
</svg>
