<svg width="77" height="77" viewBox="0 0 77 77" fill="none" xmlns="http://www.w3.org/2000/svg">
<path d="M20.8542 35.291L38.5 6.41602L56.1458 35.291H20.8542ZM56.1458 70.5827C52.1354 70.5827 48.7271 69.1796 45.9209 66.3733C43.1147 63.5671 41.7105 60.1577 41.7083 56.1452C41.7083 52.1348 43.1125 48.7264 45.9209 45.9202C48.7292 43.114 52.1376 41.7098 56.1458 41.7077C60.1562 41.7077 63.5656 43.1119 66.374 45.9202C69.1824 48.7286 70.5855 52.1369 70.5833 56.1452C70.5833 60.1556 69.1802 63.565 66.374 66.3733C63.5678 69.1817 60.1584 70.5848 56.1458 70.5827ZM9.625 68.9785V43.3118H35.2917V68.9785H9.625Z" fill="white"/>
</svg>
