<svg width="199" height="163" viewBox="0 0 199 163" fill="none" xmlns="http://www.w3.org/2000/svg">
<path d="M83.5742 111.561L169.866 155.669V67.4525L83.5742 111.561Z" fill="white"/>
<path d="M29 0H170V110.518H29V0Z" fill="white"/>
<path d="M114.484 110.488L28.6215 66.3797V154.596L114.484 110.488Z" fill="white"/>
<path d="M83.2027 57.95L97.6764 26L112.15 57.95H83.2027ZM112.15 97C108.861 97 106.065 95.4475 103.763 92.3424C101.461 89.2373 100.31 85.4649 100.308 81.025C100.308 76.5875 101.46 72.8162 103.763 69.7111C106.067 66.6061 108.862 65.0524 112.15 65.05C115.44 65.05 118.236 66.6037 120.54 69.7111C122.843 72.8186 123.994 76.5899 123.992 81.025C123.992 85.4625 122.841 89.235 120.54 92.3424C118.238 95.4498 115.441 97.0024 112.15 97ZM73.9922 95.225V66.825H95.0448V95.225H73.9922Z" fill="#7295C9"/>
</svg>
