<svg width="67" height="71" viewBox="0 0 67 71" fill="none" xmlns="http://www.w3.org/2000/svg">
<path d="M12.3421 31.95L31.7368 0L51.1316 31.95H12.3421ZM51.1316 71C46.7237 71 42.9776 69.4475 39.8932 66.3424C36.8089 63.2373 35.2655 59.4649 35.2632 55.025C35.2632 50.5875 36.8065 46.8162 39.8932 43.7112C42.9799 40.6061 46.726 39.0524 51.1316 39.05C55.5395 39.05 59.2868 40.6037 62.3735 43.7112C65.4602 46.8186 67.0024 50.5899 67 55.025C67 59.4625 65.4578 63.235 62.3735 66.3424C59.2891 69.4498 55.5418 71.0024 51.1316 71ZM0 69.225V40.825H28.2105V69.225H0Z" fill="black" fill-opacity="0.72"/>
</svg>
