<svg width="438" height="438" viewBox="0 0 438 438" fill="none" xmlns="http://www.w3.org/2000/svg">
<path d="M80.6569 197.033L207.403 0L334.149 197.033H80.6569ZM334.149 437.85C305.341 437.85 280.863 428.276 260.708 409.127C240.546 389.978 230.462 366.714 230.448 339.334C230.448 311.968 240.533 288.711 260.708 269.562C280.877 250.414 305.355 240.832 334.149 240.818C362.957 240.818 387.442 250.399 407.618 269.562C427.786 288.726 437.864 311.983 437.85 339.334C437.85 366.699 427.773 389.964 407.618 409.127C387.456 428.29 362.971 437.865 334.149 437.85ZM0 426.904V251.764H184.358V426.904H0Z" fill="black"/>
</svg>
