<svg width="85" height="80" viewBox="0 0 85 80" fill="none" xmlns="http://www.w3.org/2000/svg">
<g filter="url(#filter0_d_1548_325)">
<path fill-rule="evenodd" clip-rule="evenodd" d="M50.8178 65.8961V8.7092C50.8178 6.14723 50.8107 4.48617 50.6474 3.26853C50.4912 2.12479 50.2391 1.76583 50.0368 1.56524C49.8345 1.36464 49.4724 1.11478 48.3187 0.959937C47.0869 0.798054 45.415 0.791016 42.8308 0.791016C40.2465 0.791016 38.571 0.798054 37.3428 0.959937C36.1891 1.11478 35.827 1.36464 35.6247 1.56524C35.4224 1.76583 35.1703 2.12479 35.0141 3.26853C34.8509 4.48969 34.8438 6.14723 34.8438 8.7092V65.8961H50.8178Z" fill="#B1B1B1"/>
<path opacity="0.7" d="M29.5209 24.5452C29.5209 23.8451 29.2404 23.1738 28.7411 22.6788C28.2418 22.1838 27.5646 21.9058 26.8585 21.9058H16.2092C15.5031 21.9058 14.8259 22.1838 14.3267 22.6788C13.8274 23.1738 13.5469 23.8451 13.5469 24.5452V65.8957H29.5209V24.5452ZM72.1182 42.1411C72.1182 41.4411 71.8377 40.7698 71.3385 40.2748C70.8392 39.7798 70.162 39.5017 69.4559 39.5017H58.8066C58.1005 39.5017 57.4233 39.7798 56.924 40.2748C56.4247 40.7698 56.1442 41.4411 56.1442 42.1411V65.8957H72.1182V42.1411Z" fill="#B1B1B1"/>
<path opacity="0.5" d="M7.33421 65.895C6.62811 65.895 5.95094 66.1731 5.45165 66.6681C4.95237 67.1631 4.67188 67.8344 4.67188 68.5344C4.67188 69.2344 4.95237 69.9058 5.45165 70.4008C5.95094 70.8957 6.62811 71.1738 7.33421 71.1738H78.3298C79.0359 71.1738 79.7131 70.8957 80.2123 70.4008C80.7116 69.9058 80.9921 69.2344 80.9921 68.5344C80.9921 67.8344 80.7116 67.1631 80.2123 66.6681C79.7131 66.1731 79.0359 65.895 78.3298 65.895H8.22165H7.33421Z" fill="#B1B1B1"/>
</g>
<defs>
<filter id="filter0_d_1548_325" x="0.671875" y="0.791016" width="84.3203" height="78.3828" filterUnits="userSpaceOnUse" color-interpolation-filters="sRGB">
<feFlood flood-opacity="0" result="BackgroundImageFix"/>
<feColorMatrix in="SourceAlpha" type="matrix" values="0 0 0 0 0 0 0 0 0 0 0 0 0 0 0 0 0 0 127 0" result="hardAlpha"/>
<feOffset dy="4"/>
<feGaussianBlur stdDeviation="2"/>
<feComposite in2="hardAlpha" operator="out"/>
<feColorMatrix type="matrix" values="0 0 0 0 0 0 0 0 0 0 0 0 0 0 0 0 0 0 0.25 0"/>
<feBlend mode="normal" in2="BackgroundImageFix" result="effect1_dropShadow_1548_325"/>
<feBlend mode="normal" in="SourceGraphic" in2="effect1_dropShadow_1548_325" result="shape"/>
</filter>
</defs>
</svg>
