<svg width="76" height="72" viewBox="0 0 76 72" fill="none" xmlns="http://www.w3.org/2000/svg">
<g filter="url(#filter0_d_1424_324)">
<path fill-rule="evenodd" clip-rule="evenodd" d="M45.1154 58.5116V7.11628C45.1154 4.81377 45.109 3.32093 44.9636 2.2266C44.8244 1.1987 44.5998 0.876093 44.4196 0.695814C44.2393 0.515535 43.9167 0.290977 42.8888 0.151814C41.7913 0.0063259 40.3016 0 37.9991 0C35.6966 0 34.2037 0.0063259 33.1094 0.151814C32.0815 0.290977 31.7589 0.515535 31.5786 0.695814C31.3983 0.876093 31.1738 1.1987 31.0346 2.2266C30.8891 3.32409 30.8828 4.81377 30.8828 7.11628V58.5116H45.1154Z" fill="black"/>
<path opacity="0.7" d="M26.1388 21.3487C26.1388 20.7195 25.8889 20.1162 25.444 19.6713C24.9992 19.2265 24.3958 18.9766 23.7667 18.9766H14.2783C13.6492 18.9766 13.0459 19.2265 12.601 19.6713C12.1562 20.1162 11.9062 20.7195 11.9062 21.3487V58.5115H26.1388V21.3487ZM64.0923 37.1626C64.0923 36.5335 63.8424 35.9301 63.3975 35.4853C62.9527 35.0404 62.3493 34.7905 61.7202 34.7905H52.2318C51.6027 34.7905 50.9994 35.0404 50.5545 35.4853C50.1097 35.9301 49.8597 36.5335 49.8597 37.1626V58.5115H64.0923V37.1626Z" fill="black"/>
<path opacity="0.5" d="M6.37209 58.5098C5.74297 58.5098 5.13962 58.7597 4.69477 59.2045C4.24992 59.6494 4 60.2527 4 60.8819C4 61.511 4.24992 62.1143 4.69477 62.5592C5.13962 63.004 5.74297 63.254 6.37209 63.254H69.6279C70.257 63.254 70.8604 63.004 71.3052 62.5592C71.7501 62.1143 72 61.511 72 60.8819C72 60.2527 71.7501 59.6494 71.3052 59.2045C70.8604 58.7597 70.257 58.5098 69.6279 58.5098H7.16279H6.37209Z" fill="black"/>
</g>
<defs>
<filter id="filter0_d_1424_324" x="0.0567801" y="0" width="75.8864" height="71.1403" filterUnits="userSpaceOnUse" color-interpolation-filters="sRGB">
<feFlood flood-opacity="0" result="BackgroundImageFix"/>
<feColorMatrix in="SourceAlpha" type="matrix" values="0 0 0 0 0 0 0 0 0 0 0 0 0 0 0 0 0 0 127 0" result="hardAlpha"/>
<feOffset dy="3.94322"/>
<feGaussianBlur stdDeviation="1.97161"/>
<feComposite in2="hardAlpha" operator="out"/>
<feColorMatrix type="matrix" values="0 0 0 0 0 0 0 0 0 0 0 0 0 0 0 0 0 0 0.25 0"/>
<feBlend mode="normal" in2="BackgroundImageFix" result="effect1_dropShadow_1424_324"/>
<feBlend mode="normal" in="SourceGraphic" in2="effect1_dropShadow_1424_324" result="shape"/>
</filter>
</defs>
</svg>
