<svg width="77" height="77" viewBox="0 0 77 77" fill="none" xmlns="http://www.w3.org/2000/svg">
<path fill-rule="evenodd" clip-rule="evenodd" d="M44.918 65.7712V13.6357C44.918 11.3001 44.9116 9.78574 44.764 8.67566C44.6228 7.63295 44.395 7.3057 44.2121 7.12283C44.0293 6.93995 43.702 6.71216 42.6593 6.57099C41.546 6.42341 40.0349 6.41699 37.6992 6.41699C35.3636 6.41699 33.8492 6.42341 32.7391 6.57099C31.6964 6.71216 31.3692 6.93995 31.1863 7.12283C31.0034 7.3057 30.7756 7.63295 30.6345 8.67566C30.4869 9.78895 30.4805 11.3001 30.4805 13.6357V65.7712H44.918Z" fill="white"/>
<path opacity="0.7" d="M25.668 28.0732C25.668 27.4351 25.4145 26.823 24.9632 26.3718C24.5119 25.9205 23.8999 25.667 23.2617 25.667H13.6367C12.9985 25.667 12.3865 25.9205 11.9352 26.3718C11.484 26.823 11.2305 27.4351 11.2305 28.0732V65.7712H25.668V28.0732ZM64.168 44.1149C64.168 43.4767 63.9145 42.8647 63.4632 42.4134C63.0119 41.9622 62.3999 41.7087 61.7617 41.7087H52.1367C51.4985 41.7087 50.8865 41.9622 50.4352 42.4134C49.984 42.8647 49.7305 43.4767 49.7305 44.1149V65.7712H64.168V44.1149Z" fill="white"/>
<path opacity="0.5" d="M5.61328 65.7705C4.9751 65.7705 4.36307 66.024 3.91181 66.4753C3.46055 66.9265 3.20703 67.5386 3.20703 68.1768C3.20703 68.8149 3.46055 69.427 3.91181 69.8782C4.36307 70.3295 4.9751 70.583 5.61328 70.583H69.7799C70.4181 70.583 71.0302 70.3295 71.4814 69.8782C71.9327 69.427 72.1862 68.8149 72.1862 68.1768C72.1862 67.5386 71.9327 66.9265 71.4814 66.4753C71.0302 66.024 70.4181 65.7705 69.7799 65.7705H6.41536H5.61328Z" fill="white"/>
</svg>
