<svg width="77" height="72" viewBox="0 0 77 72" fill="none" xmlns="http://www.w3.org/2000/svg">
<path fill-rule="evenodd" clip-rule="evenodd" d="M46.8178 65.8961V8.7092C46.8178 6.14723 46.8107 4.48617 46.6474 3.26853C46.4912 2.12479 46.2391 1.76583 46.0368 1.56524C45.8345 1.36464 45.4724 1.11478 44.3187 0.959937C43.0869 0.798054 41.415 0.791016 38.8308 0.791016C36.2465 0.791016 34.571 0.798054 33.3428 0.959937C32.1891 1.11478 31.827 1.36464 31.6247 1.56524C31.4224 1.76583 31.1703 2.12479 31.0141 3.26853C30.8509 4.48969 30.8438 6.14723 30.8438 8.7092V65.8961H46.8178Z" fill="#FBD4D4"/>
<path opacity="0.7" d="M25.5209 24.5452C25.5209 23.8451 25.2404 23.1738 24.7411 22.6788C24.2418 22.1838 23.5646 21.9058 22.8585 21.9058H12.2092C11.5031 21.9058 10.8259 22.1838 10.3267 22.6788C9.82737 23.1738 9.54688 23.8451 9.54688 24.5452V65.8957H25.5209V24.5452ZM68.1182 42.1411C68.1182 41.4411 67.8377 40.7698 67.3385 40.2748C66.8392 39.7798 66.162 39.5017 65.4559 39.5017H54.8066C54.1005 39.5017 53.4233 39.7798 52.924 40.2748C52.4247 40.7698 52.1442 41.4411 52.1442 42.1411V65.8957H68.1182V42.1411Z" fill="#FBD4D4"/>
<path opacity="0.5" d="M3.33421 65.895C2.62811 65.895 1.95094 66.1731 1.45165 66.6681C0.95237 67.1631 0.671875 67.8344 0.671875 68.5344C0.671875 69.2344 0.95237 69.9058 1.45165 70.4008C1.95094 70.8957 2.62811 71.1738 3.33421 71.1738H74.3298C75.0359 71.1738 75.7131 70.8957 76.2123 70.4008C76.7116 69.9058 76.9921 69.2344 76.9921 68.5344C76.9921 67.8344 76.7116 67.1631 76.2123 66.6681C75.7131 66.1731 75.0359 65.895 74.3298 65.895H4.22165H3.33421Z" fill="#FBD4D4"/>
</svg>
