<svg width="199" height="163" viewBox="0 0 199 163" fill="none" xmlns="http://www.w3.org/2000/svg">
<path d="M83.9453 108.112L170.237 155.206V61.0179L83.9453 108.112Z" fill="white"/>
<path d="M28.9922 -39H170.38V106.967H28.9922V-39Z" fill="white"/>
<path d="M114.855 106.967L28.9926 59.8726V154.061L114.855 106.967Z" fill="white"/>
<g filter="url(#filter0_d_1149_9)">
<path fill-rule="evenodd" clip-rule="evenodd" d="M104.115 85.5116V34.1163C104.115 31.8138 104.109 30.3209 103.964 29.2266C103.824 28.1987 103.6 27.8761 103.42 27.6958C103.239 27.5155 102.917 27.291 101.889 27.1518C100.791 27.0063 99.3016 27 96.9991 27C94.6966 27 93.2037 27.0063 92.1094 27.1518C91.0815 27.291 90.7589 27.5155 90.5786 27.6958C90.3983 27.8761 90.1738 28.1987 90.0346 29.2266C89.8891 30.3241 89.8828 31.8138 89.8828 34.1163V85.5116H104.115Z" fill="#688CC3"/>
<path opacity="0.7" d="M85.1388 48.3487C85.1388 47.7195 84.8889 47.1162 84.444 46.6713C83.9992 46.2265 83.3958 45.9766 82.7667 45.9766H73.2783C72.6492 45.9766 72.0459 46.2265 71.601 46.6713C71.1562 47.1162 70.9062 47.7195 70.9062 48.3487V85.5115H85.1388V48.3487ZM123.092 64.1626C123.092 63.5335 122.842 62.9301 122.398 62.4853C121.953 62.0404 121.349 61.7905 120.72 61.7905H111.232C110.603 61.7905 109.999 62.0404 109.555 62.4853C109.11 62.9301 108.86 63.5335 108.86 64.1626V85.5115H123.092V64.1626Z" fill="#688CC3"/>
<path opacity="0.5" d="M65.3721 85.5107C64.743 85.5107 64.1396 85.7607 63.6948 86.2055C63.2499 86.6504 63 87.2537 63 87.8828C63 88.512 63.2499 89.1153 63.6948 89.5602C64.1396 90.005 64.743 90.2549 65.3721 90.2549H128.628C129.257 90.2549 129.86 90.005 130.305 89.5602C130.75 89.1153 131 88.512 131 87.8828C131 87.2537 130.75 86.6504 130.305 86.2055C129.86 85.7607 129.257 85.5107 128.628 85.5107H66.1628H65.3721Z" fill="#688CC3"/>
</g>
<defs>
<filter id="filter0_d_1149_9" x="59.0568" y="27" width="75.8864" height="71.1413" filterUnits="userSpaceOnUse" color-interpolation-filters="sRGB">
<feFlood flood-opacity="0" result="BackgroundImageFix"/>
<feColorMatrix in="SourceAlpha" type="matrix" values="0 0 0 0 0 0 0 0 0 0 0 0 0 0 0 0 0 0 127 0" result="hardAlpha"/>
<feOffset dy="3.94322"/>
<feGaussianBlur stdDeviation="1.97161"/>
<feComposite in2="hardAlpha" operator="out"/>
<feColorMatrix type="matrix" values="0 0 0 0 0 0 0 0 0 0 0 0 0 0 0 0 0 0 0.25 0"/>
<feBlend mode="normal" in2="BackgroundImageFix" result="effect1_dropShadow_1149_9"/>
<feBlend mode="normal" in="SourceGraphic" in2="effect1_dropShadow_1149_9" result="shape"/>
</filter>
</defs>
</svg>
