<svg width="42" height="49" viewBox="0 0 42 49" fill="none" xmlns="http://www.w3.org/2000/svg">
<path d="M32.3329 32.1522C32.449 32.2683 32.5412 32.4062 32.604 32.5579C32.6669 32.7096 32.6992 32.8722 32.6992 33.0365C32.6992 33.2007 32.6669 33.3633 32.604 33.5151C32.5412 33.6668 32.449 33.8047 32.3329 33.9208C32.2168 34.0369 32.0789 34.1291 31.9272 34.1919C31.7755 34.2548 31.6128 34.2871 31.4486 34.2871C31.2844 34.2871 31.1217 34.2548 30.97 34.1919C30.8183 34.1291 30.6804 34.0369 30.5643 33.9208L20.1992 23.5542L9.83417 33.9208C9.59963 34.1553 9.28153 34.2871 8.94984 34.2871C8.61816 34.2871 8.30006 34.1553 8.06552 33.9208C7.83098 33.6863 7.69922 33.3682 7.69922 33.0365C7.69922 32.7048 7.83098 32.3867 8.06552 32.1522L18.4321 21.7871L8.06552 11.4221C7.83098 11.1875 7.69922 10.8694 7.69922 10.5377C7.69922 10.206 7.83098 9.88795 8.06552 9.65341C8.30006 9.41887 8.61816 9.28711 8.94984 9.28711C9.28153 9.28711 9.59963 9.41887 9.83417 9.65341L20.1992 20.02L30.5643 9.65341C30.7988 9.41887 31.1169 9.28711 31.4486 9.28711C31.7803 9.28711 32.0984 9.41887 32.3329 9.65341C32.5675 9.88795 32.6992 10.206 32.6992 10.5377C32.6992 10.8694 32.5675 11.1875 32.3329 11.4221L21.9663 21.7871L32.3329 32.1522Z" fill="black" fill-opacity="0.45"/>
</svg>
