<svg width="220" height="220" viewBox="0 0 220 220" fill="none" xmlns="http://www.w3.org/2000/svg">
<rect x="0.242188" width="219.238" height="219.238" fill="#CEE2FE"/>
<path d="M139.042 92.05V116.9C139.042 118.783 138.294 120.589 136.963 121.92C135.631 123.252 133.825 124 131.942 124C130.059 124 128.253 123.252 126.922 121.92C125.59 120.589 124.842 118.783 124.842 116.9V99.15H117.742V63.65C117.742 60.8254 118.864 58.1166 120.861 56.1193C122.859 54.1221 125.568 53 128.392 53H139.042V92.05ZM89.3422 88.5C87.4592 88.5 85.6532 87.752 84.3217 86.4205C82.9902 85.0889 82.2422 83.283 82.2422 81.4V56.55C82.2422 55.6085 82.6162 54.7055 83.282 54.0398C83.9477 53.374 84.8507 53 85.7922 53C86.7337 53 87.6367 53.374 88.3024 54.0398C88.9682 54.7055 89.3422 55.6085 89.3422 56.55V70.75H92.8922V56.55C92.8922 55.6085 93.2662 54.7055 93.932 54.0398C94.5977 53.374 95.5007 53 96.4422 53C97.3837 53 98.2867 53.374 98.9524 54.0398C99.6182 54.7055 99.9922 55.6085 99.9922 56.55V70.75H103.542V56.55C103.542 55.6085 103.916 54.7055 104.582 54.0398C105.248 53.374 106.151 53 107.092 53C108.034 53 108.937 53.374 109.602 54.0398C110.268 54.7055 110.642 55.6085 110.642 56.55V81.4C110.642 83.283 109.894 85.0889 108.563 86.4205C107.231 87.752 105.425 88.5 103.542 88.5V116.9C103.542 118.783 102.794 120.589 101.463 121.92C100.131 123.252 98.3252 124 96.4422 124C94.5592 124 92.7532 123.252 91.4217 121.92C90.0902 120.589 89.3422 118.783 89.3422 116.9V88.5Z" fill="#4661AC"/>
<path d="M83.673 174.088H86.8331V184.493H83.673V174.088ZM96.5447 174.088H99.7434V184.493H96.5447V174.088ZM75.9269 183.876H107.528V186.536H75.9269V183.876ZM91.6504 158.326C94.1168 158.326 96.3006 158.698 98.2018 159.443C100.103 160.188 101.593 161.229 102.672 162.565C103.777 163.901 104.329 165.481 104.329 167.305C104.329 169.104 103.777 170.684 102.672 172.045C101.593 173.381 100.103 174.422 98.2018 175.167C96.3006 175.886 94.1168 176.246 91.6504 176.246C89.2096 176.246 87.0258 175.886 85.0989 175.167C83.1977 174.422 81.7076 173.381 80.6285 172.045C79.5495 170.684 79.0099 169.104 79.0099 167.305C79.0099 165.481 79.5495 163.901 80.6285 162.565C81.7076 161.229 83.1977 160.188 85.0989 159.443C87.0258 158.698 89.2096 158.326 91.6504 158.326ZM91.6504 160.869C89.8006 160.869 88.1563 161.139 86.7175 161.679C85.2788 162.218 84.1483 162.976 83.3262 163.952C82.504 164.903 82.093 166.021 82.093 167.305C82.093 168.59 82.504 169.72 83.3262 170.696C84.1483 171.647 85.2788 172.392 86.7175 172.932C88.1563 173.471 89.8006 173.741 91.6504 173.741C93.5259 173.741 95.183 173.471 96.6218 172.932C98.0605 172.392 99.191 171.647 100.013 170.696C100.835 169.72 101.246 168.59 101.246 167.305C101.246 166.021 100.835 164.903 100.013 163.952C99.191 162.976 98.0605 162.218 96.6218 161.679C95.183 161.139 93.5259 160.869 91.6504 160.869ZM136.775 156.129H139.935V191.044H136.775V156.129ZM113.383 179.946H116.273C118.251 179.946 120.153 179.92 121.977 179.868C123.827 179.791 125.689 179.663 127.565 179.483C129.466 179.303 131.444 179.046 133.5 178.712L133.808 181.333C130.673 181.847 127.719 182.194 124.944 182.373C122.169 182.528 119.279 182.605 116.273 182.605H113.383V179.946ZM113.306 159.366H129.415V171.814H116.62V180.948H113.383V169.232H126.177V161.987H113.306V159.366Z" fill="#4661AC"/>
</svg>
