<svg width="17" height="17" viewBox="0 0 17 17" fill="none" xmlns="http://www.w3.org/2000/svg">
<path d="M15.8125 0H4.8125C4.63016 0 4.4553 0.072433 4.32636 0.201364C4.19743 0.330295 4.125 0.505164 4.125 0.6875V4.125H0.6875C0.505164 4.125 0.330295 4.19743 0.201364 4.32636C0.072433 4.4553 0 4.63016 0 4.8125V15.8125C0 15.9948 0.072433 16.1697 0.201364 16.2986C0.330295 16.4276 0.505164 16.5 0.6875 16.5H11.6875C11.8698 16.5 12.0447 16.4276 12.1736 16.2986C12.3026 16.1697 12.375 15.9948 12.375 15.8125V12.375H15.8125C15.9948 12.375 16.1697 12.3026 16.2986 12.1736C16.4276 12.0447 16.5 11.8698 16.5 11.6875V0.6875C16.5 0.505164 16.4276 0.330295 16.2986 0.201364C16.1697 0.072433 15.9948 0 15.8125 0ZM11 15.125H1.375V5.5H11V15.125ZM15.125 11H12.375V4.8125C12.375 4.63016 12.3026 4.4553 12.1736 4.32636C12.0447 4.19743 11.8698 4.125 11.6875 4.125H5.5V1.375H15.125V11Z" fill="black"/>
</svg>
