<svg width="30" height="30" viewBox="0 0 30 30" fill="none" xmlns="http://www.w3.org/2000/svg">
<circle cx="15" cy="15" r="15" fill="url(#paint0_linear_1631_6)"/>
<path d="M8.59688 13.2C7.60687 13.2 6.79688 14.01 6.79688 15C6.79688 15.99 7.60687 16.8 8.59688 16.8C9.58688 16.8 10.3969 15.99 10.3969 15C10.3969 14.01 9.58688 13.2 8.59688 13.2ZM21.1969 13.2C20.2069 13.2 19.3969 14.01 19.3969 15C19.3969 15.99 20.2069 16.8 21.1969 16.8C22.1869 16.8 22.9969 15.99 22.9969 15C22.9969 14.01 22.1869 13.2 21.1969 13.2ZM14.8969 13.2C13.9069 13.2 13.0969 14.01 13.0969 15C13.0969 15.99 13.9069 16.8 14.8969 16.8C15.8869 16.8 16.6969 15.99 16.6969 15C16.6969 14.01 15.8869 13.2 14.8969 13.2Z" fill="black"/>
<defs>
<linearGradient id="paint0_linear_1631_6" x1="-3.91744e-07" y1="15.7" x2="30" y2="15" gradientUnits="userSpaceOnUse">
<stop stop-color="#8EA5CC"/>
<stop offset="1" stop-color="#C8A7A7"/>
</linearGradient>
</defs>
</svg>
