<svg width="220" height="220" viewBox="0 0 220 220" fill="none" xmlns="http://www.w3.org/2000/svg">
<rect width="219.238" height="219.238" fill="#506DBF"/>
<path d="M92.6138 162.565H101.94V165.147H92.6138V162.565ZM92.3055 169.81H101.709V172.431H92.3055V169.81ZM101.4 156.168H104.599V177.017H101.4V156.168ZM90.4942 158.75H93.8856C93.8856 161.73 93.2304 164.415 91.9201 166.804C90.6355 169.193 88.7729 171.249 86.3321 172.97C83.9171 174.666 81.0396 176.015 77.6996 177.017L76.3894 174.473C79.3439 173.6 81.8746 172.469 83.9813 171.082C86.0881 169.669 87.6938 168.05 88.7986 166.226C89.929 164.376 90.4942 162.347 90.4942 160.137V158.75ZM78.1621 158.75H92.6524V161.37H78.1621V158.75ZM93.269 177.402C95.6326 177.402 97.6623 177.672 99.358 178.211C101.079 178.751 102.415 179.522 103.366 180.524C104.317 181.526 104.792 182.72 104.792 184.108C104.792 185.521 104.317 186.728 103.366 187.73C102.415 188.707 101.079 189.464 99.358 190.004C97.6623 190.569 95.6326 190.852 93.269 190.852C90.931 190.852 88.8885 190.569 87.1414 190.004C85.4201 189.464 84.0841 188.707 83.1335 187.73C82.1829 186.728 81.7076 185.521 81.7076 184.108C81.7076 182.72 82.1829 181.526 83.1335 180.524C84.0841 179.522 85.4201 178.751 87.1414 178.211C88.8885 177.672 90.931 177.402 93.269 177.402ZM93.269 179.946C91.5733 179.946 90.096 180.113 88.8371 180.447C87.5782 180.781 86.6019 181.256 85.9082 181.872C85.2145 182.489 84.8677 183.234 84.8677 184.108C84.8677 184.981 85.2145 185.726 85.9082 186.343C86.6019 186.959 87.5782 187.435 88.8371 187.769C90.096 188.103 91.5733 188.27 93.269 188.27C94.9903 188.27 96.4676 188.103 97.7008 187.769C98.9341 187.435 99.8975 186.959 100.591 186.343C101.285 185.726 101.632 184.981 101.632 184.108C101.632 183.234 101.285 182.489 100.591 181.872C99.8975 181.256 98.9341 180.781 97.7008 180.447C96.4676 180.113 94.9903 179.946 93.269 179.946ZM137.893 156.129H140.937V191.006H137.893V156.129ZM125.175 168.654H131.881V171.275H125.175V168.654ZM130.918 156.938H133.923V189.195H130.918V156.938ZM118.508 161.563H120.975V165.995C120.975 167.896 120.795 169.759 120.435 171.583C120.076 173.381 119.549 175.077 118.855 176.67C118.161 178.237 117.314 179.663 116.312 180.948C115.31 182.206 114.179 183.234 112.92 184.031L110.955 181.641C112.573 180.665 113.935 179.355 115.04 177.71C116.17 176.066 117.031 174.229 117.622 172.199C118.213 170.17 118.508 168.102 118.508 165.995V161.563ZM119.163 161.563H121.591V165.995C121.591 167.999 121.874 169.964 122.439 171.891C123.03 173.818 123.865 175.565 124.944 177.132C126.049 178.674 127.398 179.907 128.991 180.832L127.064 183.221C125.368 182.168 123.929 180.768 122.747 179.021C121.591 177.248 120.705 175.244 120.088 173.009C119.472 170.748 119.163 168.41 119.163 165.995V161.563ZM111.918 160.214H127.835V162.835H111.918V160.214Z" fill="#F5F5F7"/>
<path fill-rule="evenodd" clip-rule="evenodd" d="M120.054 94.8505C119.464 93.1786 118.37 91.7311 116.925 90.7073C115.479 89.6835 113.752 89.1338 111.981 89.1337V86.9902H107.701V89.1337C105.431 89.1337 103.253 90.0371 101.648 91.645C100.043 93.2529 99.1406 95.4338 99.1406 97.7077C99.1406 99.9817 100.043 102.163 101.648 103.77C103.253 105.378 105.431 106.282 107.701 106.282V114.856C105.839 114.856 104.253 113.666 103.663 111.998C103.575 111.726 103.434 111.473 103.247 111.256C103.06 111.039 102.832 110.861 102.575 110.734C102.319 110.607 102.04 110.533 101.754 110.515C101.468 110.498 101.182 110.538 100.912 110.634C100.643 110.729 100.395 110.878 100.183 111.071C99.9718 111.264 99.8012 111.498 99.6815 111.758C99.5618 112.019 99.4955 112.3 99.4864 112.587C99.4773 112.873 99.5256 113.159 99.6286 113.426C100.219 115.098 101.312 116.545 102.758 117.569C104.204 118.593 105.931 119.143 107.701 119.143V121.286H111.981V119.143C114.252 119.143 116.429 118.239 118.035 116.631C119.64 115.024 120.542 112.843 120.542 110.569C120.542 108.295 119.64 106.114 118.035 104.506C116.429 102.898 114.252 101.995 111.981 101.995V93.4207C112.867 93.4205 113.73 93.6952 114.453 94.2069C115.176 94.7186 115.722 95.4422 116.018 96.278C116.207 96.8141 116.601 97.253 117.113 97.4983C117.366 97.6197 117.641 97.6899 117.922 97.7049C118.203 97.7198 118.483 97.6793 118.748 97.5856C119.013 97.4918 119.257 97.3467 119.467 97.1585C119.676 96.9704 119.846 96.7428 119.967 96.4888C120.088 96.2348 120.158 95.9594 120.173 95.6783C120.188 95.3972 120.148 95.1159 120.054 94.8505ZM107.701 93.4207C106.566 93.4207 105.477 93.8724 104.675 94.6764C103.872 95.4803 103.421 96.5708 103.421 97.7077C103.421 98.8447 103.872 99.9351 104.675 100.739C105.477 101.543 106.566 101.995 107.701 101.995V93.4207ZM111.981 114.856C113.117 114.856 114.205 114.404 115.008 113.6C115.811 112.796 116.262 111.706 116.262 110.569C116.262 109.432 115.811 108.341 115.008 107.537C114.205 106.733 113.117 106.282 111.981 106.282V114.856Z" fill="#F5F5F7"/>
<path fill-rule="evenodd" clip-rule="evenodd" d="M86.4659 61.6181C91.7178 59.0438 100.334 56 109.763 56C118.996 56 127.385 58.9173 132.609 61.4574L132.904 61.601C134.48 62.3812 135.751 63.1186 136.645 63.7166L128.74 75.2915C146.965 93.9529 161.043 133.16 109.763 133.16C58.4838 133.16 72.1827 94.6645 90.5664 75.2915L82.7121 63.7166C83.3178 63.3201 84.0861 62.8592 85.0021 62.3705C85.4558 62.1261 85.9437 61.8732 86.4659 61.6181ZM123.659 75.1393L129.987 65.873C124.102 66.2974 117.1 67.6821 110.358 69.637C105.543 71.0302 100.193 70.818 95.2383 69.9028C93.9898 69.6709 92.7499 69.395 91.5209 69.0754L95.6299 75.1351C104.437 78.2753 114.85 78.2753 123.659 75.1393ZM93.1581 78.7854C103.463 82.7724 115.848 82.7724 126.152 78.7812C130.454 83.3226 134.052 88.4835 136.827 94.0922C139.721 100.004 141.296 105.914 141.039 111.007C140.791 115.922 138.86 120.121 134.452 123.242C129.857 126.493 122.129 128.873 109.761 128.873C97.3806 128.873 89.6162 126.534 84.9785 123.319C80.5378 120.239 78.5881 116.095 78.312 111.247C78.0231 106.209 79.564 100.33 82.4468 94.3773C85.1968 88.7013 89.0341 83.2375 93.1581 78.7854ZM90.6969 64.394C92.409 64.9041 94.1982 65.3478 96.013 65.6843C100.614 66.5332 105.228 66.6575 109.166 65.515C113.755 64.1761 118.422 63.123 123.141 62.3619C119.203 61.1744 114.598 60.287 109.761 60.287C102.388 60.287 95.5122 62.3469 90.6969 64.394Z" fill="#F5F5F7"/>
</svg>
