<svg width="220" height="220" viewBox="0 0 220 220" fill="none" xmlns="http://www.w3.org/2000/svg">
<path d="M0 0H219.238V219.238H0V0Z" fill="#E3F0DC"/>
<path d="M79.2026 159.636H101.593V162.257H79.2026V159.636ZM75.9269 183.453H107.412V186.112H75.9269V183.453ZM83.6345 171.968H86.8331V184.416H83.6345V171.968ZM100.553 159.636H103.751V163.451C103.751 164.916 103.726 166.432 103.674 167.999C103.649 169.566 103.546 171.249 103.366 173.047C103.212 174.82 102.929 176.785 102.518 178.944L99.358 178.597C99.9489 175.488 100.296 172.739 100.398 170.35C100.501 167.935 100.553 165.635 100.553 163.451V159.636ZM92.267 171.968H95.4271V184.416H92.267V171.968ZM119.664 174.165H122.863V181.063H119.664V174.165ZM131.38 174.165H134.54V181.025H131.38V174.165ZM111.379 172.932H142.864V175.514H111.379V172.932ZM114.886 179.868H138.972V191.006H135.773V182.451H114.886V179.868ZM127.102 156.938C129.62 156.938 131.791 157.208 133.615 157.748C135.439 158.287 136.852 159.058 137.854 160.06C138.856 161.036 139.357 162.218 139.357 163.605C139.357 165.019 138.856 166.226 137.854 167.228C136.852 168.204 135.439 168.962 133.615 169.502C131.791 170.041 129.62 170.311 127.102 170.311C124.61 170.311 122.439 170.041 120.589 169.502C118.765 168.962 117.352 168.204 116.35 167.228C115.348 166.226 114.847 165.019 114.847 163.605C114.847 162.218 115.348 161.036 116.35 160.06C117.352 159.058 118.765 158.287 120.589 157.748C122.439 157.208 124.61 156.938 127.102 156.938ZM127.102 159.482C125.278 159.482 123.685 159.649 122.324 159.983C120.988 160.291 119.947 160.754 119.202 161.37C118.483 161.987 118.123 162.732 118.123 163.605C118.123 164.479 118.483 165.224 119.202 165.841C119.947 166.457 120.988 166.933 122.324 167.267C123.685 167.601 125.278 167.768 127.102 167.768C128.952 167.768 130.545 167.601 131.881 167.267C133.243 166.933 134.283 166.457 135.003 165.841C135.722 165.224 136.082 164.479 136.082 163.605C136.082 162.732 135.722 161.987 135.003 161.37C134.283 160.754 133.243 160.291 131.881 159.983C130.545 159.649 128.952 159.482 127.102 159.482Z" fill="#4661AC"/>
<path fill-rule="evenodd" clip-rule="evenodd" d="M87.7978 50.0231L121.869 50.0058V63.2825L87.7978 63.2998C86.2589 63.3015 84.7599 62.8106 83.5202 61.8989L77.9973 57.8231C77.8161 57.689 77.6689 57.5144 77.5674 57.3132C77.466 57.1119 77.4131 56.8897 77.4131 56.6643C77.4131 56.4389 77.466 56.2167 77.5674 56.0154C77.6689 55.8142 77.8161 55.6396 77.9973 55.5055L83.5259 51.4239C84.7618 50.5125 86.2564 50.0197 87.792 50.0173L87.7978 50.0231ZM135.895 63.271L129.075 63.2767V50H135.918C139.573 50.0576 142.369 53.3033 142.369 56.6297C142.369 59.9619 139.573 63.2133 135.918 63.271H135.895ZM101.703 76.588C103.634 77.3605 105.277 78.208 106.701 79.0497V127.406C104.504 125.755 102.101 124.399 99.5525 123.371C95.3153 121.676 89.2044 120.275 79.8825 120.275C79.118 120.275 78.3848 119.971 77.8443 119.431C77.3037 118.89 77 118.157 77 117.392V75.9539C77 75.1894 77.3037 74.4562 77.8443 73.9157C78.3848 73.3751 79.118 73.0714 79.8825 73.0714C89.7982 73.0714 96.6585 74.5645 101.703 76.588ZM121.05 123.371C117.937 124.622 115.752 126.057 113.902 127.4V79.0497C115.325 78.208 116.974 77.3605 118.906 76.588C123.95 74.5645 130.81 73.0714 140.726 73.0714C141.49 73.0714 142.224 73.3751 142.764 73.9157C143.305 74.4562 143.608 75.1894 143.608 75.9539V117.392C143.608 118.157 143.305 118.89 142.764 119.431C142.224 119.971 141.49 120.275 140.726 120.275C131.404 120.275 125.293 121.67 121.05 123.371Z" fill="#4661AC"/>
</svg>
