<svg width="220" height="220" viewBox="0 0 220 220" fill="none" xmlns="http://www.w3.org/2000/svg">
<rect width="219.238" height="219.238" fill="#F5F5F7"/>
<path d="M92.0358 161.602H102.518V164.222H92.0358V161.602ZM92.0358 169.926H102.518V172.546H92.0358V169.926ZM101.4 156.168H104.599V181.911H101.4V156.168ZM82.3627 187.615H105.563V190.235H82.3627V187.615ZM82.3627 179.252H85.5228V188.732H82.3627V179.252ZM85.4458 158.364C87.1414 158.364 88.6573 158.737 89.9932 159.482C91.3549 160.227 92.4211 161.255 93.1919 162.565C93.9884 163.875 94.3866 165.378 94.3866 167.074C94.3866 168.795 93.9884 170.311 93.1919 171.621C92.4211 172.932 91.3549 173.959 89.9932 174.704C88.6573 175.449 87.1414 175.822 85.4458 175.822C83.7244 175.822 82.1829 175.449 80.8212 174.704C79.4852 173.959 78.419 172.932 77.6226 171.621C76.8518 170.311 76.4664 168.795 76.4664 167.074C76.4664 165.378 76.8518 163.875 77.6226 162.565C78.419 161.255 79.4852 160.227 80.8212 159.482C82.1829 158.737 83.7244 158.364 85.4458 158.364ZM85.4458 161.216C84.3153 161.216 83.3005 161.473 82.4013 161.987C81.5021 162.475 80.7955 163.169 80.2817 164.068C79.7678 164.941 79.5109 165.956 79.5109 167.112C79.5109 168.243 79.7678 169.258 80.2817 170.157C80.7955 171.056 81.5021 171.763 82.4013 172.277C83.3005 172.765 84.3153 173.009 85.4458 173.009C86.5505 173.009 87.5525 172.765 88.4517 172.277C89.351 171.763 90.0575 171.056 90.5713 170.157C91.0852 169.258 91.3421 168.243 91.3421 167.112C91.3421 165.956 91.0852 164.941 90.5713 164.068C90.0575 163.169 89.351 162.475 88.4517 161.987C87.5525 161.473 86.5505 161.216 85.4458 161.216ZM125.252 164.569H132.074V167.19H125.252V164.569ZM125.252 175.167H132.074V177.826H125.252V175.167ZM137.931 156.129H141.014V191.006H137.931V156.129ZM131.072 156.861H134.116V189.233H131.072V156.861ZM119.202 159.058C120.718 159.058 122.028 159.546 123.133 160.522C124.263 161.499 125.137 162.899 125.753 164.723C126.37 166.547 126.678 168.692 126.678 171.159C126.678 173.651 126.37 175.809 125.753 177.633C125.137 179.457 124.263 180.87 123.133 181.872C122.028 182.849 120.718 183.337 119.202 183.337C117.738 183.337 116.44 182.849 115.31 181.872C114.205 180.87 113.344 179.457 112.728 177.633C112.111 175.809 111.803 173.651 111.803 171.159C111.803 168.692 112.111 166.547 112.728 164.723C113.344 162.899 114.205 161.499 115.31 160.522C116.44 159.546 117.738 159.058 119.202 159.058ZM119.202 162.025C118.303 162.025 117.506 162.398 116.813 163.143C116.145 163.888 115.631 164.941 115.271 166.303C114.911 167.665 114.732 169.283 114.732 171.159C114.732 173.034 114.911 174.666 115.271 176.053C115.631 177.415 116.145 178.468 116.813 179.213C117.506 179.958 118.303 180.331 119.202 180.331C120.153 180.331 120.962 179.958 121.63 179.213C122.298 178.468 122.812 177.415 123.171 176.053C123.557 174.666 123.749 173.034 123.749 171.159C123.749 169.283 123.557 167.665 123.171 166.303C122.812 164.941 122.298 163.888 121.63 163.143C120.962 162.398 120.153 162.025 119.202 162.025Z" fill="#4661AC"/>
<path d="M129.847 89.2441L116.204 75.5651C115.998 72.5994 116.705 69.6416 118.229 67.0895C119.754 64.5375 122.024 62.5136 124.733 61.29C127.443 60.0664 130.462 59.7018 133.385 60.2453C136.307 60.7888 138.994 62.2143 141.082 64.33C143.191 66.4238 144.61 69.1115 145.15 72.0338C145.69 74.9561 145.325 77.9735 144.103 80.6826C142.881 83.3916 140.862 85.663 138.314 87.193C135.766 88.723 132.812 89.4386 129.847 89.2441ZM79.1433 115.873L112.703 82.3499L123.026 92.673L89.4664 126.232L79.1798 115.873H79.1433ZM74.0365 126.196L81.7332 118.463L86.913 123.642L79.1798 131.376L74 126.196H74.0365ZM108.872 114.778L116.168 107.483V133.017H108.872V114.778Z" fill="#4661AC"/>
</svg>
