<svg width="220" height="220" viewBox="0 0 220 220" fill="none" xmlns="http://www.w3.org/2000/svg">
<path d="M0.238281 0H219.476V219.238H0.238281V0Z" fill="#E3F0DC"/>
<path d="M102.48 156.129H105.563V191.006H102.48V156.129ZM87.3341 170.388H96.1208V172.97H87.3341V170.388ZM95.2344 157.054H98.2404V189.233H95.2344V157.054ZM87.758 160.561H90.8411C90.8411 163.593 90.4043 166.509 89.5308 169.309C88.683 172.084 87.2956 174.679 85.3687 177.094C83.4418 179.483 80.9111 181.616 77.7767 183.491L75.9269 181.179C78.6502 179.534 80.8854 177.685 82.6325 175.629C84.3796 173.548 85.6642 171.3 86.4863 168.885C87.3341 166.444 87.758 163.862 87.758 161.139V160.561ZM77.4299 160.561H88.9527V163.182H77.4299V160.561ZM136.737 156.168H139.935V176.053H136.737V156.168ZM117.429 177.942H139.935V190.544H117.429V177.942ZM136.814 180.524H120.551V187.923H136.814V180.524ZM121.245 157.979C123.017 157.979 124.584 158.326 125.946 159.019C127.308 159.713 128.374 160.677 129.145 161.91C129.941 163.117 130.339 164.53 130.339 166.149C130.339 167.742 129.941 169.155 129.145 170.388C128.374 171.596 127.308 172.546 125.946 173.24C124.584 173.934 123.017 174.28 121.245 174.28C119.497 174.28 117.93 173.934 116.543 173.24C115.181 172.546 114.102 171.596 113.306 170.388C112.535 169.155 112.15 167.742 112.15 166.149C112.15 164.53 112.535 163.117 113.306 161.91C114.102 160.677 115.181 159.713 116.543 159.019C117.93 158.326 119.497 157.979 121.245 157.979ZM121.245 160.677C120.114 160.677 119.099 160.908 118.2 161.37C117.301 161.833 116.581 162.475 116.042 163.297C115.528 164.094 115.271 165.044 115.271 166.149C115.271 167.202 115.528 168.14 116.042 168.962C116.581 169.784 117.301 170.427 118.2 170.889C119.099 171.352 120.114 171.583 121.245 171.583C122.401 171.583 123.428 171.352 124.328 170.889C125.227 170.427 125.933 169.784 126.447 168.962C126.961 168.14 127.218 167.202 127.218 166.149C127.218 165.044 126.961 164.094 126.447 163.297C125.933 162.475 125.227 161.833 124.328 161.37C123.428 160.908 122.401 160.677 121.245 160.677Z" fill="#4661AC"/>
<path fill-rule="evenodd" clip-rule="evenodd" d="M125.291 65.0098C128.148 65.0098 130.511 66.6101 132.24 68.2916C134.041 70.0358 135.693 72.3811 137.16 74.966C140.107 80.1506 142.672 86.9246 144.368 93.6174C146.053 100.259 146.985 107.195 146.39 112.649C145.791 118.125 142.927 124.01 136.524 124.01C130.997 124.01 126.594 121.207 122.992 118.364L121.678 117.299L119.836 115.768L118.173 114.411C114.358 111.369 110.969 109.26 106.57 109.26C102.17 109.26 98.7815 111.369 94.966 114.411L93.3036 115.768L91.4614 117.299L90.1509 118.364C86.5414 121.207 82.1381 124.01 76.6153 124.01C70.2088 124.01 67.3444 118.125 66.7491 112.649C66.1575 107.191 67.0861 100.259 68.771 93.6174C70.4671 86.9246 73.032 80.1506 75.9787 74.9623C77.4465 72.3811 79.0977 70.0358 80.8987 68.288C82.6286 66.6101 84.9912 65.0098 87.8481 65.0098C89.7764 65.0098 91.6598 65.4633 93.5132 66.0054L95.7299 66.6728C96.1006 66.7835 96.4675 66.8941 96.8344 66.9936C100.073 67.9081 103.387 68.6973 106.57 68.6973C109.752 68.6973 113.066 67.9081 116.305 66.9936L119.618 66.0091C121.483 65.467 123.381 65.0098 125.291 65.0098ZM125.291 72.3848C123.857 72.3848 122.359 72.8125 120.906 73.2808L119.192 73.8376C118.917 73.9255 118.641 74.0091 118.364 74.0884C115.05 75.0176 110.876 76.0723 106.57 76.0723C102.264 76.0723 98.0888 75.0176 94.7751 74.0884L93.9513 73.8376L92.2327 73.2808C90.7799 72.8088 89.2822 72.3848 87.8481 72.3848C86.283 72.6724 84.8789 74.542 83.8193 76.2751L83.2277 77.2891L82.5163 78.565C79.9627 83.0564 77.6113 89.185 76.0387 95.4058C74.5597 101.217 73.8408 106.785 74.1141 110.93L74.2114 112.011L74.2863 112.66L74.3987 113.427C74.657 114.905 75.2149 116.635 76.6153 116.635C79.6556 116.635 82.1943 115.145 85.3507 112.674L86.8596 111.465L89.7053 109.12L90.9933 108.087C94.9773 104.979 99.9609 101.885 106.57 101.885C113.178 101.885 118.162 104.982 122.146 108.087L123.438 109.12L126.283 111.465L127.788 112.674C130.945 115.145 133.48 116.635 136.524 116.635C137.797 116.635 138.374 115.208 138.662 113.836L138.804 113.032L138.943 111.863C139.403 107.637 138.692 101.667 137.104 95.4058C135.659 89.705 133.562 84.0778 131.256 79.7192L129.911 77.2855L129.32 76.2788C128.26 74.542 126.856 72.6724 125.291 72.3848ZM93.4646 79.7598C95.9472 79.7598 98.3281 80.731 100.084 82.4599C101.839 84.1887 102.825 86.5336 102.825 88.9785C102.825 91.4235 101.839 93.7683 100.084 95.4972C98.3281 97.226 95.9472 98.1973 93.4646 98.1973C90.982 98.1973 88.601 97.226 86.8455 95.4972C85.0901 93.7683 84.1038 91.4235 84.1038 88.9785C84.1038 86.5336 85.0901 84.1887 86.8455 82.4599C88.601 80.731 90.982 79.7598 93.4646 79.7598ZM119.675 79.7598C120.592 79.7599 121.477 80.0915 122.162 80.6917C122.848 81.2918 123.285 82.1188 123.393 83.0158L123.419 83.4473V85.291H125.291C126.245 85.2921 127.163 85.6519 127.857 86.2971C128.551 86.9423 128.969 87.8242 129.025 88.7624C129.081 89.7007 128.771 90.6245 128.158 91.3453C127.546 92.066 126.677 92.5292 125.729 92.6402L125.291 92.666H123.419V94.5098C123.418 95.4496 123.052 96.3536 122.397 97.0371C121.742 97.7205 120.847 98.1318 119.894 98.1868C118.941 98.2419 118.003 97.9367 117.271 97.3334C116.54 96.7302 116.069 95.8745 115.957 94.9412L115.93 94.5098V92.666H114.058C113.104 92.665 112.186 92.3051 111.492 91.6599C110.798 91.0147 110.38 90.1329 110.324 89.1946C110.269 88.2564 110.578 87.3325 111.191 86.6118C111.804 85.891 112.672 85.4278 113.62 85.3168L114.058 85.291H115.93V83.4473C115.93 82.4693 116.325 81.5313 117.027 80.8398C117.729 80.1483 118.682 79.7598 119.675 79.7598ZM93.4646 87.1348C92.9681 87.1348 92.4919 87.329 92.1408 87.6748C91.7897 88.0206 91.5924 88.4895 91.5924 88.9785C91.5924 89.4675 91.7897 89.9365 92.1408 90.2822C92.4919 90.628 92.9681 90.8223 93.4646 90.8223C93.9611 90.8223 94.4373 90.628 94.7884 90.2822C95.1395 89.9365 95.3367 89.4675 95.3367 88.9785C95.3367 88.4895 95.1395 88.0206 94.7884 87.6748C94.4373 87.329 93.9611 87.1348 93.4646 87.1348Z" fill="#4661AC"/>
</svg>
