<svg width="228" height="228" viewBox="0 0 228 228" fill="none" xmlns="http://www.w3.org/2000/svg">
<g filter="url(#filter0_d_313_49)">
<rect x="4" width="219.238" height="219.238" fill="#D0E4FF"/>
</g>
<path d="M105.4 156.168H108.599V181.911H105.4V156.168ZM97.847 166.881H106.017V169.54H97.847V166.881ZM94.6099 158.827H98.0012C98.0012 161.833 97.3332 164.582 95.9972 167.074C94.6612 169.54 92.7857 171.686 90.3707 173.51C87.9556 175.334 85.1038 176.798 81.8153 177.903L80.4664 175.321C83.2925 174.37 85.7718 173.15 87.9043 171.66C90.0367 170.17 91.681 168.448 92.8371 166.496C94.0189 164.543 94.6099 162.424 94.6099 160.137V158.827ZM82.2006 158.827H96.6909V161.486H82.2006V158.827ZM86.5554 187.615H109.486V190.235H86.5554V187.615ZM86.5554 179.29H89.7926V188.925H86.5554V179.29ZM139.234 156.129H142.432V176.978H139.234V156.129ZM141.546 165.147H147.558V167.806H141.546V165.147ZM129.599 158.711H132.991C132.991 161.666 132.335 164.351 131.025 166.766C129.715 169.181 127.839 171.262 125.399 173.009C122.984 174.756 120.093 176.117 116.728 177.094L115.417 174.512C118.372 173.638 120.903 172.495 123.009 171.082C125.116 169.669 126.735 168.037 127.865 166.188C129.021 164.338 129.599 162.321 129.599 160.137V158.711ZM116.92 158.711H131.411V161.332H116.92V158.711ZM131.488 177.402C133.8 177.402 135.804 177.672 137.5 178.211C139.195 178.751 140.506 179.534 141.43 180.562C142.355 181.564 142.818 182.772 142.818 184.185C142.818 185.572 142.355 186.767 141.43 187.769C140.506 188.771 139.195 189.542 137.5 190.081C135.804 190.646 133.8 190.929 131.488 190.929C129.201 190.929 127.197 190.646 125.476 190.081C123.78 189.542 122.457 188.771 121.506 187.769C120.581 186.767 120.119 185.572 120.119 184.185C120.119 182.772 120.581 181.564 121.506 180.562C122.457 179.534 123.78 178.751 125.476 178.211C127.197 177.672 129.201 177.402 131.488 177.402ZM131.488 179.946C129.843 179.946 128.405 180.125 127.171 180.485C125.938 180.819 124.975 181.307 124.281 181.95C123.613 182.566 123.279 183.311 123.279 184.185C123.279 185.033 123.613 185.778 124.281 186.42C124.975 187.037 125.938 187.525 127.171 187.884C128.405 188.218 129.843 188.385 131.488 188.385C133.183 188.385 134.635 188.218 135.842 187.884C137.05 187.525 137.988 187.037 138.656 186.42C139.349 185.778 139.696 185.033 139.696 184.185C139.696 183.311 139.349 182.566 138.656 181.95C137.988 181.307 137.05 180.819 135.842 180.485C134.635 180.125 133.183 179.946 131.488 179.946Z" fill="#4661AC"/>
<path d="M131.129 64.5412C133.853 64.5412 136.465 63.4591 138.392 61.533C140.318 59.6069 141.4 56.9945 141.4 54.2706C141.4 51.5467 140.318 48.9343 138.392 47.0082C136.465 45.0821 133.853 44 131.129 44C128.405 44 125.793 45.0821 123.867 47.0082C121.941 48.9343 120.859 51.5467 120.859 54.2706C120.859 56.9945 121.941 59.6069 123.867 61.533C125.793 63.4591 128.405 64.5412 131.129 64.5412ZM110.497 74.3142C107.651 75.0217 105.708 76.0853 104.14 77.4045C101.789 79.3856 99.8905 82.2431 97.3252 86.7348C96.7244 87.7859 95.7307 88.5553 94.5626 88.8738C93.3945 89.1922 92.1478 89.0336 91.0966 88.4329C90.0455 87.8321 89.2761 86.8383 88.9576 85.6703C88.6392 84.5022 88.7978 83.2554 89.3986 82.2043C91.9525 77.7377 94.5339 73.5588 98.2609 70.4228C102.15 67.1453 106.911 65.2921 113.331 64.5777C116.015 64.281 118.969 64.3403 121.737 65.5751C124.643 66.8737 126.765 69.1995 128.212 72.308C130.161 76.4916 131.611 78.9816 132.77 80.4264C133.329 81.1179 133.72 81.4397 133.941 81.5835C134.117 81.6976 134.192 81.7068 134.219 81.7113C134.418 81.7342 135.064 81.7113 136.954 80.8737C137.778 80.5085 138.677 80.0703 139.777 79.534L140.039 79.4061C141.385 78.7422 142.742 78.1031 144.111 77.489C145.216 77.0038 146.469 76.9761 147.594 77.4118C148.72 77.8476 149.627 78.7114 150.117 79.8142C150.607 80.9171 150.641 82.1692 150.211 83.2968C149.78 84.4243 148.921 85.3355 147.82 85.831C146.552 86.4003 145.294 86.9931 144.047 87.6089L143.748 87.755C142.696 88.2685 141.637 88.7866 140.644 89.2248C138.59 90.1332 135.965 91.1192 133.119 90.7745C130.116 90.4094 127.801 88.7136 125.896 86.4381L119.658 98.4729L128.285 109.698C128.799 110.369 129.116 111.167 129.205 112.007L131.104 130.257C131.176 130.858 131.128 131.468 130.963 132.05C130.797 132.633 130.517 133.177 130.139 133.65C129.762 134.123 129.293 134.517 128.762 134.807C128.231 135.098 127.647 135.28 127.044 135.342C126.442 135.405 125.833 135.347 125.254 135.172C124.674 134.998 124.135 134.709 123.667 134.324C123.2 133.938 122.814 133.464 122.532 132.928C122.25 132.392 122.078 131.805 122.025 131.202L120.258 114.237L115.018 107.417L114.972 107.502L114.781 107.109L105.099 94.5108C104.623 93.8915 104.314 93.1605 104.201 92.3877C104.088 91.6149 104.176 90.8261 104.455 90.0967L110.497 74.3142Z" fill="#4661AC"/>
<path d="M103.584 101.074L100.224 110.112L86.9868 109.062C86.3849 109.007 85.778 109.071 85.2011 109.251C84.6243 109.432 84.089 109.725 83.6265 110.114C83.1639 110.503 82.7832 110.98 82.5065 111.518C82.2298 112.055 82.0625 112.642 82.0145 113.245C81.9664 113.847 82.0385 114.453 82.2265 115.028C82.4146 115.602 82.7148 116.134 83.1099 116.591C83.5049 117.049 83.9869 117.423 84.5279 117.693C85.0688 117.962 85.6579 118.122 86.261 118.162L102.94 119.486C103.93 119.565 104.919 119.319 105.756 118.785C106.594 118.251 107.234 117.459 107.58 116.528L110.148 109.617L103.584 101.074Z" fill="#4661AC"/>
<defs>
<filter id="filter0_d_313_49" x="0" y="0" width="227.238" height="227.238" filterUnits="userSpaceOnUse" color-interpolation-filters="sRGB">
<feFlood flood-opacity="0" result="BackgroundImageFix"/>
<feColorMatrix in="SourceAlpha" type="matrix" values="0 0 0 0 0 0 0 0 0 0 0 0 0 0 0 0 0 0 127 0" result="hardAlpha"/>
<feOffset dy="4"/>
<feGaussianBlur stdDeviation="2"/>
<feComposite in2="hardAlpha" operator="out"/>
<feColorMatrix type="matrix" values="0 0 0 0 0 0 0 0 0 0 0 0 0 0 0 0 0 0 0.25 0"/>
<feBlend mode="normal" in2="BackgroundImageFix" result="effect1_dropShadow_313_49"/>
<feBlend mode="normal" in="SourceGraphic" in2="effect1_dropShadow_313_49" result="shape"/>
</filter>
</defs>
</svg>
