<svg width="220" height="220" viewBox="0 0 220 220" fill="none" xmlns="http://www.w3.org/2000/svg">
<rect width="219.238" height="219.238" fill="#F5F5F7"/>
<path d="M101.4 156.168H104.599V181.911H101.4V156.168ZM93.847 166.881H102.017V169.54H93.847V166.881ZM90.6099 158.827H94.0012C94.0012 161.833 93.3332 164.582 91.9972 167.074C90.6612 169.54 88.7857 171.686 86.3707 173.51C83.9556 175.334 81.1038 176.798 77.8153 177.903L76.4664 175.321C79.2925 174.37 81.7718 173.15 83.9043 171.66C86.0367 170.17 87.681 168.448 88.8371 166.496C90.0189 164.543 90.6099 162.424 90.6099 160.137V158.827ZM78.2006 158.827H92.6909V161.486H78.2006V158.827ZM82.5554 187.615H105.486V190.235H82.5554V187.615ZM82.5554 179.29H85.7926V188.925H82.5554V179.29ZM135.234 156.129H138.432V176.978H135.234V156.129ZM137.546 165.147H143.558V167.806H137.546V165.147ZM125.599 158.711H128.991C128.991 161.666 128.335 164.351 127.025 166.766C125.715 169.181 123.839 171.262 121.399 173.009C118.984 174.756 116.093 176.117 112.728 177.094L111.417 174.512C114.372 173.638 116.903 172.495 119.009 171.082C121.116 169.669 122.735 168.037 123.865 166.188C125.021 164.338 125.599 162.321 125.599 160.137V158.711ZM112.92 158.711H127.411V161.332H112.92V158.711ZM127.488 177.402C129.8 177.402 131.804 177.672 133.5 178.211C135.195 178.751 136.506 179.534 137.43 180.562C138.355 181.564 138.818 182.772 138.818 184.185C138.818 185.572 138.355 186.767 137.43 187.769C136.506 188.771 135.195 189.542 133.5 190.081C131.804 190.646 129.8 190.929 127.488 190.929C125.201 190.929 123.197 190.646 121.476 190.081C119.78 189.542 118.457 188.771 117.506 187.769C116.581 186.767 116.119 185.572 116.119 184.185C116.119 182.772 116.581 181.564 117.506 180.562C118.457 179.534 119.78 178.751 121.476 178.211C123.197 177.672 125.201 177.402 127.488 177.402ZM127.488 179.946C125.843 179.946 124.405 180.125 123.171 180.485C121.938 180.819 120.975 181.307 120.281 181.95C119.613 182.566 119.279 183.311 119.279 184.185C119.279 185.033 119.613 185.778 120.281 186.42C120.975 187.037 121.938 187.525 123.171 187.884C124.405 188.218 125.843 188.385 127.488 188.385C129.183 188.385 130.635 188.218 131.842 187.884C133.05 187.525 133.988 187.037 134.656 186.42C135.349 185.778 135.696 185.033 135.696 184.185C135.696 183.311 135.349 182.566 134.656 181.95C133.988 181.307 133.05 180.819 131.842 180.485C130.635 180.125 129.183 179.946 127.488 179.946Z" fill="#4661AC"/>
<path d="M127.131 64.5412C129.855 64.5412 132.467 63.4591 134.393 61.533C136.32 59.6069 137.402 56.9945 137.402 54.2706C137.402 51.5467 136.32 48.9343 134.393 47.0082C132.467 45.0821 129.855 44 127.131 44C124.407 44 121.795 45.0821 119.869 47.0082C117.943 48.9343 116.86 51.5467 116.86 54.2706C116.86 56.9945 117.943 59.6069 119.869 61.533C121.795 63.4591 124.407 64.5412 127.131 64.5412ZM106.499 74.3142C103.652 75.0217 101.71 76.0853 100.142 77.4045C97.7914 79.3856 95.8925 82.2431 93.3271 86.7348C92.7264 87.7859 91.7326 88.5553 90.5645 88.8738C89.3965 89.1922 88.1497 89.0336 87.0986 88.4329C86.0475 87.8321 85.278 86.8383 84.9596 85.6703C84.6411 84.5022 84.7997 83.2554 85.4005 82.2043C87.9545 77.7377 90.5358 73.5588 94.2629 70.4228C98.152 67.1453 102.913 65.2921 109.333 64.5777C112.017 64.281 114.971 64.3403 117.739 65.5751C120.645 66.8737 122.767 69.1995 124.214 72.308C126.163 76.4916 127.613 78.9816 128.772 80.4264C129.331 81.1179 129.722 81.4397 129.943 81.5835C130.119 81.6976 130.194 81.7068 130.221 81.7113C130.42 81.7341 131.066 81.7113 132.956 80.8737C133.78 80.5085 134.679 80.0703 135.779 79.534L136.041 79.4062C137.387 78.7422 138.744 78.1031 140.113 77.489C141.218 77.0038 142.471 76.9761 143.596 77.4118C144.722 77.8476 145.629 78.7114 146.119 79.8142C146.609 80.9171 146.643 82.1692 146.212 83.2968C145.782 84.4243 144.922 85.3355 143.822 85.831C142.553 86.4003 141.296 86.9931 140.049 87.6089L139.75 87.755C138.698 88.2685 137.639 88.7866 136.646 89.2248C134.592 90.1332 131.967 91.1192 129.121 90.7745C126.118 90.4094 123.803 88.7136 121.898 86.4381L115.66 98.4729L124.287 109.698C124.801 110.369 125.118 111.167 125.207 112.007L127.106 130.257C127.178 130.858 127.13 131.468 126.965 132.05C126.799 132.633 126.519 133.177 126.141 133.65C125.764 134.123 125.295 134.517 124.764 134.807C124.233 135.098 123.649 135.28 123.046 135.342C122.444 135.405 121.835 135.347 121.255 135.172C120.676 134.998 120.136 134.709 119.669 134.324C119.202 133.938 118.816 133.464 118.534 132.928C118.252 132.392 118.08 131.805 118.027 131.202L116.26 114.237L111.02 107.417L110.974 107.502L110.783 107.109L101.101 94.5108C100.625 93.8915 100.316 93.1605 100.203 92.3877C100.09 91.6149 100.178 90.826 100.457 90.0967L106.499 74.3142Z" fill="#4661AC"/>
<path d="M99.5841 101.074L96.2244 110.112L82.9868 109.062C82.3849 109.007 81.778 109.071 81.2011 109.251C80.6243 109.432 80.089 109.725 79.6265 110.114C79.1639 110.503 78.7832 110.98 78.5065 111.518C78.2298 112.055 78.0625 112.642 78.0145 113.245C77.9664 113.847 78.0385 114.453 78.2265 115.028C78.4146 115.602 78.7148 116.134 79.1099 116.591C79.5049 117.049 79.9869 117.423 80.5279 117.693C81.0688 117.962 81.6579 118.122 82.261 118.162L98.9404 119.486C99.9303 119.565 100.919 119.319 101.756 118.785C102.594 118.251 103.234 117.459 103.58 116.528L106.148 109.617L99.5841 101.074Z" fill="#4661AC"/>
</svg>
