<svg width="220" height="220" viewBox="0 0 220 220" fill="none" xmlns="http://www.w3.org/2000/svg">
<path d="M0 0H219.238V219.238H0V0Z" fill="#F5F5F7"/>
<path d="M91.6504 156.9C94.1682 156.9 96.3392 157.17 98.1633 157.709C100.013 158.223 101.426 158.968 102.402 159.944C103.404 160.921 103.905 162.115 103.905 163.528C103.905 164.89 103.404 166.072 102.402 167.074C101.426 168.05 100.013 168.795 98.1633 169.309C96.3392 169.823 94.1682 170.08 91.6504 170.08C89.1583 170.08 86.9873 169.823 85.1375 169.309C83.3133 168.795 81.9003 168.05 80.8983 167.074C79.8963 166.072 79.3953 164.89 79.3953 163.528C79.3953 162.115 79.8963 160.921 80.8983 159.944C81.9003 158.968 83.3133 158.223 85.1375 157.709C86.9873 157.17 89.1583 156.9 91.6504 156.9ZM91.6504 159.443C89.8263 159.443 88.2333 159.61 86.8717 159.944C85.5357 160.253 84.4952 160.715 83.7501 161.332C83.0307 161.923 82.671 162.655 82.671 163.528C82.671 164.351 83.0307 165.07 83.7501 165.687C84.4952 166.277 85.5357 166.74 86.8717 167.074C88.2333 167.382 89.8263 167.536 91.6504 167.536C93.5002 167.536 95.0931 167.382 96.4291 167.074C97.7908 166.74 98.8313 166.277 99.5507 165.687C100.27 165.07 100.63 164.351 100.63 163.528C100.63 162.655 100.27 161.923 99.5507 161.332C98.8313 160.715 97.7908 160.253 96.4291 159.944C95.0931 159.61 93.5002 159.443 91.6504 159.443ZM79.7807 179.059H103.559V190.544H79.7807V179.059ZM100.437 181.641H82.9023V187.923H100.437V181.641ZM75.9269 173.047H107.412V175.668H75.9269V173.047ZM121.09 158.21C122.863 158.21 124.43 158.57 125.792 159.289C127.154 159.983 128.22 160.946 128.991 162.18C129.787 163.413 130.185 164.839 130.185 166.457C130.185 168.102 129.787 169.54 128.991 170.774C128.22 172.007 127.154 172.97 125.792 173.664C124.43 174.358 122.863 174.704 121.09 174.704C119.369 174.704 117.815 174.358 116.427 173.664C115.066 172.97 113.987 172.007 113.19 170.774C112.394 169.54 111.995 168.102 111.995 166.457C111.995 164.839 112.394 163.413 113.19 162.18C113.987 160.946 115.066 159.983 116.427 159.289C117.815 158.57 119.369 158.21 121.09 158.21ZM121.09 160.946C119.96 160.946 118.945 161.178 118.046 161.64C117.147 162.102 116.427 162.758 115.888 163.605C115.374 164.428 115.117 165.378 115.117 166.457C115.117 167.562 115.374 168.538 115.888 169.386C116.427 170.208 117.147 170.851 118.046 171.313C118.945 171.776 119.96 172.007 121.09 172.007C122.246 172.007 123.274 171.776 124.173 171.313C125.073 170.851 125.779 170.208 126.293 169.386C126.833 168.538 127.102 167.562 127.102 166.457C127.102 165.378 126.833 164.428 126.293 163.605C125.779 162.758 125.073 162.102 124.173 161.64C123.274 161.178 122.246 160.946 121.09 160.946ZM135.234 156.129H138.432V176.631H135.234V156.129ZM137.546 165.108H143.558V167.768H137.546V165.108ZM115.772 178.443H138.432V191.044H135.234V181.063H115.772V178.443Z" fill="#4661AC"/>
<path d="M87.9518 120C93.2906 120 97.6185 115.672 97.6185 110.334C97.6185 104.995 93.2906 100.667 87.9518 100.667C82.6131 100.667 78.2852 104.995 78.2852 110.334C78.2852 115.672 82.6131 120 87.9518 120Z" fill="#4661AC" stroke="#4661AC" stroke-width="6.44444" stroke-linecap="round" stroke-linejoin="round"/>
<path d="M126.62 116.778C131.959 116.778 136.286 112.45 136.286 107.111C136.286 101.772 131.959 97.4443 126.62 97.4443C121.281 97.4443 116.953 101.772 116.953 107.111C116.953 112.45 121.281 116.778 126.62 116.778Z" fill="#4661AC" stroke="#4661AC" stroke-width="6.44444" stroke-linecap="round" stroke-linejoin="round"/>
<path d="M136.284 62L97.6172 71.6667V84.5556L136.284 74.8889V62Z" fill="#4661AC"/>
<path d="M98.2852 110.333V84.5556M98.2852 84.5556V71.6667L136.952 62V74.8889M98.2852 84.5556L136.952 74.8889M136.952 107.111V74.8889" stroke="#4661AC" stroke-width="6.44444" stroke-linecap="round" stroke-linejoin="round"/>
</svg>
