<svg width="17" height="17" viewBox="0 0 17 17" fill="none" xmlns="http://www.w3.org/2000/svg">
<path d="M8.24971 2.23954e-07C9.3282 -0.000312312 10.3784 0.326499 11.2462 0.932467C12.1139 1.53843 12.7535 2.39164 13.0711 3.36687C13.3887 4.34209 13.3676 5.38796 13.0108 6.35097C12.654 7.31399 11.9804 8.14343 11.0888 8.71755C12.6364 9.25464 13.9786 10.2177 14.9429 11.4828C15.9071 12.7478 16.4491 14.257 16.4991 15.816C16.5038 15.9026 16.4901 15.9891 16.459 16.0706C16.4278 16.1521 16.3798 16.2268 16.3177 16.2905C16.2556 16.3542 16.1807 16.4055 16.0974 16.4414C16.014 16.4774 15.924 16.4972 15.8324 16.4997C15.7409 16.5023 15.6497 16.4875 15.5643 16.4562C15.4789 16.425 15.4009 16.3779 15.335 16.3178C15.2691 16.2577 15.2165 16.1857 15.1803 16.1061C15.1442 16.0265 15.1252 15.9408 15.1245 15.8542C15.0699 14.1635 14.3217 12.5593 13.0385 11.3817C11.7552 10.204 10.0378 9.5454 8.25016 9.5454C6.4625 9.5454 4.74508 10.204 3.46185 11.3817C2.17862 12.5593 1.43043 14.1635 1.37582 15.8542C1.37035 16.0268 1.29264 16.1903 1.15979 16.3086C1.02694 16.427 0.849837 16.4906 0.667432 16.4854C0.485028 16.4803 0.312269 16.4067 0.187159 16.281C0.0620495 16.1553 -0.00516234 15.9877 0.000309776 15.8151C0.0505142 14.2563 0.5926 12.7473 1.5568 11.4824C2.521 10.2175 3.8632 9.25459 5.41065 8.71755C4.51903 8.14343 3.84539 7.31399 3.48861 6.35097C3.13182 5.38796 3.11067 4.34209 3.42828 3.36687C3.74588 2.39164 4.3855 1.53843 5.25326 0.932467C6.12102 0.326499 7.17121 -0.000312312 8.24971 2.23954e-07ZM4.58168 4.77222C4.58168 5.69271 4.96813 6.5755 5.65602 7.22638C6.34391 7.87727 7.27688 8.24293 8.24971 8.24293C9.22253 8.24293 10.1555 7.87727 10.8434 7.22638C11.5313 6.5755 11.9177 5.69271 11.9177 4.77222C11.9177 3.85173 11.5313 2.96895 10.8434 2.31806C10.1555 1.66718 9.22253 1.30152 8.24971 1.30152C7.27688 1.30152 6.34391 1.66718 5.65602 2.31806C4.96813 2.96895 4.58168 3.85173 4.58168 4.77222Z" fill="black"/>
</svg>
