<svg width="1303" height="117" viewBox="0 0 1303 117" fill="none" xmlns="http://www.w3.org/2000/svg">
<path opacity="0.9" d="M105.125 80.5H82.5V116.25H61.875V80.5H42.125V116.25H21.375V80.5H-0.375V64.125H105.125V80.5ZM52 4.25C60.375 4.25 67.8125 5.33333 74.3125 7.5C80.8542 9.66667 85.9375 12.75 89.5625 16.75C93.1875 20.7083 95 25.3333 95 30.625C95 35.8333 93.1667 40.4167 89.5 44.375C85.875 48.3333 80.8125 51.3958 74.3125 53.5625C67.8125 55.6875 60.375 56.75 52 56.75C43.6667 56.75 36.25 55.6875 29.75 53.5625C23.25 51.3958 18.1875 48.3333 14.5625 44.375C10.9375 40.4167 9.125 35.8333 9.125 30.625C9.125 25.3333 10.9167 20.7083 14.5 16.75C18.125 12.75 23.1875 9.66667 29.6875 7.5C36.1875 5.33333 43.625 4.25 52 4.25ZM52 20.25C44.9583 20.2917 39.5417 21.1667 35.75 22.875C31.9583 24.5833 30.0833 27.1667 30.125 30.625C30.125 34 31.9792 36.5208 35.6875 38.1875C39.3958 39.8125 44.7083 40.625 51.625 40.625C58.8333 40.625 64.3542 39.8125 68.1875 38.1875C72.0625 36.5625 74 34.0417 74 30.625C74 27.1667 72.1042 24.5833 68.3125 22.875C64.5208 21.1667 59.0833 20.2917 52 20.25ZM215.625 84.625H193.5V116.375H173V84.625H153.125V116.375H132.625V84.625H110.125V68.25H215.625V84.625ZM205.125 62.75H122.625V5H204V20.875H142.875V26.25H201.625V41.5H142.875V46.875H205.125V62.75ZM326.375 103.625H220.875V87H326.375V103.625ZM251.375 24.75H295.375V7.625H315.625V70.375H231.25V7.625H251.375V24.75ZM295.375 54.375V40.5H251.375V54.375H295.375ZM415.875 35.375H399.375C399.375 44.7917 400.854 53.0833 403.812 60.25C406.771 67.4167 412 73.0833 419.5 77.25V2.125H438.5V43.625H444.375V0.75H463.75V116.25H444.375V60H438.5V111.625H419.5V78.9375L409.5 92.875C400.708 88.5 394.188 81.2292 389.938 71.0625C385.729 82.4792 379.167 90.6667 370.25 95.625L359 80.375C373.083 72.125 380.083 57.125 380 35.375H363.5V19.125H380V4.5H399.375V19.125H415.875V35.375ZM498.75 40.4375C513.125 40.0208 526.75 38.75 539.625 36.625L541.875 52.875C525.417 55.7083 507.708 57.125 488.75 57.125H478.5V5H498.75V40.4375ZM571 58.125H550.5V31H525.125V15H550.5V0.75H571V58.125ZM571 96H513.25V99.375H573V115.375H492.875V81.125H550.5V77.75H492.75V61.875H571V96ZM681.625 59.5H661.125V50.375H644.125V57.125H587.375V5.25H607.625V16.75H624.125V5.25H644.125V14H661.125V0.875H681.625V59.5ZM681.625 96.375H623.625V99.625H684.375V115.375H603.5V81.75H661.375V78.625H603.375V63.125H681.625V96.375ZM624.125 41.5V31.875H607.625V41.5H624.125ZM661.125 35.25V29.25H644.125V35.25H661.125ZM829.625 103.875H724.125V87.375H745.75V60.9375C741.5 58.1042 738.208 54.6875 735.875 50.6875C733.583 46.6458 732.458 42.2083 732.5 37.375C732.5 31.0417 734.396 25.4583 738.188 20.625C742.021 15.7917 747.292 12.0625 754 9.4375C760.75 6.8125 768.333 5.5 776.75 5.5C785.208 5.5 792.792 6.8125 799.5 9.4375C806.25 12.0625 811.542 15.7917 815.375 20.625C819.208 25.4583 821.125 31.0417 821.125 37.375C821.125 42.2083 819.958 46.625 817.625 50.625C815.333 54.625 812.083 58.0417 807.875 60.875V87.375H829.625V103.875ZM776.75 21.25C769.25 21.25 763.354 22.625 759.062 25.375C754.812 28.125 752.667 32.125 752.625 37.375C752.667 42.5417 754.833 46.5208 759.125 49.3125C763.417 52.0625 769.292 53.4167 776.75 53.375C784.25 53.4167 790.146 52.0625 794.438 49.3125C798.771 46.5208 800.917 42.5417 800.875 37.375C800.917 32.125 798.792 28.125 794.5 25.375C790.208 22.625 784.292 21.25 776.75 21.25ZM787.5 87.375V68.3125C784.208 68.8542 780.625 69.125 776.75 69.125C773.042 69.125 769.5 68.875 766.125 68.375V87.375H787.5ZM941 30.75H927.125V39.5H941V56H927.125V68.75H906.75V0.875H927.125V14.25H941V30.75ZM927.125 116.375H906.75V89H848.125V73H927.125V116.375ZM867 6.75C873 6.75 878.479 8 883.438 10.5C888.438 12.9583 892.354 16.3958 895.188 20.8125C898.062 25.2292 899.5 30.1667 899.5 35.625C899.5 41.0833 898.062 46 895.188 50.375C892.354 54.75 888.458 58.2083 883.5 60.75C878.542 63.25 873.042 64.5 867 64.5C861 64.5 855.521 63.25 850.562 60.75C845.646 58.2083 841.75 54.75 838.875 50.375C836.042 46 834.625 41.0833 834.625 35.625C834.625 30.1667 836.042 25.2292 838.875 20.8125C841.75 16.3958 845.646 12.9583 850.562 10.5C855.521 8 861 6.75 867 6.75ZM866.875 24C863.208 24 860.229 25 857.938 27C855.646 29 854.5 31.9167 854.5 35.75C854.5 39.5417 855.667 42.4375 858 44.4375C860.333 46.3958 863.333 47.375 867 47.375C870.75 47.375 873.771 46.375 876.062 44.375C878.396 42.375 879.583 39.4583 879.625 35.625C879.583 31.7917 878.396 28.8958 876.062 26.9375C873.729 24.9792 870.667 24 866.875 24ZM978.5 14H1017.38V4.75H1037.62V52.5H1007.88V60.625H1050.75V76.625H945.25V60.625H987.5V52.5H958.375V4.75H978.5V14ZM1017.38 36.5V29.5H978.5V36.5H1017.38ZM1038.88 114.75H957.5V81.875H977.875V98.5H1038.88V114.75ZM1191.75 74.75H1151V90.375H1130.62V74.75H1086.25V58.75H1191.75V74.75ZM1180.12 114.75H1097.75V82.75H1118V98.5H1180.12V114.75ZM1119.5 14.5H1158.38V4.375H1178.62V52.75H1099.38V4.375H1119.5V14.5ZM1158.38 37.125V29.625H1119.5V37.125H1158.38ZM1302.5 104.375H1197V88H1239.38V71H1205.12V55H1218.88V25.375H1204.38V9.25H1294.62V25.375H1280.12V55H1294.12V71H1259.62V88H1302.5V104.375ZM1259.75 55V25.375H1239.25V55H1259.75Z" fill="#607ABB"/>
</svg>
