<svg width="945" height="117" viewBox="0 0 344 44" fill="none" xmlns="http://www.w3.org/2000/svg">
<path d="M10.232 11.44H13.304V13.696C13.304 22.288 9.704 30.976 3.368 34.768L0.968 31.744C6.872 28.288 10.232 20.752 10.232 13.696V11.44ZM10.952 11.44H14.024V13.696C14.024 20.56 17.528 27.664 23.336 30.832L21.08 33.808C14.696 30.256 10.952 22.048 10.952 13.696V11.44ZM2.072 8.416H22.184V11.68H2.072V8.416ZM10.232 1.888H14.072V10.864H10.232V1.888ZM34.568 0.351998H38.36V43.744H34.568V0.351998ZM27.704 17.824H36.056V21.184H27.704V17.824ZM25.112 1.264H28.856V41.584H25.112V1.264ZM44.6922 2.416H48.6762V19.792H44.6922V2.416ZM44.6922 17.632H48.0522C54.9643 17.632 60.7722 17.248 67.2523 15.952L67.7802 19.264C61.0603 20.608 55.1082 20.944 48.0522 20.944H44.6922V17.632ZM61.5883 7.552H74.8363V10.816H61.5883V7.552ZM73.8763 0.351998H77.8603V22.768H73.8763V0.351998ZM49.9242 24.784H77.8603V35.248H54.0042V41.68H50.0683V32.224H73.9243V28.048H49.9242V24.784ZM50.0683 39.952H79.3963V43.168H50.0683V39.952ZM103.44 6.496H115.68V9.616H103.44V6.496ZM103.44 14.416H115.68V17.536H103.44V14.416ZM114.673 0.351998H118.657V22.96H114.673V0.351998ZM90.7205 25.12H118.657V35.392H94.7045V42.064H90.8165V32.416H114.72V28.288H90.7205V25.12ZM90.8165 40H120.241V43.168H90.8165V40ZM85.1045 2.32H89.0405V8.56H100.801V2.32H104.689V21.28H85.1045V2.32ZM89.0405 11.68V18.064H100.801V11.68H89.0405ZM142.216 22.672H146.152V35.68H142.216V22.672ZM158.248 22.672H162.232V35.68H158.248V22.672ZM132.616 34.912H171.928V38.224H132.616V34.912ZM152.2 3.088C161.368 3.088 167.944 7.456 167.944 14.272C167.944 21.04 161.368 25.408 152.2 25.408C142.984 25.408 136.408 21.04 136.408 14.272C136.408 7.456 142.984 3.088 152.2 3.088ZM152.2 6.256C145.24 6.256 140.248 9.424 140.248 14.272C140.248 19.072 145.24 22.24 152.2 22.24C159.16 22.24 164.104 19.072 164.104 14.272C164.104 9.424 159.16 6.256 152.2 6.256ZM205.86 6.928H213.396V10.288H205.86V6.928ZM205.86 16.24H213.396V19.552H205.86V16.24ZM203.076 0.351998H207.06V26.128H203.076V0.351998ZM178.884 28.192H207.06V43.744H203.076V31.408H178.884V28.192ZM185.508 2.896C192.036 2.896 196.836 7.12 196.836 13.216C196.836 19.264 192.036 23.44 185.508 23.44C178.98 23.44 174.18 19.264 174.18 13.216C174.18 7.12 178.98 2.896 185.508 2.896ZM185.508 6.304C181.188 6.304 178.068 9.088 178.068 13.216C178.068 17.296 181.188 20.128 185.508 20.128C189.828 20.128 192.948 17.296 192.948 13.216C192.948 9.088 189.828 6.304 185.508 6.304ZM219.393 2.08H223.329V7.504H244.305V2.08H248.289V19.408H219.393V2.08ZM223.329 10.672V16.192H244.305V10.672H223.329ZM214.161 24.016H253.377V27.28H214.161V24.016ZM231.825 17.536H235.761V25.456H231.825V17.536ZM219.249 39.52H249.057V42.784H219.249V39.52ZM219.249 30.784H223.233V40.624H219.249V30.784ZM263.784 23.248H303.096V26.512H263.784V23.248ZM281.736 24.88H285.72V34.864H281.736V24.88ZM268.776 39.52H298.728V42.784H268.776V39.52ZM268.776 31.024H272.712V40.768H268.776V31.024ZM269.016 1.696H272.952V7.216H293.928V1.696H297.912V19.072H269.016V1.696ZM272.952 10.336V15.856H293.928V10.336H272.952ZM304.629 35.056H343.941V38.368H304.629V35.056ZM322.149 23.824H326.133V36.544H322.149V23.824ZM308.037 4.48H340.245V7.744H308.037V4.48ZM308.133 21.952H340.197V25.168H308.133V21.952ZM314.805 7.12H318.789V22.528H314.805V7.12ZM329.589 7.12H333.525V22.528H329.589V7.12Z" fill="black"/>
</svg>
