<svg width="708" height="87" viewBox="0 0 708 87" fill="none" xmlns="http://www.w3.org/2000/svg">
<path opacity="0.9" d="M29.625 26.7188C29.625 33.8125 30.875 40.1719 33.375 45.7969C35.9062 51.4219 40.0625 55.7812 45.8438 58.875L38.5312 69C31.6562 65.5625 26.5781 59.6719 23.2969 51.3281C20.0781 60.5469 14.9688 67.125 7.96875 71.0625L0.375 60.75C6.15625 57.4062 10.3125 52.7188 12.8438 46.6875C15.375 40.625 16.625 33.9688 16.5938 26.7188V26.0625H3.46875V15.0938H16.5938V3.75H29.625V15.0938H42.75V26.0625H29.625V26.7188ZM77.7188 86.9062H64.6875V44.4375H58.875V83.25H46.0312V2.0625H58.875V33.375H64.6875V0.9375H77.7188V86.9062ZM103.406 31.4062C114.594 31.1562 125.188 30.1875 135.188 28.5L136.781 39.375C124.781 41.5625 111.594 42.6562 97.2188 42.6562H89.8125V4.21875H103.406V31.4062ZM158.156 43.9688H144.375V23.0625H124.312V12.1875H144.375V0.9375H158.156V43.9688ZM158.156 71.4375H114.188V75.375H159.938V86.1562H100.5V61.4062H144.375V57.75H100.406V46.9688H158.156V71.4375ZM241.125 44.9062H227.344V37.2188H213.188V42.75H171.562V4.40625H185.156V13.6875H199.688V4.40625H213.188V11.25H227.344V1.03125H241.125V44.9062ZM241.125 71.7188H196.969V75.4688H243.375V86.1562H183.469V61.875H227.438V58.3125H183.281V47.8125H241.125V71.7188ZM199.688 32.25V23.9062H185.156V32.25H199.688ZM227.344 27V21.5625H213.188V27H227.344ZM352.781 77.3438H274.219V66.1875H290.906V45.7969C287.656 43.7031 285.141 41.1719 283.359 38.2031C281.578 35.2031 280.688 31.875 280.688 28.2188C280.688 23.5625 282.094 19.4688 284.906 15.9375C287.719 12.375 291.609 9.625 296.578 7.6875C301.547 5.75 307.156 4.78125 313.406 4.78125C319.656 4.78125 325.25 5.75 330.188 7.6875C335.156 9.625 339.047 12.375 341.859 15.9375C344.703 19.4688 346.125 23.5625 346.125 28.2188C346.094 31.875 345.188 35.2031 343.406 38.2031C341.656 41.1719 339.156 43.6875 335.906 45.75V66.1875H352.781V77.3438ZM313.406 15.4688C309.531 15.4375 306.156 15.9219 303.281 16.9219C300.406 17.9219 298.188 19.375 296.625 21.2812C295.062 23.1875 294.281 25.5 294.281 28.2188C294.281 30.875 295.062 33.1719 296.625 35.1094C298.188 37.0156 300.406 38.4688 303.281 39.4688C306.156 40.4688 309.531 40.9688 313.406 40.9688C317.281 40.9688 320.656 40.4688 323.531 39.4688C326.406 38.4688 328.625 37.0156 330.188 35.1094C331.75 33.1719 332.531 30.875 332.531 28.2188C332.531 25.5 331.75 23.1875 330.188 21.2812C328.625 19.375 326.406 17.9219 323.531 16.9219C320.656 15.9219 317.281 15.4375 313.406 15.4688ZM322.219 66.1875V50.8125C319.281 51.3125 316.344 51.5625 313.406 51.5625C310.469 51.5625 307.531 51.3125 304.594 50.8125V66.1875H322.219ZM436.406 22.6875H425.625V30.2812H436.406V41.4375H425.625V51.5625H411.938V1.03125H425.625V11.5312H436.406V22.6875ZM425.625 87H411.938V65.7188H367.312V54.9375H425.625V87ZM381.281 5.4375C385.719 5.4375 389.75 6.375 393.375 8.25C397 10.0937 399.859 12.6406 401.953 15.8906C404.047 19.1094 405.094 22.75 405.094 26.8125C405.094 30.8438 404.047 34.4688 401.953 37.6875C399.891 40.9062 397.031 43.4375 393.375 45.2812C389.75 47.0938 385.719 48 381.281 48C376.812 48 372.75 47.0938 369.094 45.2812C365.469 43.4375 362.625 40.9062 360.562 37.6875C358.5 34.4688 357.469 30.8438 357.469 26.8125C357.469 22.75 358.5 19.0938 360.562 15.8438C362.656 12.5938 365.516 10.0469 369.141 8.20312C372.766 6.35938 376.812 5.4375 381.281 5.4375ZM381.281 17.0625C378.188 17.0938 375.656 17.9531 373.688 19.6406C371.75 21.3281 370.781 23.7188 370.781 26.8125C370.781 29.875 371.75 32.25 373.688 33.9375C375.625 35.625 378.125 36.4688 381.188 36.4688C384.312 36.4688 386.844 35.6406 388.781 33.9844C390.75 32.2969 391.719 29.9062 391.688 26.8125C391.719 23.7188 390.766 21.3281 388.828 19.6406C386.891 17.9531 384.375 17.0938 381.281 17.0625ZM463.5 11.625H495.094V4.03125H508.688V39.2812H486V45.9375H518.531V56.7188H440.062V45.9375H472.312V39.2812H450V4.03125H463.5V11.625ZM495.094 28.5V22.125H463.5V28.5H495.094ZM509.719 85.5938H449.344V61.2188H463.031V74.625H509.719V85.5938ZM624.656 55.3125H593.438V67.9688H579.656V55.3125H546.094V44.5312H624.656V55.3125ZM615.938 85.5938H554.906V61.875H568.594V74.625H615.938V85.5938ZM569.531 11.8125H601.125V3.65625H614.719V39.2812H556.031V3.65625H569.531V11.8125ZM601.125 28.6875V22.0312H569.531V28.6875H601.125ZM707.719 77.625H629.156V66.5625H661.406V52.5H635.438V41.8125H646.219V18.5625H634.969V7.59375H701.531V18.5625H690.188V41.8125H701.156V52.5H675.094V66.5625H707.719V77.625ZM676.5 41.8125V18.5625H660V41.8125H676.5Z" fill="#607ABB"/>
</svg>
