<svg width="945" height="117" viewBox="0 0 945 117" fill="none" xmlns="http://www.w3.org/2000/svg">
<path opacity="0.9" d="M57.625 35.375H41.125C41.125 44.7917 42.6042 53.0833 45.5625 60.25C48.5208 67.4167 53.75 73.0833 61.25 77.25V2.125H80.25V43.625H86.125V0.75H105.5V116.25H86.125V60H80.25V111.625H61.25V78.9375L51.25 92.875C42.4583 88.5 35.9375 81.2292 31.6875 71.0625C27.4792 82.4792 20.9167 90.6667 12 95.625L0.75 80.375C14.8333 72.125 21.8333 57.125 21.75 35.375H5.25V19.125H21.75V4.5H41.125V19.125H57.625V35.375ZM140.5 40.4375C154.875 40.0208 168.5 38.75 181.375 36.625L183.625 52.875C167.167 55.7083 149.458 57.125 130.5 57.125H120.25V5H140.5V40.4375ZM212.75 58.125H192.25V31H166.875V15H192.25V0.75H212.75V58.125ZM212.75 96H155V99.375H214.75V115.375H134.625V81.125H192.25V77.75H134.5V61.875H212.75V96ZM323.375 59.5H302.875V50.375H285.875V57.125H229.125V5.25H249.375V16.75H265.875V5.25H285.875V14H302.875V0.875H323.375V59.5ZM323.375 96.375H265.375V99.625H326.125V115.375H245.25V81.75H303.125V78.625H245.125V63.125H323.375V96.375ZM265.875 41.5V31.875H249.375V41.5H265.875ZM302.875 35.25V29.25H285.875V35.25H302.875ZM471.375 103.875H365.875V87.375H387.5V60.9375C383.25 58.1042 379.958 54.6875 377.625 50.6875C375.333 46.6458 374.208 42.2083 374.25 37.375C374.25 31.0417 376.146 25.4583 379.938 20.625C383.771 15.7917 389.042 12.0625 395.75 9.4375C402.5 6.8125 410.083 5.5 418.5 5.5C426.958 5.5 434.542 6.8125 441.25 9.4375C448 12.0625 453.292 15.7917 457.125 20.625C460.958 25.4583 462.875 31.0417 462.875 37.375C462.875 42.2083 461.708 46.625 459.375 50.625C457.083 54.625 453.833 58.0417 449.625 60.875V87.375H471.375V103.875ZM418.5 21.25C411 21.25 405.104 22.625 400.812 25.375C396.562 28.125 394.417 32.125 394.375 37.375C394.417 42.5417 396.583 46.5208 400.875 49.3125C405.167 52.0625 411.042 53.4167 418.5 53.375C426 53.4167 431.896 52.0625 436.188 49.3125C440.521 46.5208 442.667 42.5417 442.625 37.375C442.667 32.125 440.542 28.125 436.25 25.375C431.958 22.625 426.042 21.25 418.5 21.25ZM429.25 87.375V68.3125C425.958 68.8542 422.375 69.125 418.5 69.125C414.792 69.125 411.25 68.875 407.875 68.375V87.375H429.25ZM582.75 30.75H568.875V39.5H582.75V56H568.875V68.75H548.5V0.875H568.875V14.25H582.75V30.75ZM568.875 116.375H548.5V89H489.875V73H568.875V116.375ZM508.75 6.75C514.75 6.75 520.229 8 525.188 10.5C530.188 12.9583 534.104 16.3958 536.938 20.8125C539.812 25.2292 541.25 30.1667 541.25 35.625C541.25 41.0833 539.812 46 536.938 50.375C534.104 54.75 530.208 58.2083 525.25 60.75C520.292 63.25 514.792 64.5 508.75 64.5C502.75 64.5 497.271 63.25 492.312 60.75C487.396 58.2083 483.5 54.75 480.625 50.375C477.792 46 476.375 41.0833 476.375 35.625C476.375 30.1667 477.792 25.2292 480.625 20.8125C483.5 16.3958 487.396 12.9583 492.312 10.5C497.271 8 502.75 6.75 508.75 6.75ZM508.625 24C504.958 24 501.979 25 499.688 27C497.396 29 496.25 31.9167 496.25 35.75C496.25 39.5417 497.417 42.4375 499.75 44.4375C502.083 46.3958 505.083 47.375 508.75 47.375C512.5 47.375 515.521 46.375 517.812 44.375C520.146 42.375 521.333 39.4583 521.375 35.625C521.333 31.7917 520.146 28.8958 517.812 26.9375C515.479 24.9792 512.417 24 508.625 24ZM620.25 14H659.125V4.75H679.375V52.5H649.625V60.625H692.5V76.625H587V60.625H629.25V52.5H600.125V4.75H620.25V14ZM659.125 36.5V29.5H620.25V36.5H659.125ZM680.625 114.75H599.25V81.875H619.625V98.5H680.625V114.75ZM833.5 74.75H792.75V90.375H772.375V74.75H728V58.75H833.5V74.75ZM821.875 114.75H739.5V82.75H759.75V98.5H821.875V114.75ZM761.25 14.5H800.125V4.375H820.375V52.75H741.125V4.375H761.25V14.5ZM800.125 37.125V29.625H761.25V37.125H800.125ZM944.25 104.375H838.75V88H881.125V71H846.875V55H860.625V25.375H846.125V9.25H936.375V25.375H921.875V55H935.875V71H901.375V88H944.25V104.375ZM901.5 55V25.375H881V55H901.5Z" fill="black"/>
</svg>
