<svg width="861" height="112" viewBox="0 0 861 112" fill="none" xmlns="http://www.w3.org/2000/svg">
<path d="M22.24 31.28H34.24V34.16C34.24 57.2 27.52 80.36 9.76 90.56L0.76 78.56C16.6 69.32 22.24 51.2 22.24 34.16V31.28ZM25.36 31.28H37.36V34.16C37.36 50.84 43.12 67.76 58.84 76.16L50.2 87.92C32.2 78.56 25.36 56.84 25.36 34.16V31.28ZM4.48 19.28H55V32.12H4.48V19.28ZM22.24 4.27999H37.36V29.6H22.24V4.27999ZM83.92 0.559999H99.04V111.68H83.92V0.559999ZM70.6 43.16H89.08V56.12H70.6V43.16ZM60.04 2.24H74.92V106.64H60.04V2.24ZM110.911 5.12H126.751V50.6H110.911V5.12ZM110.911 41.12H120.151C135.751 41.12 151.711 40.28 168.871 37.16L170.791 50C152.911 53.36 136.231 54.2 120.151 54.2H110.911V41.12ZM154.951 16.04H185.191V28.76H154.951V16.04ZM181.831 0.559999H197.791V56.6H181.831V0.559999ZM124.351 60.8H197.791V91.28H140.551V104.6H124.591V79.4H181.831V73.4H124.351V60.8ZM124.591 97.88H200.431V110.48H124.591V97.88ZM260.421 14.48H287.301V26.48H260.421V14.48ZM260.421 34.76H287.301V46.76H260.421V34.76ZM283.821 0.559999H299.781V57.56H283.821V0.559999ZM226.341 61.88H299.781V91.64H242.301V105.68H226.461V80.12H283.941V74.12H226.341V61.88ZM226.461 98.12H302.901V110.48H226.461V98.12ZM211.461 5.12H227.301V18.08H248.421V5.12H264.021V54.56H211.461V5.12ZM227.301 30.08V42.08H248.421V30.08H227.301ZM356.041 57.68H365.881V90.2H356.041V57.68ZM396.121 57.68H406.081V90.2H396.121V57.68ZM332.041 88.28H430.321V96.56H332.041V88.28ZM381.001 8.71999C403.921 8.71999 420.361 19.64 420.361 36.68C420.361 53.6 403.921 64.52 381.001 64.52C357.961 64.52 341.521 53.6 341.521 36.68C341.521 19.64 357.961 8.71999 381.001 8.71999ZM381.001 16.64C363.601 16.64 351.121 24.56 351.121 36.68C351.121 48.68 363.601 56.6 381.001 56.6C398.401 56.6 410.761 48.68 410.761 36.68C410.761 24.56 398.401 16.64 381.001 16.64ZM515.151 18.32H533.991V26.72H515.151V18.32ZM515.151 41.6H533.991V49.88H515.151V41.6ZM508.191 1.88H518.151V66.32H508.191V1.88ZM447.711 71.48H518.151V110.36H508.191V79.52H447.711V71.48ZM464.271 8.23999C480.591 8.23999 492.591 18.8 492.591 34.04C492.591 49.16 480.591 59.6 464.271 59.6C447.951 59.6 435.951 49.16 435.951 34.04C435.951 18.8 447.951 8.23999 464.271 8.23999ZM464.271 16.76C453.471 16.76 445.671 23.72 445.671 34.04C445.671 44.24 453.471 51.32 464.271 51.32C475.071 51.32 482.871 44.24 482.871 34.04C482.871 23.72 475.071 16.76 464.271 16.76ZM548.982 6.2H558.822V19.76H611.262V6.2H621.222V49.52H548.982V6.2ZM558.822 27.68V41.48H611.262V27.68H558.822ZM535.902 61.04H633.942V69.2H535.902V61.04ZM580.062 44.84H589.902V64.64H580.062V44.84ZM548.622 99.8H623.142V107.96H548.622V99.8ZM548.622 77.96H558.582V102.56H548.622V77.96ZM659.961 59.12H758.241V67.28H659.961V59.12ZM704.841 63.2H714.801V88.16H704.841V63.2ZM672.441 99.8H747.321V107.96H672.441V99.8ZM672.441 78.56H682.281V102.92H672.441V78.56ZM673.041 5.24H682.881V19.04H735.321V5.24H745.281V48.68H673.041V5.24ZM682.881 26.84V40.64H735.321V26.84H682.881ZM762.072 88.64H860.352V96.92H762.072V88.64ZM805.872 60.56H815.832V92.36H805.872V60.56ZM770.592 12.2H851.112V20.36H770.592V12.2ZM770.832 55.88H850.992V63.92H770.832V55.88ZM787.512 18.8H797.472V57.32H787.512V18.8ZM824.472 18.8H834.312V57.32H824.472V18.8Z" fill="#686868"/>
</svg>
