<svg width="686" height="270" viewBox="0 0 686 270" fill="none" xmlns="http://www.w3.org/2000/svg">
<path opacity="0.9" d="M106.125 80.5H83.5V116.25H62.875V80.5H43.125V116.25H22.375V80.5H0.625V64.125H106.125V80.5ZM53 4.25C61.375 4.25 68.8125 5.33333 75.3125 7.5C81.8542 9.66667 86.9375 12.75 90.5625 16.75C94.1875 20.7083 96 25.3333 96 30.625C96 35.8333 94.1667 40.4167 90.5 44.375C86.875 48.3333 81.8125 51.3958 75.3125 53.5625C68.8125 55.6875 61.375 56.75 53 56.75C44.6667 56.75 37.25 55.6875 30.75 53.5625C24.25 51.3958 19.1875 48.3333 15.5625 44.375C11.9375 40.4167 10.125 35.8333 10.125 30.625C10.125 25.3333 11.9167 20.7083 15.5 16.75C19.125 12.75 24.1875 9.66667 30.6875 7.5C37.1875 5.33333 44.625 4.25 53 4.25ZM53 20.25C45.9583 20.2917 40.5417 21.1667 36.75 22.875C32.9583 24.5833 31.0833 27.1667 31.125 30.625C31.125 34 32.9792 36.5208 36.6875 38.1875C40.3958 39.8125 45.7083 40.625 52.625 40.625C59.8333 40.625 65.3542 39.8125 69.1875 38.1875C73.0625 36.5625 75 34.0417 75 30.625C75 27.1667 73.1042 24.5833 69.3125 22.875C65.5208 21.1667 60.0833 20.2917 53 20.25ZM216.625 84.625H194.5V116.375H174V84.625H154.125V116.375H133.625V84.625H111.125V68.25H216.625V84.625ZM206.125 62.75H123.625V5H205V20.875H143.875V26.25H202.625V41.5H143.875V46.875H206.125V62.75ZM327.375 103.625H221.875V87H327.375V103.625ZM252.375 24.75H296.375V7.625H316.625V70.375H232.25V7.625H252.375V24.75ZM296.375 54.375V40.5H252.375V54.375H296.375ZM416.875 35.375H400.375C400.375 44.7917 401.854 53.0833 404.812 60.25C407.771 67.4167 413 73.0833 420.5 77.25V2.125H439.5V43.625H445.375V0.75H464.75V116.25H445.375V60H439.5V111.625H420.5V78.9375L410.5 92.875C401.708 88.5 395.188 81.2292 390.938 71.0625C386.729 82.4792 380.167 90.6667 371.25 95.625L360 80.375C374.083 72.125 381.083 57.125 381 35.375H364.5V19.125H381V4.5H400.375V19.125H416.875V35.375ZM499.75 40.4375C514.125 40.0208 527.75 38.75 540.625 36.625L542.875 52.875C526.417 55.7083 508.708 57.125 489.75 57.125H479.5V5H499.75V40.4375ZM572 58.125H551.5V31H526.125V15H551.5V0.75H572V58.125ZM572 96H514.25V99.375H574V115.375H493.875V81.125H551.5V77.75H493.75V61.875H572V96ZM682.625 59.5H662.125V50.375H645.125V57.125H588.375V5.25H608.625V16.75H625.125V5.25H645.125V14H662.125V0.875H682.625V59.5ZM682.625 96.375H624.625V99.625H685.375V115.375H604.5V81.75H662.375V78.625H604.375V63.125H682.625V96.375ZM625.125 41.5V31.875H608.625V41.5H625.125ZM662.125 35.25V29.25H645.125V35.25H662.125ZM106.125 256.875H0.625V240.375H22.25V213.938C18 211.104 14.7083 207.688 12.375 203.688C10.0833 199.646 8.95833 195.208 9 190.375C9 184.042 10.8958 178.458 14.6875 173.625C18.5208 168.792 23.7917 165.062 30.5 162.438C37.25 159.812 44.8333 158.5 53.25 158.5C61.7083 158.5 69.2917 159.812 76 162.438C82.75 165.062 88.0417 168.792 91.875 173.625C95.7083 178.458 97.625 184.042 97.625 190.375C97.625 195.208 96.4583 199.625 94.125 203.625C91.8333 207.625 88.5833 211.042 84.375 213.875V240.375H106.125V256.875ZM53.25 174.25C45.75 174.25 39.8542 175.625 35.5625 178.375C31.3125 181.125 29.1667 185.125 29.125 190.375C29.1667 195.542 31.3333 199.521 35.625 202.312C39.9167 205.062 45.7917 206.417 53.25 206.375C60.75 206.417 66.6458 205.062 70.9375 202.312C75.2708 199.521 77.4167 195.542 77.375 190.375C77.4167 185.125 75.2917 181.125 71 178.375C66.7083 175.625 60.7917 174.25 53.25 174.25ZM64 240.375V221.312C60.7083 221.854 57.125 222.125 53.25 222.125C49.5417 222.125 46 221.875 42.625 221.375V240.375H64ZM217.5 183.75H203.625V192.5H217.5V209H203.625V221.75H183.25V153.875H203.625V167.25H217.5V183.75ZM203.625 269.375H183.25V242H124.625V226H203.625V269.375ZM143.5 159.75C149.5 159.75 154.979 161 159.938 163.5C164.938 165.958 168.854 169.396 171.688 173.812C174.562 178.229 176 183.167 176 188.625C176 194.083 174.562 199 171.688 203.375C168.854 207.75 164.958 211.208 160 213.75C155.042 216.25 149.542 217.5 143.5 217.5C137.5 217.5 132.021 216.25 127.062 213.75C122.146 211.208 118.25 207.75 115.375 203.375C112.542 199 111.125 194.083 111.125 188.625C111.125 183.167 112.542 178.229 115.375 173.812C118.25 169.396 122.146 165.958 127.062 163.5C132.021 161 137.5 159.75 143.5 159.75ZM143.375 177C139.708 177 136.729 178 134.438 180C132.146 182 131 184.917 131 188.75C131 192.542 132.167 195.438 134.5 197.438C136.833 199.396 139.833 200.375 143.5 200.375C147.25 200.375 150.271 199.375 152.562 197.375C154.896 195.375 156.083 192.458 156.125 188.625C156.083 184.792 154.896 181.896 152.562 179.938C150.229 177.979 147.167 177 143.375 177ZM255 167H293.875V157.75H314.125V205.5H284.375V213.625H327.25V229.625H221.75V213.625H264V205.5H234.875V157.75H255V167ZM293.875 189.5V182.5H255V189.5H293.875ZM315.375 267.75H234V234.875H254.375V251.5H315.375V267.75ZM468.25 227.75H427.5V243.375H407.125V227.75H362.75V211.75H468.25V227.75ZM456.625 267.75H374.25V235.75H394.5V251.5H456.625V267.75ZM396 167.5H434.875V157.375H455.125V205.75H375.875V157.375H396V167.5ZM434.875 190.125V182.625H396V190.125H434.875ZM579 257.375H473.5V241H515.875V224H481.625V208H495.375V178.375H480.875V162.25H571.125V178.375H556.625V208H570.625V224H536.125V241H579V257.375ZM536.25 208V178.375H515.75V208H536.25Z" fill="#607ABB"/>
</svg>
