<svg width="859" height="110" viewBox="0 0 859 110" fill="none" xmlns="http://www.w3.org/2000/svg">
<path d="M24.08 28.6H31.76V34.24C31.76 55.72 22.76 77.44 6.92 86.92L0.92 79.36C15.68 70.72 24.08 51.88 24.08 34.24V28.6ZM25.88 28.6H33.56V34.24C33.56 51.4 42.32 69.16 56.84 77.08L51.2 84.52C35.24 75.64 25.88 55.12 25.88 34.24V28.6ZM3.68 21.04H53.96V29.2H3.68V21.04ZM24.08 4.72H33.68V27.16H24.08V4.72ZM84.92 0.879996H94.4V109.36H84.92V0.879996ZM67.76 44.56H88.64V52.96H67.76V44.56ZM61.28 3.16H70.64V103.96H61.28V3.16ZM110.231 6.03999H120.191V49.48H110.231V6.03999ZM110.231 44.08H118.631C135.911 44.08 150.431 43.12 166.631 39.88L167.951 48.16C151.151 51.52 136.271 52.36 118.631 52.36H110.231V44.08ZM152.471 18.88H185.591V27.04H152.471V18.88ZM183.191 0.879996H193.151V56.92H183.191V0.879996ZM123.311 61.96H193.151V88.12H133.511V104.2H123.671V80.56H183.311V70.12H123.311V61.96ZM123.671 99.88H196.991V107.92H123.671V99.88ZM257.101 16.24H287.701V24.04H257.101V16.24ZM257.101 36.04H287.701V43.84H257.101V36.04ZM285.181 0.879996H295.141V57.4H285.181V0.879996ZM225.301 62.8H295.141V88.48H235.261V105.16H225.541V81.04H285.301V70.72H225.301V62.8ZM225.541 100H299.101V107.92H225.541V100ZM211.261 5.8H221.101V21.4H250.501V5.8H260.221V53.2H211.261V5.8ZM221.101 29.2V45.16H250.501V29.2H221.101ZM354.041 56.68H363.881V89.2H354.041V56.68ZM394.121 56.68H404.081V89.2H394.121V56.68ZM330.041 87.28H428.321V95.56H330.041V87.28ZM379.001 7.71999C401.921 7.71999 418.361 18.64 418.361 35.68C418.361 52.6 401.921 63.52 379.001 63.52C355.961 63.52 339.521 52.6 339.521 35.68C339.521 18.64 355.961 7.71999 379.001 7.71999ZM379.001 15.64C361.601 15.64 349.121 23.56 349.121 35.68C349.121 47.68 361.601 55.6 379.001 55.6C396.401 55.6 408.761 47.68 408.761 35.68C408.761 23.56 396.401 15.64 379.001 15.64ZM513.151 17.32H531.991V25.72H513.151V17.32ZM513.151 40.6H531.991V48.88H513.151V40.6ZM506.191 0.879996H516.151V65.32H506.191V0.879996ZM445.711 70.48H516.151V109.36H506.191V78.52H445.711V70.48ZM462.271 7.23999C478.591 7.23999 490.591 17.8 490.591 33.04C490.591 48.16 478.591 58.6 462.271 58.6C445.951 58.6 433.951 48.16 433.951 33.04C433.951 17.8 445.951 7.23999 462.271 7.23999ZM462.271 15.76C451.471 15.76 443.671 22.72 443.671 33.04C443.671 43.24 451.471 50.32 462.271 50.32C473.071 50.32 480.871 43.24 480.871 33.04C480.871 22.72 473.071 15.76 462.271 15.76ZM546.982 5.2H556.822V18.76H609.262V5.2H619.222V48.52H546.982V5.2ZM556.822 26.68V40.48H609.262V26.68H556.822ZM533.902 60.04H631.942V68.2H533.902V60.04ZM578.062 43.84H587.902V63.64H578.062V43.84ZM546.622 98.8H621.142V106.96H546.622V98.8ZM546.622 76.96H556.582V101.56H546.622V76.96ZM657.961 58.12H756.241V66.28H657.961V58.12ZM702.841 62.2H712.801V87.16H702.841V62.2ZM670.441 98.8H745.321V106.96H670.441V98.8ZM670.441 77.56H680.281V101.92H670.441V77.56ZM671.041 4.24H680.881V18.04H733.321V4.24H743.281V47.68H671.041V4.24ZM680.881 25.84V39.64H733.321V25.84H680.881ZM760.072 87.64H858.352V95.92H760.072V87.64ZM803.872 59.56H813.832V91.36H803.872V59.56ZM768.592 11.2H849.112V19.36H768.592V11.2ZM768.832 54.88H848.992V62.92H768.832V54.88ZM785.512 17.8H795.472V56.32H785.512V17.8ZM822.472 17.8H832.312V56.32H822.472V17.8Z" fill="#686868"/>
</svg>
