<svg width="443" height="84" viewBox="0 0 443 84" fill="none" xmlns="http://www.w3.org/2000/svg">
<g opacity="0.9" filter="url(#filter0_d_1114_787)">
<path d="M4.4375 6.125H30.3125C35.6875 6.125 40.4688 7.15625 44.6562 9.21875C48.875 11.2812 52.1562 14.1562 54.5 17.8438C56.875 21.5312 58.0625 25.7188 58.0625 30.4062C58.0625 35.0938 56.875 39.2812 54.5 42.9688C52.1562 46.6562 48.875 49.5312 44.6562 51.5938C40.4688 53.6562 35.6875 54.6875 30.3125 54.6875H23.9375V74H4.4375V6.125ZM30.6875 37.0625C33.125 37.0625 35.0469 36.4688 36.4531 35.2812C37.8594 34.0938 38.5625 32.4688 38.5625 30.4062C38.5625 28.3438 37.8594 26.7188 36.4531 25.5312C35.0469 24.3438 33.125 23.75 30.6875 23.75H23.9375V37.0625H30.6875ZM65.9375 25.625H84.6875V32.1875H85.0625C86.4062 29.6875 88.1719 27.75 90.3594 26.375C92.5469 25 95 24.3125 97.7188 24.3125C99.0312 24.3125 100.438 24.5 101.938 24.875V42.4062C99.875 41.8438 97.8125 41.5625 95.75 41.5625C88.375 41.5625 84.6875 45.875 84.6875 54.5V74H65.9375V25.625ZM135.219 75.3125C129.719 75.3125 124.906 74.25 120.781 72.125C116.688 70 113.516 67.0156 111.266 63.1719C109.047 59.3281 107.938 54.875 107.938 49.8125C107.938 44.8125 109.062 40.375 111.312 36.5C113.594 32.625 116.75 29.625 120.781 27.5C124.812 25.375 129.375 24.3125 134.469 24.3125C139.531 24.3125 144.016 25.375 147.922 27.5C151.828 29.625 154.859 32.625 157.016 36.5C159.172 40.3438 160.25 44.7812 160.25 49.8125C160.25 51.3438 160.125 52.9062 159.875 54.5H126.406C126.719 56.4688 127.688 58.0625 129.312 59.2812C130.938 60.4688 132.906 61.0625 135.219 61.0625C136.875 61.0625 138.281 60.7344 139.438 60.0781C140.594 59.4219 141.469 58.5 142.062 57.3125L158.469 62.8438C156.406 66.7812 153.391 69.8438 149.422 72.0312C145.453 74.2188 140.719 75.3125 135.219 75.3125ZM141.875 44.375C141.75 42.6875 141.016 41.2969 139.672 40.2031C138.359 39.1094 136.625 38.5625 134.469 38.5625C132.375 38.5625 130.578 39.0938 129.078 40.1562C127.609 41.1875 126.719 42.5938 126.406 44.375H141.875ZM199.062 56.5625H169.438V40.8125H199.062V56.5625ZM200.375 6.125H222.312L236 46.5312H236.375L250.062 6.125H272L245.656 74H226.719L200.375 6.125ZM278.375 25.625H297.125V74H278.375V25.625ZM287.75 21.5C285.781 21.5 283.984 21.0625 282.359 20.1875C280.734 19.2812 279.453 18.0469 278.516 16.4844C277.609 14.8906 277.156 13.125 277.156 11.1875C277.156 9.25 277.609 7.5 278.516 5.9375C279.453 4.34375 280.734 3.10938 282.359 2.23438C283.984 1.32813 285.781 0.875 287.75 0.875C289.719 0.875 291.516 1.32813 293.141 2.23438C294.766 3.10938 296.031 4.34375 296.938 5.9375C297.875 7.5 298.344 9.25 298.344 11.1875C298.344 13.125 297.875 14.8906 296.938 16.4844C296.031 18.0469 294.766 19.2812 293.141 20.1875C291.516 21.0625 289.719 21.5 287.75 21.5ZM331.906 75.3125C326.406 75.3125 321.594 74.25 317.469 72.125C313.375 70 310.203 67.0156 307.953 63.1719C305.734 59.3281 304.625 54.875 304.625 49.8125C304.625 44.8125 305.75 40.375 308 36.5C310.281 32.625 313.438 29.625 317.469 27.5C321.5 25.375 326.062 24.3125 331.156 24.3125C336.219 24.3125 340.703 25.375 344.609 27.5C348.516 29.625 351.547 32.625 353.703 36.5C355.859 40.3438 356.938 44.7812 356.938 49.8125C356.938 51.3438 356.812 52.9062 356.562 54.5H323.094C323.406 56.4688 324.375 58.0625 326 59.2812C327.625 60.4688 329.594 61.0625 331.906 61.0625C333.562 61.0625 334.969 60.7344 336.125 60.0781C337.281 59.4219 338.156 58.5 338.75 57.3125L355.156 62.8438C353.094 66.7812 350.078 69.8438 346.109 72.0312C342.141 74.2188 337.406 75.3125 331.906 75.3125ZM338.562 44.375C338.438 42.6875 337.703 41.2969 336.359 40.2031C335.047 39.1094 333.312 38.5625 331.156 38.5625C329.062 38.5625 327.266 39.0938 325.766 40.1562C324.297 41.1875 323.406 42.5938 323.094 44.375H338.562ZM358.25 25.625H377.094L384.125 50.75H384.5L390.5 25.625H406.719L412.719 50.75H413.094L420.125 25.625H438.969L422.75 74H418.25V74.0938L418.203 74H404.375L398.75 49.9062H398.469L392.844 74H374.469L358.25 25.625Z" fill="#688CC3"/>
</g>
<defs>
<filter id="filter0_d_1114_787" x="0.4375" y="0.875" width="442.531" height="82.4375" filterUnits="userSpaceOnUse" color-interpolation-filters="sRGB">
<feFlood flood-opacity="0" result="BackgroundImageFix"/>
<feColorMatrix in="SourceAlpha" type="matrix" values="0 0 0 0 0 0 0 0 0 0 0 0 0 0 0 0 0 0 127 0" result="hardAlpha"/>
<feOffset dy="4"/>
<feGaussianBlur stdDeviation="2"/>
<feComposite in2="hardAlpha" operator="out"/>
<feColorMatrix type="matrix" values="0 0 0 0 0 0 0 0 0 0 0 0 0 0 0 0 0 0 0.25 0"/>
<feBlend mode="normal" in2="BackgroundImageFix" result="effect1_dropShadow_1114_787"/>
<feBlend mode="normal" in="SourceGraphic" in2="effect1_dropShadow_1114_787" result="shape"/>
</filter>
</defs>
</svg>
