<svg width="435" height="76" viewBox="0 0 435 76" fill="none" xmlns="http://www.w3.org/2000/svg">
<path opacity="0.9" d="M0.4375 6.125H26.3125C31.6875 6.125 36.4688 7.15625 40.6562 9.21875C44.875 11.2812 48.1562 14.1562 50.5 17.8438C52.875 21.5312 54.0625 25.7188 54.0625 30.4062C54.0625 35.0938 52.875 39.2812 50.5 42.9688C48.1562 46.6562 44.875 49.5312 40.6562 51.5938C36.4688 53.6562 31.6875 54.6875 26.3125 54.6875H19.9375V74H0.4375V6.125ZM26.6875 37.0625C29.125 37.0625 31.0469 36.4688 32.4531 35.2812C33.8594 34.0938 34.5625 32.4688 34.5625 30.4062C34.5625 28.3438 33.8594 26.7188 32.4531 25.5312C31.0469 24.3438 29.125 23.75 26.6875 23.75H19.9375V37.0625H26.6875ZM61.9375 25.625H80.6875V32.1875H81.0625C82.4062 29.6875 84.1719 27.75 86.3594 26.375C88.5469 25 91 24.3125 93.7188 24.3125C95.0312 24.3125 96.4375 24.5 97.9375 24.875V42.4062C95.875 41.8438 93.8125 41.5625 91.75 41.5625C84.375 41.5625 80.6875 45.875 80.6875 54.5V74H61.9375V25.625ZM131.219 75.3125C125.719 75.3125 120.906 74.25 116.781 72.125C112.688 70 109.516 67.0156 107.266 63.1719C105.047 59.3281 103.938 54.875 103.938 49.8125C103.938 44.8125 105.062 40.375 107.312 36.5C109.594 32.625 112.75 29.625 116.781 27.5C120.812 25.375 125.375 24.3125 130.469 24.3125C135.531 24.3125 140.016 25.375 143.922 27.5C147.828 29.625 150.859 32.625 153.016 36.5C155.172 40.3438 156.25 44.7812 156.25 49.8125C156.25 51.3438 156.125 52.9062 155.875 54.5H122.406C122.719 56.4688 123.688 58.0625 125.312 59.2812C126.938 60.4688 128.906 61.0625 131.219 61.0625C132.875 61.0625 134.281 60.7344 135.438 60.0781C136.594 59.4219 137.469 58.5 138.062 57.3125L154.469 62.8438C152.406 66.7812 149.391 69.8438 145.422 72.0312C141.453 74.2188 136.719 75.3125 131.219 75.3125ZM137.875 44.375C137.75 42.6875 137.016 41.2969 135.672 40.2031C134.359 39.1094 132.625 38.5625 130.469 38.5625C128.375 38.5625 126.578 39.0938 125.078 40.1562C123.609 41.1875 122.719 42.5938 122.406 44.375H137.875ZM195.062 56.5625H165.438V40.8125H195.062V56.5625ZM196.375 6.125H218.312L232 46.5312H232.375L246.062 6.125H268L241.656 74H222.719L196.375 6.125ZM274.375 25.625H293.125V74H274.375V25.625ZM283.75 21.5C281.781 21.5 279.984 21.0625 278.359 20.1875C276.734 19.2812 275.453 18.0469 274.516 16.4844C273.609 14.8906 273.156 13.125 273.156 11.1875C273.156 9.25 273.609 7.5 274.516 5.9375C275.453 4.34375 276.734 3.10938 278.359 2.23438C279.984 1.32813 281.781 0.875 283.75 0.875C285.719 0.875 287.516 1.32813 289.141 2.23438C290.766 3.10938 292.031 4.34375 292.938 5.9375C293.875 7.5 294.344 9.25 294.344 11.1875C294.344 13.125 293.875 14.8906 292.938 16.4844C292.031 18.0469 290.766 19.2812 289.141 20.1875C287.516 21.0625 285.719 21.5 283.75 21.5ZM327.906 75.3125C322.406 75.3125 317.594 74.25 313.469 72.125C309.375 70 306.203 67.0156 303.953 63.1719C301.734 59.3281 300.625 54.875 300.625 49.8125C300.625 44.8125 301.75 40.375 304 36.5C306.281 32.625 309.438 29.625 313.469 27.5C317.5 25.375 322.062 24.3125 327.156 24.3125C332.219 24.3125 336.703 25.375 340.609 27.5C344.516 29.625 347.547 32.625 349.703 36.5C351.859 40.3438 352.938 44.7812 352.938 49.8125C352.938 51.3438 352.812 52.9062 352.562 54.5H319.094C319.406 56.4688 320.375 58.0625 322 59.2812C323.625 60.4688 325.594 61.0625 327.906 61.0625C329.562 61.0625 330.969 60.7344 332.125 60.0781C333.281 59.4219 334.156 58.5 334.75 57.3125L351.156 62.8438C349.094 66.7812 346.078 69.8438 342.109 72.0312C338.141 74.2188 333.406 75.3125 327.906 75.3125ZM334.562 44.375C334.438 42.6875 333.703 41.2969 332.359 40.2031C331.047 39.1094 329.312 38.5625 327.156 38.5625C325.062 38.5625 323.266 39.0938 321.766 40.1562C320.297 41.1875 319.406 42.5938 319.094 44.375H334.562ZM354.25 25.625H373.094L380.125 50.75H380.5L386.5 25.625H402.719L408.719 50.75H409.094L416.125 25.625H434.969L418.75 74H414.25V74.0938L414.203 74H400.375L394.75 49.9062H394.469L388.844 74H370.469L354.25 25.625Z" fill="#663AD6"/>
</svg>
