<svg width="220" height="220" viewBox="0 0 220 220" fill="none" xmlns="http://www.w3.org/2000/svg">
<rect width="219.238" height="219.238" fill="#F5F5F7"/>
<path d="M77.507 159.944H93.2304V162.565H77.507V159.944ZM82.9408 169.926H86.1009V181.718H82.9408V169.926ZM91.9201 159.944H95.0803V161.833C95.0803 163.246 95.0289 165.096 94.9261 167.382C94.849 169.669 94.5664 172.431 94.0783 175.668L90.9182 175.398C91.432 172.238 91.7275 169.54 91.8045 167.305C91.8816 165.07 91.9201 163.246 91.9201 161.833V159.944ZM99.435 156.129H102.634V191.006H99.435V156.129ZM101.747 170.696H108.183V173.433H101.747V170.696ZM75.9654 183.375L75.5801 180.716C77.6611 180.691 79.9348 180.665 82.4013 180.639C84.8934 180.588 87.4112 180.485 89.9547 180.331C92.5239 180.177 94.9775 179.958 97.3155 179.676L97.5081 182.065C95.0931 182.451 92.6138 182.733 90.0703 182.913C87.5525 183.093 85.0861 183.221 82.671 183.298C80.256 183.35 78.0208 183.375 75.9654 183.375ZM111.456 159.829H132.035V162.411H111.456V159.829ZM121.746 164.222C123.39 164.222 124.841 164.479 126.1 164.993C127.359 165.507 128.335 166.239 129.029 167.19C129.723 168.114 130.07 169.219 130.07 170.504C130.07 171.788 129.723 172.893 129.029 173.818C128.335 174.743 127.359 175.475 126.1 176.015C124.841 176.529 123.39 176.785 121.746 176.785C120.101 176.785 118.65 176.529 117.391 176.015C116.132 175.475 115.143 174.743 114.423 173.818C113.73 172.893 113.383 171.788 113.383 170.504C113.383 169.219 113.73 168.114 114.423 167.19C115.143 166.239 116.132 165.507 117.391 164.993C118.65 164.479 120.101 164.222 121.746 164.222ZM121.746 166.689C120.153 166.689 118.868 167.035 117.892 167.729C116.941 168.397 116.466 169.322 116.466 170.504C116.466 171.66 116.941 172.585 117.892 173.279C118.868 173.946 120.153 174.28 121.746 174.28C123.313 174.28 124.584 173.946 125.561 173.279C126.537 172.585 127.025 171.66 127.025 170.504C127.025 169.322 126.537 168.397 125.561 167.729C124.61 167.035 123.338 166.689 121.746 166.689ZM135.234 156.129H138.432V177.942H135.234V156.129ZM137.546 165.764H143.558V168.423H137.546V165.764ZM115.772 179.83H138.432V191.006H135.234V182.451H115.772V179.83ZM120.165 155.975H123.364V161.255H120.165V155.975Z" fill="#4661AC"/>
<path d="M82.1836 127.01C78.7943 127.01 76.3859 125.388 74.9583 122.146C73.5308 118.903 73.8791 115.89 76.0031 113.107L98.1336 84.232V58.5653H94.1461C93.0163 58.5653 92.0699 58.1547 91.307 57.3333C90.5441 56.512 90.1613 55.4967 90.1586 54.2875C90.1586 53.0755 90.5414 52.0602 91.307 51.2418C92.0726 50.4233 93.0189 50.0126 94.1461 50.0098H126.046C127.176 50.0098 128.123 50.4204 128.889 51.2418C129.655 52.0631 130.036 53.0784 130.033 54.2875C130.033 55.4996 129.651 56.5163 128.885 57.3376C128.119 58.1589 127.173 58.5682 126.046 58.5653H122.058V84.232L144.189 113.107C146.316 115.888 146.665 118.901 145.238 122.146C143.81 125.391 141.4 127.013 138.008 127.01H110.096H82.1836ZM82.1836 118.454H138.008L114.083 87.2264V58.5653H106.109V87.2264L82.1836 118.454Z" fill="#4661AC"/>
</svg>
