<svg width="36" height="35" viewBox="0 0 36 35" fill="none" xmlns="http://www.w3.org/2000/svg">
<g clip-path="url(#clip0_191_352)">
<path d="M31.2995 34.8376L19.4964 23.098C18.5596 23.8434 17.4824 24.4334 16.2646 24.8682C15.0468 25.303 13.751 25.5204 12.377 25.5204C8.9735 25.5204 6.09329 24.3477 3.73641 22.0023C1.37953 19.6569 0.200468 16.7921 0.199219 13.4082C0.199219 10.0229 1.37828 7.15824 3.73641 4.81405C6.09454 2.46986 8.97475 1.29714 12.377 1.2959C15.7806 1.2959 18.6614 2.46861 21.0196 4.81405C23.3777 7.15948 24.5561 10.0242 24.5549 13.4082C24.5549 14.7747 24.3363 16.0635 23.8991 17.2748C23.462 18.486 22.8687 19.5575 22.1193 20.4892L33.9224 32.2288L31.2995 34.8376ZM12.377 21.7936C14.7189 21.7936 16.7099 20.9786 18.3498 19.3488C19.9897 17.7189 20.8091 15.7387 20.8079 13.4082C20.8079 11.0789 19.9885 9.09931 18.3498 7.46943C16.7111 5.83955 14.7202 5.02399 12.377 5.02275C10.0352 5.02275 8.04486 5.83831 6.40616 7.46943C4.76747 9.10055 3.94749 11.0801 3.94624 13.4082C3.94624 15.7374 4.76622 17.7176 6.40616 19.3488C8.04611 20.9799 10.0364 21.7948 12.377 21.7936Z" fill="black"/>
</g>
<defs>
<clipPath id="clip0_191_352">
<rect width="35.1894" height="35" fill="white" transform="translate(0.199219)"/>
</clipPath>
</defs>
</svg>
