<svg width="26" height="26" viewBox="0 0 26 26" fill="none" xmlns="http://www.w3.org/2000/svg">
<path d="M23.9778 25.5267L14.8778 16.7578C14.1556 17.3145 13.325 17.7553 12.3861 18.0801C11.4472 18.4048 10.4481 18.5672 9.38889 18.5672C6.76481 18.5672 4.54422 17.6913 2.72711 15.9393C0.91 14.1874 0.000962963 12.0476 0 9.51995C0 6.99135 0.909037 4.85155 2.72711 3.10055C4.54519 1.34955 6.76578 0.473584 9.38889 0.472656C12.013 0.472656 14.234 1.34862 16.0521 3.10055C17.8702 4.85247 18.7787 6.99227 18.7778 9.51995C18.7778 10.5407 18.6093 11.5034 18.2722 12.4081C17.9352 13.3128 17.4778 14.1132 16.9 14.8091L26 23.578L23.9778 25.5267ZM9.38889 15.7835C11.1944 15.7835 12.7294 15.1747 13.9938 13.9573C15.2581 12.7399 15.8899 11.2607 15.8889 9.51995C15.8889 7.78008 15.2572 6.30143 13.9938 5.08399C12.7304 3.86655 11.1954 3.25737 9.38889 3.25644C7.58333 3.25644 6.04885 3.86562 4.78544 5.08399C3.52204 6.30236 2.88985 7.78101 2.88889 9.51995C2.88889 11.2598 3.52107 12.7389 4.78544 13.9573C6.04981 15.1757 7.5843 15.7844 9.38889 15.7835Z" fill="#686868"/>
</svg>
