<svg width="220" height="220" viewBox="0 0 220 220" fill="none" xmlns="http://www.w3.org/2000/svg">
<path d="M0 0H219.238V219.238H0V0Z" fill="#D9D9D9"/>
<path d="M61.7036 159.52H83.7859V162.141H61.7036V159.52ZM57.9269 183.607H89.4124V186.266H57.9269V183.607ZM82.4756 159.52H85.5971V162.835C85.5971 164.248 85.5715 165.751 85.5201 167.344C85.4944 168.937 85.3788 170.684 85.1732 172.585C84.9934 174.46 84.6594 176.593 84.1712 178.982L81.0111 178.635C81.7305 175.244 82.1544 172.277 82.2829 169.733C82.4113 167.19 82.4756 164.89 82.4756 162.835V159.52ZM83.2078 167.883V170.311L61.2026 171.583L60.7016 168.808L83.2078 167.883ZM70.182 174.589H73.3421V184.57H70.182V174.589ZM95.3442 159.559H111.376V182.258H95.3442V159.559ZM108.293 162.102H98.5043V179.676H108.293V162.102ZM118.698 156.129H121.897V191.044H118.698V156.129ZM154.15 156.129H157.349V191.044H154.15V156.129ZM131.066 179.676H133.879C136.191 179.676 138.272 179.65 140.122 179.599C141.972 179.547 143.719 179.432 145.363 179.252C147.033 179.072 148.729 178.828 150.45 178.52L150.759 181.217C149.012 181.551 147.29 181.808 145.595 181.988C143.899 182.142 142.113 182.258 140.238 182.335C138.362 182.386 136.243 182.412 133.879 182.412H131.066V179.676ZM131.066 159.443H147.522V162.102H134.265V180.678H131.066V159.443Z" fill="#4661AC"/>
<path d="M96.6619 122.172C92.9214 120.787 89.5928 118.468 86.9889 115.434C84.3851 112.399 82.5915 108.749 81.777 104.826L76.1613 78.2632C75.3494 74.5899 77.6836 70.9847 81.3372 70.2024L114.389 63.162L114.49 63.128C118.11 62.4138 121.662 64.7606 122.406 68.3658L123.59 74.0457L138.306 77.2088H138.407C141.959 78.0251 144.26 81.6303 143.516 85.2355L137.9 111.833C137.252 114.888 136.011 117.785 134.249 120.358C132.487 122.931 130.238 125.13 127.631 126.829C125.024 128.529 122.109 129.695 119.053 130.261C115.997 130.828 112.86 130.783 109.822 130.131C104.667 129.049 100.028 126.244 96.6619 122.172ZM136.885 83.841L103.834 76.7666L98.2181 103.364V103.466C96.2898 112.581 102.142 121.56 111.242 123.499C120.342 125.437 129.341 119.587 131.269 110.438L136.885 83.841ZM123.353 112.139C122.285 113.958 120.674 115.393 118.75 116.241C116.825 117.09 114.684 117.308 112.629 116.866C110.581 116.426 108.721 115.353 107.307 113.798C105.894 112.243 104.999 110.284 104.747 108.193L123.353 112.139ZM97.8798 73.6036L82.758 76.8687L88.3737 103.432L88.4075 103.534C88.915 105.949 89.9299 108.125 91.3169 109.996C90.9786 107.377 91.0462 104.656 91.6213 101.935L93.076 95.1329C91.5537 94.8608 90.2343 94.0105 89.5239 92.7861C89.7269 90.7114 91.4184 88.8748 93.7526 88.3306H94.5983L97.237 75.3722C97.3723 74.7259 97.5753 74.1478 97.8798 73.6036ZM120.072 97.6157C121.154 95.8131 123.455 94.8608 125.789 95.371C128.123 95.8471 129.815 97.6497 130.119 99.7584C129.003 101.527 126.736 102.479 124.368 101.935C122.034 101.493 120.342 99.6904 120.072 97.6157ZM103.563 94.0785C104.646 92.2759 106.912 91.3236 109.246 91.8338C111.513 92.3099 113.306 94.1465 113.577 96.2212C112.46 97.9898 110.194 98.9762 107.859 98.534C105.525 97.9558 103.834 96.1532 103.563 94.0785ZM109.72 71.0867L116.351 72.5152L115.809 69.7943L109.72 71.0867Z" fill="#4661AC"/>
</svg>
