<svg width="220" height="220" viewBox="0 0 220 220" fill="none" xmlns="http://www.w3.org/2000/svg">
<rect x="0.242188" width="219.238" height="219.238" fill="#F5F5F7"/>
<path d="M84.4438 159.135H87.0644V165.378C87.0644 167.305 86.8203 169.193 86.3321 171.043C85.8697 172.893 85.2017 174.627 84.3282 176.246C83.4546 177.865 82.427 179.303 81.2451 180.562C80.0633 181.821 78.7787 182.823 77.3913 183.568L75.4259 180.986C76.7105 180.344 77.8923 179.483 78.9714 178.404C80.0762 177.299 81.0396 176.04 81.8617 174.627C82.6839 173.214 83.3133 171.724 83.7501 170.157C84.2126 168.564 84.4438 166.971 84.4438 165.378V159.135ZM85.0219 159.135H87.6039V165.378C87.6039 166.92 87.8223 168.448 88.259 169.964C88.7215 171.48 89.3638 172.906 90.1859 174.242C91.0081 175.578 91.9458 176.773 92.9992 177.826C94.0783 178.879 95.2344 179.714 96.4676 180.331L94.5022 182.874C93.1405 182.181 91.8816 181.23 90.7255 180.023C89.595 178.815 88.593 177.441 87.7195 175.899C86.8717 174.332 86.2037 172.662 85.7155 170.889C85.2531 169.091 85.0219 167.254 85.0219 165.378V159.135ZM99.5121 156.129H102.711V191.006H99.5121V156.129ZM101.979 170.234H108.414V172.97H101.979V170.234ZM121.322 177.055H124.52V182.797H121.322V177.055ZM136.583 156.129H139.781V191.006H136.583V156.129ZM112.034 184.377L111.571 181.68C113.781 181.654 116.17 181.628 118.74 181.603C121.309 181.577 123.929 181.487 126.601 181.333C129.273 181.179 131.855 180.935 134.347 180.601L134.579 182.99C132.009 183.401 129.402 183.709 126.755 183.915C124.109 184.095 121.527 184.223 119.009 184.3C116.491 184.352 114.166 184.377 112.034 184.377ZM112.304 160.407H133.461V162.989H112.304V160.407ZM122.863 164.954C124.533 164.954 125.998 165.224 127.256 165.764C128.515 166.303 129.492 167.061 130.185 168.037C130.905 168.988 131.264 170.118 131.264 171.429C131.264 172.713 130.905 173.844 130.185 174.82C129.492 175.796 128.515 176.554 127.256 177.094C125.998 177.608 124.533 177.865 122.863 177.865C121.219 177.865 119.767 177.608 118.508 177.094C117.249 176.554 116.273 175.796 115.579 174.82C114.886 173.844 114.539 172.713 114.539 171.429C114.539 170.118 114.886 168.988 115.579 168.037C116.273 167.061 117.249 166.303 118.508 165.764C119.767 165.224 121.219 164.954 122.863 164.954ZM122.863 167.459C121.322 167.459 120.05 167.819 119.048 168.538C118.046 169.258 117.545 170.221 117.545 171.429C117.545 172.611 118.046 173.561 119.048 174.28C120.05 175 121.322 175.36 122.863 175.36C124.456 175.36 125.741 175 126.717 174.28C127.719 173.561 128.22 172.611 128.22 171.429C128.22 170.221 127.719 169.258 126.717 168.538C125.741 167.819 124.456 167.459 122.863 167.459ZM121.322 156.168H124.52V161.794H121.322V156.168Z" fill="#4661AC"/>
<path d="M65.7656 57V127.912C83.3467 128.115 95.7449 130.92 107.635 133.867V72.14C98.4278 66.0222 89.2612 60.1991 65.7656 57ZM153.163 57C129.667 60.1991 120.501 66.0222 111.293 72.14V133.867C123.183 130.92 135.582 128.115 153.163 127.912V57ZM148.915 62.4064L149.077 76.0221C137.004 79.5993 125.805 83.7252 114.749 87.404C114.667 83.1561 114.606 78.9285 114.525 74.6806C125.257 68.7458 137.126 64.9044 148.915 62.4064ZM71.4586 64.8027C83.8141 67.6685 94.8506 71.0425 103.387 73.9083L103.428 77.77C94.9725 74.9449 82.8385 71.2051 70.6334 68.3596L71.4586 64.8027ZM71.483 74.2741L78.7939 75.5953L78.1435 79.2131L70.8326 77.892L71.483 74.2741ZM82.493 76.5709L89.0986 77.831L88.4076 81.4082L81.802 80.148L82.493 76.5709ZM93.3059 78.705L103.387 80.6562L102.696 84.2333L92.6148 82.2822L93.3059 78.705ZM146.781 82.7496L147.838 86.2455L136.456 89.6804L135.399 86.1845L146.781 82.7496ZM70.0176 83.7049C81.6597 85.0667 93.2043 86.5301 102.92 89.1316L101.985 92.6682C92.6352 90.1479 81.2126 88.6845 69.5908 87.3227L70.0176 83.7049ZM130.013 87.3024L130.988 90.8389L116.415 94.8633L115.44 91.3267L130.013 87.3024ZM147.573 91.5706L148.549 95.1072L141.882 96.9567L140.907 93.4202L147.573 91.5706ZM70.6843 91.8958L80.8264 92.9527L80.4199 96.6112L70.2981 95.5137L70.6843 91.8958ZM86.3141 93.8877L103.001 96.3876L102.472 100.005L85.7857 97.5055L86.3141 93.8877ZM136.822 94.6397L137.797 98.1762L116.07 104.172L115.094 100.636L136.822 94.6397ZM148.163 99.2941L149.098 102.831L128.265 108.237L127.33 104.701L148.163 99.2941ZM69.29 100.595C75.3549 101.225 81.8833 102.119 86.4564 103.237V125.798L69.4648 124.294C69.3977 116.387 69.3672 108.501 69.29 100.595ZM90.5417 103.583L103.042 105.107L102.594 108.725L90.0945 107.2L90.5417 103.583ZM123.366 105.981L124.22 109.538L116.537 111.387L115.684 107.831L123.366 105.981ZM149.606 106.814L149.687 123.521L133.732 125.595C133.671 120.757 133.651 115.9 133.59 111.062L149.606 106.814ZM90.7653 111.367L102.92 113.359L102.31 116.977L90.1555 114.985L90.7653 111.367ZM145.988 111.57L137.289 113.867L137.35 121.448L146.029 120.31L145.988 111.57ZM129.444 113.562L130.135 117.139L116.131 119.802L115.44 116.225L129.444 113.562ZM90.6027 119.477L103.326 121.997L102.635 125.574L89.9116 123.054L90.6027 119.477ZM128.529 120.859L129.342 124.436L116.639 127.261L115.826 123.684L128.529 120.859Z" fill="#4661AC"/>
</svg>
