<svg width="220" height="220" viewBox="0 0 220 220" fill="none" xmlns="http://www.w3.org/2000/svg">
<rect width="219.238" height="219.238" fill="#D9D9D9"/>
<path d="M71.8776 158.518H74.6909V161.216C74.6909 162.732 74.4211 164.171 73.8816 165.532C73.3678 166.894 72.6484 168.166 71.7235 169.348C70.8243 170.504 69.7709 171.544 68.5634 172.469C67.3815 173.394 66.1098 174.178 64.7481 174.82C63.4121 175.462 62.0505 175.95 60.6631 176.284L59.2372 173.625C60.4447 173.368 61.6522 172.97 62.8598 172.431C64.093 171.891 65.2491 171.236 66.3282 170.465C67.4072 169.669 68.3578 168.782 69.18 167.806C70.0278 166.83 70.683 165.789 71.1454 164.685C71.6336 163.554 71.8776 162.398 71.8776 161.216V158.518ZM72.4942 158.518H75.2304V161.216C75.2304 162.398 75.4745 163.554 75.9627 164.685C76.4508 165.789 77.1059 166.83 77.9281 167.806C78.7759 168.782 79.7394 169.669 80.8184 170.465C81.8975 171.236 83.0408 171.904 84.2483 172.469C85.4815 173.009 86.7147 173.394 87.948 173.625L86.4835 176.284C85.0962 175.95 83.7345 175.462 82.3985 174.82C81.0625 174.178 79.7908 173.394 78.5832 172.469C77.4014 171.544 76.348 170.504 75.4231 169.348C74.4982 168.166 73.7788 166.894 73.265 165.532C72.7512 164.171 72.4942 162.732 72.4942 161.216V158.518ZM57.9269 183.645H89.528V186.304H57.9269V183.645ZM93.3788 183.992H124.98V186.69H93.3788V183.992ZM107.484 174.974H110.644V185.187H107.484V174.974ZM96.1535 159.482H122.012V162.102H96.1535V159.482ZM96.2306 173.51H121.935V176.053H96.2306V173.51ZM101.549 161.563H104.747V173.934H101.549V161.563ZM113.419 161.563H116.579V173.934H113.419V161.563ZM128.831 183.876H160.432V186.536H128.831V183.876ZM142.974 163.528H145.826V164.299C145.826 166.149 145.453 167.845 144.708 169.386C143.963 170.902 142.948 172.251 141.664 173.433C140.405 174.589 138.94 175.565 137.271 176.362C135.601 177.158 133.828 177.736 131.952 178.096L130.681 175.514C132.35 175.205 133.918 174.717 135.382 174.049C136.872 173.381 138.183 172.559 139.313 171.583C140.469 170.607 141.368 169.502 142.011 168.269C142.653 167.035 142.974 165.712 142.974 164.299V163.528ZM143.398 163.528H146.211V164.299C146.211 165.712 146.532 167.035 147.175 168.269C147.817 169.502 148.703 170.607 149.834 171.583C150.99 172.559 152.3 173.381 153.765 174.049C155.255 174.717 156.835 175.205 158.505 175.514L157.233 178.096C155.358 177.736 153.585 177.158 151.915 176.362C150.271 175.565 148.806 174.589 147.522 173.433C146.237 172.251 145.222 170.902 144.477 169.386C143.758 167.845 143.398 166.149 143.398 164.299V163.528ZM131.76 161.717H157.426V164.338H131.76V161.717ZM143.013 156.938H146.173V162.642H143.013V156.938Z" fill="#4661AC"/>
<path d="M110.012 52C87.2417 52 68.7617 71.4133 68.7617 95.3333C68.7617 119.253 87.2417 138.667 110.012 138.667C132.782 138.667 151.262 119.253 151.262 95.3333C151.262 71.4133 132.782 52 110.012 52ZM114.137 66.3L119.705 62.1833C127.167 64.6124 133.569 69.7402 137.773 76.6567L136.164 82.4633L130.595 84.4567L114.137 72.3667V66.3ZM100.318 62.1833L105.887 66.3V72.3667L89.428 84.4567L83.8592 82.4633L82.2505 76.6567C86.4794 69.7639 92.8714 64.6435 100.318 62.1833ZM89.7167 117.477L85.0142 117.91C79.8433 111.644 77.0014 103.626 77.0117 95.3333C77.0117 94.8133 77.053 94.3367 77.0942 93.8167L81.2192 90.6533L86.9117 92.7333L92.9342 111.54L89.7167 117.477ZM120.324 128.223C117.065 129.35 113.6 130 110.012 130C106.423 130 102.958 129.35 99.6992 128.223L96.853 121.767L99.493 117H120.572L123.212 121.81L120.324 128.223ZM119.375 108.333H100.648L95.0792 90.9133L110.012 79.9067L124.985 90.9133L119.375 108.333ZM135.009 117.91L130.307 117.477L127.048 111.54L133.07 92.7333L138.804 90.6967L142.929 93.86C142.97 94.3367 143.012 94.8133 143.012 95.3333C143.012 103.957 140 111.843 135.009 117.91Z" fill="#4661AC"/>
</svg>
