<svg width="220" height="220" viewBox="0 0 220 220" fill="none" xmlns="http://www.w3.org/2000/svg">
<path d="M0 0H219.238V219.238H0V0Z" fill="#CEE2FE"/>
<path d="M101.323 156.129H104.522V191.006H101.323V156.129ZM91.1109 159.906H94.271C94.271 162.424 93.9627 164.852 93.3461 167.19C92.7551 169.527 91.8174 171.75 90.5328 173.857C89.2482 175.938 87.5782 177.877 85.5228 179.676C83.4675 181.474 80.9754 183.08 78.0465 184.493L76.3508 181.911C79.7165 180.292 82.4912 178.404 84.675 176.246C86.8588 174.088 88.4774 171.686 89.5308 169.039C90.5842 166.367 91.1109 163.49 91.1109 160.407V159.906ZM77.9694 159.906H92.4597V162.488H77.9694V159.906ZM112.882 179.946H115.618C117.75 179.946 119.703 179.92 121.476 179.868C123.248 179.817 124.957 179.714 126.601 179.56C128.271 179.406 129.98 179.175 131.727 178.867L132.035 181.487C130.262 181.795 128.528 182.039 126.833 182.219C125.137 182.373 123.377 182.476 121.553 182.528C119.754 182.579 117.776 182.605 115.618 182.605H112.882V179.946ZM112.882 159.289H129.106V161.948H116.08V180.87H112.882V159.289ZM115.271 169.078H128.335V171.66H115.271V169.078ZM134.964 156.129H138.163V191.006H134.964V156.129ZM137.43 170.118H143.866V172.816H137.43V170.118Z" fill="#4661AC"/>
<path d="M76.84 81.74C74.08 81.74 71.8 82.7 70 84.62C68.2 86.6 67.3 88.97 67.3 91.73C67.3 94.55 68.2 96.89 70 98.75C71.8 100.67 74.08 101.63 76.84 101.63C79.6 101.63 81.88 100.67 83.68 98.75C85.48 96.89 86.38 94.55 86.38 91.73C86.38 88.97 85.48 86.6 83.68 84.62C81.88 82.7 79.6 81.74 76.84 81.74ZM108.393 81.74C105.633 81.74 103.353 82.7 101.553 84.62C99.7527 86.6 98.8527 88.97 98.8527 91.73C98.8527 94.55 99.7527 96.89 101.553 98.75C103.353 100.67 105.633 101.63 108.393 101.63C111.153 101.63 113.433 100.67 115.233 98.75C117.033 96.89 117.933 94.55 117.933 91.73C117.933 88.97 117.033 86.6 115.233 84.62C113.433 82.7 111.153 81.74 108.393 81.74ZM139.945 81.74C137.185 81.74 134.905 82.7 133.105 84.62C131.305 86.6 130.405 88.97 130.405 91.73C130.405 94.55 131.305 96.89 133.105 98.75C134.905 100.67 137.185 101.63 139.945 101.63C142.705 101.63 144.985 100.67 146.785 98.75C148.585 96.89 149.485 94.55 149.485 91.73C149.485 88.97 148.585 86.6 146.785 84.62C144.985 82.7 142.705 81.74 139.945 81.74Z" fill="#4661AC"/>
</svg>
