<svg width="18" height="14" viewBox="0 0 18 14" fill="none" xmlns="http://www.w3.org/2000/svg">
<path d="M17.6243 2.18694C17.5219 1.76346 17.321 1.37727 17.0417 1.06702C16.7625 0.756774 16.4147 0.533349 16.0333 0.419108C14.629 8.5041e-08 9 0 9 0C9 0 3.37098 -8.5041e-08 1.96674 0.416879C1.58509 0.530749 1.23715 0.75405 0.957869 1.06436C0.67859 1.37466 0.477802 1.76105 0.37567 2.18471C-7.66345e-08 3.74522 0 7 0 7C0 7 -7.66345e-08 10.2548 0.37567 11.8131C0.582589 12.6736 1.1933 13.3513 1.96674 13.5809C3.37098 14 9 14 9 14C9 14 14.629 14 16.0333 13.5809C16.8087 13.3513 17.4174 12.6736 17.6243 11.8131C18 10.2548 18 7 18 7C18 7 18 3.74522 17.6243 2.18694ZM7.21205 9.98726V4.01274L11.8728 6.97771L7.21205 9.98726Z" fill="black"/>
</svg>
