<svg width="222" height="36" viewBox="0 0 222 36" fill="none" xmlns="http://www.w3.org/2000/svg">
<path d="M19.5984 11.685C19.4705 10.396 18.9219 9.39453 17.9524 8.68075C16.983 7.96697 15.6673 7.61008 14.0053 7.61008C12.8761 7.61008 11.9226 7.76989 11.1449 8.08949C10.3672 8.39844 9.7706 8.8299 9.35511 9.38388C8.95028 9.93785 8.74787 10.5664 8.74787 11.2695C8.72656 11.8555 8.84908 12.3668 9.11541 12.8036C9.3924 13.2404 9.7706 13.6186 10.25 13.9382C10.7294 14.2472 11.2834 14.5188 11.9119 14.7532C12.5405 14.9769 13.2116 15.1687 13.9254 15.3285L16.8658 16.0316C18.2933 16.3512 19.6037 16.7773 20.7969 17.31C21.9901 17.8427 23.0234 18.4979 23.897 19.2756C24.7706 20.0533 25.4471 20.9695 25.9265 22.0241C26.4165 23.0788 26.6669 24.288 26.6776 25.6516C26.6669 27.6545 26.1555 29.391 25.1435 30.8612C24.142 32.3207 22.6932 33.4553 20.7969 34.2649C18.9112 35.0639 16.6367 35.4634 13.9734 35.4634C11.3313 35.4634 9.03018 35.0586 7.06996 34.2489C5.12038 33.4393 3.59695 32.2408 2.49965 30.6534C1.413 29.0554 0.84304 27.0792 0.789773 24.7248H7.48544C7.56001 25.8221 7.87429 26.7383 8.42827 27.4734C8.9929 28.1978 9.74396 28.7464 10.6815 29.1193C11.6296 29.4815 12.7003 29.6626 13.8935 29.6626C15.0653 29.6626 16.0827 29.4922 16.9457 29.1513C17.8192 28.8104 18.4957 28.3363 18.9751 27.729C19.4545 27.1218 19.6942 26.424 19.6942 25.6357C19.6942 24.9006 19.4759 24.2827 19.0391 23.782C18.6129 23.2812 17.9844 22.8551 17.1534 22.5036C16.3331 22.152 15.3263 21.8324 14.1332 21.5447L10.5696 20.6499C7.81037 19.9787 5.63175 18.9293 4.03374 17.5018C2.43572 16.0742 1.64205 14.1513 1.6527 11.733C1.64205 9.75142 2.16939 8.02024 3.23473 6.53942C4.31072 5.05859 5.78622 3.9027 7.66122 3.07173C9.53622 2.24077 11.6669 1.82528 14.0533 1.82528C16.4822 1.82528 18.6023 2.24077 20.4134 3.07173C22.2351 3.9027 23.652 5.05859 24.6641 6.53942C25.6761 8.02024 26.1982 9.73544 26.2301 11.685H19.5984ZM46.9443 24.549V10.4545H53.7519V35H47.216V30.5415H46.9603C46.4063 31.9798 45.4848 33.1357 44.1958 34.0092C42.9173 34.8828 41.3566 35.3196 39.5136 35.3196C37.873 35.3196 36.4294 34.9467 35.183 34.201C33.9365 33.4553 32.9617 32.3952 32.2586 31.021C31.5661 29.6467 31.2146 28.0007 31.2039 26.0831V10.4545H38.0115V24.8686C38.0221 26.3175 38.411 27.4627 39.178 28.3043C39.945 29.146 40.9731 29.5668 42.2622 29.5668C43.0825 29.5668 43.8495 29.3803 44.5633 29.0075C45.2771 28.6239 45.8524 28.0593 46.2892 27.3136C46.7366 26.5678 46.955 25.6463 46.9443 24.549ZM59.3249 35V2.27273H66.1325V14.5774H66.3402C66.6385 13.9169 67.07 13.2457 67.6346 12.5639C68.2099 11.8714 68.9556 11.2962 69.8718 10.8381C70.7987 10.3693 71.9492 10.1349 73.3235 10.1349C75.1133 10.1349 76.7646 10.6037 78.2773 11.5412C79.7901 12.468 80.9993 13.869 81.9048 15.744C82.8104 17.6083 83.2631 19.9467 83.2631 22.7592C83.2631 25.4972 82.821 27.8089 81.9368 29.6946C81.0632 31.5696 79.87 32.9918 78.3572 33.9613C76.8551 34.9201 75.1719 35.3995 73.3075 35.3995C71.9865 35.3995 70.8626 35.1811 69.9357 34.7443C69.0195 34.3075 68.2685 33.7589 67.6825 33.0984C67.0966 32.4272 66.6491 31.7507 66.3402 31.0689H66.0366V35H59.3249ZM65.9886 22.7273C65.9886 24.1868 66.1911 25.4599 66.5959 26.5465C67.0007 27.6332 67.5866 28.4801 68.3537 29.0874C69.1207 29.6839 70.0529 29.9822 71.1502 29.9822C72.2582 29.9822 73.1957 29.6786 73.9627 29.0714C74.7298 28.4535 75.3104 27.6012 75.7045 26.5146C76.1094 25.4173 76.3118 24.1548 76.3118 22.7273C76.3118 21.3104 76.1147 20.0639 75.7205 18.9879C75.3264 17.9119 74.7457 17.0703 73.9787 16.4631C73.2116 15.8558 72.2688 15.5522 71.1502 15.5522C70.0423 15.5522 69.1048 15.8452 68.3377 16.4311C67.5813 17.017 67.0007 17.848 66.5959 18.924C66.1911 20 65.9886 21.2678 65.9886 22.7273ZM108.228 17.4538L101.996 17.8374C101.889 17.3047 101.66 16.8253 101.309 16.3991C100.957 15.9624 100.494 15.6161 99.9184 15.3604C99.3538 15.0941 98.6773 14.9609 97.8889 14.9609C96.8343 14.9609 95.9447 15.1847 95.2203 15.6321C94.4958 16.0689 94.1336 16.6548 94.1336 17.3899C94.1336 17.9759 94.368 18.4712 94.8367 18.8761C95.3055 19.2809 96.1098 19.6058 97.2497 19.8509L101.692 20.7457C104.079 21.2358 105.858 22.0241 107.03 23.1108C108.201 24.1974 108.787 25.625 108.787 27.3935C108.787 29.0021 108.313 30.4137 107.365 31.6282C106.428 32.8427 105.139 33.7908 103.498 34.4727C101.868 35.1438 99.9877 35.4794 97.857 35.4794C94.6077 35.4794 92.0189 34.8029 90.0906 33.4499C88.173 32.0863 87.0491 30.2326 86.7188 27.8888L93.4145 27.5373C93.6169 28.5281 94.107 29.2844 94.8847 29.8065C95.6624 30.3178 96.6585 30.5735 97.873 30.5735C99.0661 30.5735 100.025 30.3445 100.749 29.8864C101.484 29.4176 101.857 28.8157 101.868 28.0806C101.857 27.4627 101.596 26.9567 101.085 26.5625C100.574 26.1577 99.7852 25.8487 98.7199 25.6357L94.4692 24.7887C92.0722 24.3093 90.2877 23.4783 89.1159 22.2958C87.9546 21.1133 87.374 19.6058 87.374 17.7734C87.374 16.1967 87.8002 14.8384 88.6524 13.6985C89.5154 12.5586 90.7245 11.6797 92.2799 11.0618C93.846 10.4439 95.6784 10.1349 97.7771 10.1349C100.877 10.1349 103.317 10.7901 105.096 12.1005C106.886 13.4109 107.93 15.1953 108.228 17.4538ZM124.164 35.4794C121.65 35.4794 119.487 34.9467 117.676 33.8814C115.876 32.8054 114.491 31.3139 113.521 29.407C112.563 27.5 112.083 25.3054 112.083 22.8232C112.083 20.3089 112.568 18.1037 113.537 16.2074C114.518 14.3004 115.908 12.8143 117.708 11.7489C119.509 10.6729 121.65 10.1349 124.132 10.1349C126.274 10.1349 128.149 10.5238 129.757 11.3015C131.366 12.0792 132.639 13.1712 133.577 14.5774C134.514 15.9837 135.031 17.6349 135.127 19.5312H128.703C128.521 18.3061 128.042 17.3207 127.264 16.5749C126.497 15.8185 125.491 15.4403 124.244 15.4403C123.189 15.4403 122.268 15.728 121.48 16.3033C120.702 16.8679 120.095 17.6935 119.658 18.7802C119.221 19.8668 119.003 21.1825 119.003 22.7273C119.003 24.2933 119.216 25.625 119.642 26.7223C120.079 27.8196 120.691 28.6559 121.48 29.2312C122.268 29.8065 123.189 30.0941 124.244 30.0941C125.022 30.0941 125.72 29.9343 126.338 29.6147C126.966 29.2951 127.483 28.8317 127.888 28.2244C128.303 27.6065 128.575 26.8661 128.703 26.0032H135.127C135.02 27.8782 134.509 29.5295 133.593 30.957C132.687 32.3739 131.435 33.4819 129.837 34.2809C128.239 35.0799 126.348 35.4794 124.164 35.4794ZM139.485 35V10.4545H146.085V14.7372H146.341C146.788 13.2138 147.539 12.0632 148.594 11.2855C149.649 10.4972 150.863 10.103 152.237 10.103C152.578 10.103 152.946 10.1243 153.34 10.1669C153.734 10.2095 154.08 10.2681 154.379 10.3427V16.3832C154.059 16.2873 153.617 16.2021 153.052 16.1275C152.488 16.0529 151.971 16.0156 151.502 16.0156C150.501 16.0156 149.606 16.234 148.818 16.6708C148.04 17.0969 147.422 17.6935 146.964 18.4606C146.516 19.2276 146.293 20.1119 146.293 21.1133V35H139.485ZM157.898 35V10.4545H164.706V35H157.898ZM161.318 7.29048C160.306 7.29048 159.438 6.9549 158.713 6.28373C157.999 5.60192 157.643 4.78693 157.643 3.83878C157.643 2.90128 157.999 2.09695 158.713 1.42578C159.438 0.743962 160.306 0.403052 161.318 0.403052C162.33 0.403052 163.193 0.743962 163.907 1.42578C164.631 2.09695 164.993 2.90128 164.993 3.83878C164.993 4.78693 164.631 5.60192 163.907 6.28373C163.193 6.9549 162.33 7.29048 161.318 7.29048ZM170.287 35V2.27273H177.094V14.5774H177.302C177.6 13.9169 178.032 13.2457 178.597 12.5639C179.172 11.8714 179.918 11.2962 180.834 10.8381C181.761 10.3693 182.911 10.1349 184.285 10.1349C186.075 10.1349 187.726 10.6037 189.239 11.5412C190.752 12.468 191.961 13.869 192.867 15.744C193.772 17.6083 194.225 19.9467 194.225 22.7592C194.225 25.4972 193.783 27.8089 192.899 29.6946C192.025 31.5696 190.832 32.9918 189.319 33.9613C187.817 34.9201 186.134 35.3995 184.269 35.3995C182.948 35.3995 181.824 35.1811 180.898 34.7443C179.981 34.3075 179.23 33.7589 178.644 33.0984C178.059 32.4272 177.611 31.7507 177.302 31.0689H176.998V35H170.287ZM176.951 22.7273C176.951 24.1868 177.153 25.4599 177.558 26.5465C177.963 27.6332 178.549 28.4801 179.316 29.0874C180.083 29.6839 181.015 29.9822 182.112 29.9822C183.22 29.9822 184.158 29.6786 184.925 29.0714C185.692 28.4535 186.272 27.6012 186.666 26.5146C187.071 25.4173 187.274 24.1548 187.274 22.7273C187.274 21.3104 187.077 20.0639 186.682 18.9879C186.288 17.9119 185.708 17.0703 184.941 16.4631C184.174 15.8558 183.231 15.5522 182.112 15.5522C181.004 15.5522 180.067 15.8452 179.3 16.4311C178.543 17.017 177.963 17.848 177.558 18.924C177.153 20 176.951 21.2678 176.951 22.7273ZM209.953 35.4794C207.429 35.4794 205.255 34.968 203.434 33.9453C201.623 32.9119 200.227 31.4524 199.247 29.5668C198.267 27.6705 197.777 25.4279 197.777 22.8391C197.777 20.3143 198.267 18.0984 199.247 16.1914C200.227 14.2844 201.607 12.7983 203.386 11.733C205.175 10.6676 207.274 10.1349 209.682 10.1349C211.301 10.1349 212.809 10.396 214.204 10.918C215.61 11.4293 216.836 12.2017 217.88 13.2351C218.934 14.2685 219.755 15.5682 220.341 17.1342C220.926 18.6896 221.219 20.5114 221.219 22.5994V24.4691H200.493V20.2504H214.811C214.811 19.2702 214.598 18.402 214.172 17.6456C213.746 16.8892 213.155 16.2979 212.398 15.8718C211.653 15.435 210.784 15.2166 209.794 15.2166C208.76 15.2166 207.844 15.4563 207.045 15.9357C206.257 16.4045 205.639 17.0384 205.191 17.8374C204.744 18.6257 204.515 19.5046 204.504 20.4741V24.4851C204.504 25.6996 204.728 26.7489 205.175 27.6332C205.634 28.5174 206.278 29.1992 207.109 29.6786C207.94 30.158 208.925 30.3977 210.065 30.3977C210.822 30.3977 211.514 30.2912 212.143 30.0781C212.771 29.8651 213.309 29.5455 213.757 29.1193C214.204 28.6932 214.545 28.1712 214.779 27.5533L221.076 27.9688C220.756 29.4815 220.101 30.8026 219.11 31.9318C218.13 33.0504 216.862 33.924 215.307 34.5526C213.762 35.1705 211.978 35.4794 209.953 35.4794Z" fill="black"/>
</svg>
