<svg width="18" height="14" viewBox="0 0 18 14" fill="none" xmlns="http://www.w3.org/2000/svg">
<path d="M18 6.93967C18 6.89227 18 6.83841 17.998 6.77593C17.996 6.60142 17.992 6.40536 17.9879 6.19637C17.9719 5.59526 17.9437 4.99631 17.8996 4.43182C17.8393 3.65405 17.7509 3.00554 17.6304 2.51862C17.5032 2.01048 17.2538 1.54704 16.9073 1.17463C16.5607 0.80222 16.1291 0.533879 15.6556 0.39643C15.0871 0.232687 13.9741 0.131425 12.4071 0.0689442C11.6618 0.0387811 10.8643 0.0193904 10.0667 0.0086179C9.7875 0.00430889 9.52835 0.00215451 9.29531 0H8.70469C8.47165 0.00215451 8.2125 0.00430889 7.93326 0.0086179C7.13571 0.0193904 6.33817 0.0387811 5.59286 0.0689442C4.02589 0.133579 2.91094 0.234841 2.34442 0.39643C1.87072 0.533541 1.43893 0.801769 1.09234 1.17423C0.745752 1.5467 0.496527 2.01031 0.369643 2.51862C0.247098 3.00554 0.160714 3.65405 0.100446 4.43182C0.05625 4.99631 0.028125 5.59526 0.0120535 6.19637C0.00602675 6.40536 0.00401783 6.60142 0.0020089 6.77593C0.0020089 6.83841 0 6.89227 0 6.93967V7.06033C0 7.10772 -3.06838e-08 7.16159 0.0020089 7.22407C0.00401783 7.39858 0.00803568 7.59464 0.0120535 7.80363C0.028125 8.40474 0.05625 9.00369 0.100446 9.56817C0.160714 10.346 0.249107 10.9945 0.369643 11.4814C0.626786 12.5134 1.38214 13.3278 2.34442 13.6036C2.91094 13.7673 4.02589 13.8686 5.59286 13.9311C6.33817 13.9612 7.13571 13.9806 7.93326 13.9914C8.2125 13.9957 8.47165 13.9978 8.70469 14H9.29531C9.52835 13.9978 9.7875 13.9957 10.0667 13.9914C10.8643 13.9806 11.6618 13.9612 12.4071 13.9311C13.9741 13.8664 15.0891 13.7652 15.6556 13.6036C16.6179 13.3278 17.3732 12.5155 17.6304 11.4814C17.7529 10.9945 17.8393 10.346 17.8996 9.56817C17.9437 9.00369 17.9719 8.40474 17.9879 7.80363C17.994 7.59464 17.996 7.39858 17.998 7.22407C17.998 7.16159 18 7.10772 18 7.06033V6.93967ZM16.5536 7.05171C16.5536 7.09695 16.5536 7.14651 16.5516 7.20468C16.5496 7.37273 16.5455 7.55802 16.5415 7.75839C16.5275 8.33149 16.4993 8.90458 16.4571 9.43675C16.4029 10.1305 16.3266 10.6993 16.2321 11.0806C16.1076 11.5783 15.742 11.9726 15.2799 12.104C14.858 12.2247 13.7953 12.3216 12.3509 12.3798C11.6196 12.41 10.8321 12.4294 10.0467 12.4401C9.77143 12.4444 9.51629 12.4466 9.28728 12.4466H8.71272L7.95335 12.4401C7.16786 12.4294 6.38237 12.41 5.64911 12.3798C4.20469 12.3195 3.13996 12.2247 2.72009 12.104C2.25804 11.9705 1.89241 11.5783 1.76786 11.0806C1.67344 10.6993 1.5971 10.1305 1.54286 9.43675C1.50067 8.90458 1.47455 8.33149 1.45848 7.75839C1.45246 7.55802 1.45045 7.37058 1.44844 7.20468C1.44844 7.14651 1.44643 7.0948 1.44643 7.05171V6.94829C1.44643 6.90305 1.44643 6.85349 1.44844 6.79532C1.45045 6.62727 1.45446 6.44198 1.45848 6.24161C1.47254 5.66851 1.50067 5.09541 1.54286 4.56325C1.5971 3.8695 1.67344 3.30071 1.76786 2.91936C1.89241 2.42167 2.25804 2.02739 2.72009 1.89597C3.14196 1.77532 4.20469 1.67836 5.64911 1.62019C6.38036 1.59003 7.16786 1.57064 7.95335 1.55986C8.22857 1.55556 8.48371 1.5534 8.71272 1.5534H9.28728L10.0467 1.55986C10.8321 1.57064 11.6176 1.59003 12.3509 1.62019C13.7953 1.68052 14.86 1.77532 15.2799 1.89597C15.742 2.02955 16.1076 2.42167 16.2321 2.91936C16.3266 3.30071 16.4029 3.8695 16.4571 4.56325C16.4993 5.09541 16.5254 5.66851 16.5415 6.24161C16.5475 6.44198 16.5496 6.62942 16.5516 6.79532C16.5516 6.85349 16.5536 6.9052 16.5536 6.94829V7.05171ZM7.21205 9.88704L11.8728 6.97845L7.21205 4.11296V9.88704Z" fill="black"/>
</svg>
