<svg width="447" height="70" viewBox="0 0 447 70" fill="none" xmlns="http://www.w3.org/2000/svg">
<path d="M36.552 25.0831C36.3857 23.0037 35.6059 21.3818 34.2127 20.2173C32.8403 19.0529 30.7505 18.4706 27.9433 18.4706C26.155 18.4706 24.6891 18.689 23.5454 19.1256C22.4225 19.5415 21.5908 20.1134 21.0501 20.8411C20.5095 21.5689 20.2288 22.4007 20.208 23.3364C20.1664 24.1058 20.3015 24.8024 20.6135 25.4262C20.9462 26.0292 21.466 26.5803 22.173 27.0793C22.88 27.5576 23.7845 27.9943 24.8866 28.3894C25.9887 28.7844 27.2987 29.1379 28.8167 29.4499L34.0568 30.5727C37.5917 31.3213 40.6173 32.309 43.1333 33.5359C45.6494 34.7627 47.708 36.2079 49.3091 37.8714C50.9103 39.5141 52.0851 41.3648 52.8337 43.4234C53.6031 45.482 53.9982 47.7278 54.019 50.1607C53.9982 54.361 52.9481 57.9168 50.8687 60.828C48.7893 63.7391 45.8157 65.9537 41.9481 67.4716C38.1012 68.9896 33.4745 69.7486 28.0681 69.7486C22.5161 69.7486 17.6711 68.9272 13.5331 67.2845C9.41589 65.6418 6.21362 63.1153 3.92628 59.7051C1.65974 56.2741 0.516071 51.8866 0.495277 46.5425H16.9641C17.0681 48.4971 17.5567 50.1399 18.4301 51.4707C19.3034 52.8015 20.5303 53.81 22.1106 54.4962C23.7118 55.1824 25.6144 55.5255 27.8186 55.5255C29.6692 55.5255 31.2184 55.2968 32.466 54.8393C33.7137 54.3818 34.6598 53.7476 35.3044 52.9367C35.949 52.1257 36.2817 51.2004 36.3025 50.1607C36.2817 49.1833 35.9594 48.3308 35.3356 47.603C34.7326 46.8544 33.7344 46.189 32.3413 45.6068C30.9481 45.0038 29.0662 44.4423 26.6957 43.9225L20.3327 42.5501C14.6768 41.3232 10.2165 39.275 6.95181 36.4054C3.70795 33.5151 2.09641 29.5746 2.11721 24.5841C2.09641 20.5292 3.1777 16.9839 5.36107 13.9479C7.56523 10.8912 10.6115 8.51032 14.5 6.80521C18.4093 5.10011 22.8904 4.24756 27.9433 4.24756C33.1002 4.24756 37.5605 5.11051 41.3242 6.83641C45.088 8.56231 47.9887 10.9952 50.0265 14.1351C52.0851 17.2542 53.1248 20.9035 53.1456 25.0831H36.552ZM91.9316 48.0397V21.0907H109.149V69H92.8049V59.8922H92.3059C91.2662 62.949 89.4467 65.3403 86.8475 67.0662C84.2482 68.7713 81.1603 69.6238 77.5837 69.6238C74.2359 69.6238 71.304 68.8544 68.7879 67.3157C66.2926 65.7769 64.3484 63.6559 62.9552 60.9527C61.5828 58.2495 60.8862 55.1512 60.8654 51.6578V21.0907H78.0828V48.0397C78.1036 50.4102 78.7066 52.2712 79.8919 53.6229C81.0979 54.9745 82.7822 55.6503 84.9448 55.6503C86.3796 55.6503 87.6168 55.3488 88.6565 54.7457C89.717 54.1219 90.528 53.2486 91.0894 52.1257C91.6717 50.982 91.9524 49.62 91.9316 48.0397ZM117.656 69V5.1209H134.874V29.4499H135.123C135.747 27.8279 136.662 26.3412 137.868 24.9895C139.074 23.6171 140.571 22.5255 142.36 21.7145C144.148 20.8827 146.227 20.4669 148.598 20.4669C151.758 20.4669 154.763 21.309 157.612 22.9933C160.482 24.6776 162.81 27.3289 164.599 30.947C166.408 34.5652 167.312 39.2646 167.312 45.0453C167.312 50.5765 166.449 55.1616 164.724 58.8006C163.018 62.4395 160.731 65.1531 157.861 66.9414C155.013 68.7297 151.883 69.6238 148.473 69.6238C146.227 69.6238 144.221 69.2599 142.453 68.5321C140.706 67.7836 139.209 66.775 137.962 65.5066C136.735 64.2174 135.789 62.7618 135.123 61.1399H134.749V69H117.656ZM134.499 45.0453C134.499 47.3743 134.801 49.3913 135.404 51.0964C136.028 52.7807 136.901 54.0907 138.024 55.0264C139.168 55.9414 140.53 56.3989 142.11 56.3989C143.69 56.3989 145.032 55.9518 146.134 55.0576C147.257 54.1427 148.109 52.8431 148.691 51.1588C149.294 49.4537 149.596 47.4159 149.596 45.0453C149.596 42.6748 149.294 40.6474 148.691 38.9631C148.109 37.258 147.257 35.9584 146.134 35.0642C145.032 34.1493 143.69 33.6918 142.11 33.6918C140.53 33.6918 139.168 34.1493 138.024 35.0642C136.901 35.9584 136.028 37.258 135.404 38.9631C134.801 40.6474 134.499 42.6748 134.499 45.0453ZM218.31 36.6862H202.465C202.381 35.7088 202.038 34.8667 201.435 34.1597C200.832 33.4527 200.052 32.9121 199.096 32.5378C198.16 32.1427 197.121 31.9451 195.977 31.9451C194.5 31.9451 193.232 32.2155 192.172 32.7561C191.111 33.2967 190.591 34.0661 190.612 35.0642C190.591 35.7712 190.893 36.4262 191.517 37.0293C192.161 37.6323 193.398 38.1002 195.228 38.4329L204.96 40.1795C209.867 41.0737 213.517 42.5813 215.908 44.7022C218.32 46.8024 219.536 49.62 219.557 53.155C219.536 56.5652 218.518 59.5283 216.501 62.0444C214.504 64.5397 211.77 66.4735 208.297 67.8459C204.845 69.1975 200.905 69.8733 196.476 69.8733C189.156 69.8733 183.428 68.3762 179.29 65.3818C175.172 62.3875 172.875 58.4367 172.396 53.5293H189.489C189.718 55.0472 190.466 56.2221 191.735 57.0539C193.024 57.8648 194.646 58.2703 196.601 58.2703C198.181 58.2703 199.481 58 200.5 57.4593C201.539 56.9187 202.069 56.1493 202.09 55.1512C202.069 54.2363 201.612 53.5085 200.718 52.9678C199.845 52.4272 198.472 51.9905 196.601 51.6578L188.117 50.1607C183.23 49.3081 179.57 47.6862 177.138 45.2949C174.705 42.9036 173.499 39.8261 173.519 36.0623C173.499 32.7353 174.372 29.9177 176.139 27.6096C177.928 25.2807 180.475 23.5132 183.781 22.3071C187.108 21.0803 191.049 20.4669 195.603 20.4669C202.527 20.4669 207.985 21.9016 211.978 24.7712C215.991 27.6408 218.102 31.6124 218.31 36.6862ZM249.235 69.8733C244.037 69.8733 239.587 68.844 235.886 66.7854C232.184 64.706 229.346 61.8157 227.371 58.1144C225.395 54.3922 224.407 50.0775 224.407 45.1701C224.407 40.2627 225.395 35.9584 227.371 32.257C229.346 28.5349 232.184 25.6446 235.886 23.586C239.587 21.5066 244.037 20.4669 249.235 20.4669C253.935 20.4669 258 21.3194 261.431 23.0245C264.883 24.7088 267.555 27.1001 269.447 30.1984C271.339 33.2759 272.296 36.8941 272.317 41.0529H256.347C256.118 38.5368 255.39 36.6238 254.164 35.3138C252.958 33.9829 251.398 33.3175 249.485 33.3175C247.988 33.3175 246.678 33.7542 245.555 34.6276C244.432 35.4801 243.559 36.7797 242.935 38.5264C242.311 40.2523 241.999 42.4253 241.999 45.0453C241.999 47.6654 242.311 49.8487 242.935 51.5954C243.559 53.3213 244.432 54.621 245.555 55.4943C246.678 56.3469 247.988 56.7731 249.485 56.7731C250.753 56.7731 251.876 56.482 252.854 55.8998C253.831 55.2968 254.621 54.4234 255.224 53.2798C255.848 52.1153 256.222 50.7013 256.347 49.0378H272.317C272.254 53.259 271.287 56.9395 269.416 60.0794C267.545 63.1985 264.893 65.6106 261.462 67.3157C258.052 69.0208 253.976 69.8733 249.235 69.8733ZM279.42 69V21.0907H296.139V30.1984H296.638C297.511 26.8298 298.894 24.3657 300.786 22.8062C302.699 21.2466 304.935 20.4669 307.492 20.4669C308.241 20.4669 308.979 20.5292 309.707 20.654C310.455 20.758 311.173 20.9139 311.859 21.1219V35.8128C311.007 35.5217 309.956 35.3034 308.709 35.1578C307.461 35.0122 306.39 34.9395 305.496 34.9395C303.812 34.9395 302.294 35.3242 300.942 36.0935C299.611 36.8421 298.561 37.9026 297.792 39.275C297.023 40.6266 296.638 42.2174 296.638 44.0472V69H279.42ZM317.505 69V21.0907H334.722V69H317.505ZM326.113 16.1001C323.784 16.1001 321.788 15.3307 320.125 13.792C318.461 12.2532 317.629 10.4026 317.629 8.24C317.629 6.07743 318.461 4.22676 320.125 2.68801C321.788 1.14925 323.784 0.379879 326.113 0.379879C328.463 0.379879 330.459 1.14925 332.102 2.68801C333.766 4.22676 334.597 6.07743 334.597 8.24C334.597 10.4026 333.766 12.2532 332.102 13.792C330.459 15.3307 328.463 16.1001 326.113 16.1001ZM343.245 69V5.1209H360.462V29.4499H360.712C361.336 27.8279 362.251 26.3412 363.457 24.9895C364.663 23.6171 366.16 22.5255 367.948 21.7145C369.737 20.8827 371.816 20.4669 374.186 20.4669C377.347 20.4669 380.352 21.309 383.201 22.9933C386.07 24.6776 388.399 27.3289 390.187 30.947C391.996 34.5652 392.901 39.2646 392.901 45.0453C392.901 50.5765 392.038 55.1616 390.312 58.8006C388.607 62.4395 386.32 65.1531 383.45 66.9414C380.601 68.7297 377.472 69.6238 374.062 69.6238C371.816 69.6238 369.809 69.2599 368.042 68.5321C366.295 67.7836 364.798 66.775 363.55 65.5066C362.323 64.2174 361.377 62.7618 360.712 61.1399H360.338V69H343.245ZM360.088 45.0453C360.088 47.3743 360.39 49.3913 360.993 51.0964C361.616 52.7807 362.49 54.0907 363.613 55.0264C364.756 55.9414 366.118 56.3989 367.699 56.3989C369.279 56.3989 370.62 55.9518 371.722 55.0576C372.845 54.1427 373.698 52.8431 374.28 51.1588C374.883 49.4537 375.185 47.4159 375.185 45.0453C375.185 42.6748 374.883 40.6474 374.28 38.9631C373.698 37.258 372.845 35.9584 371.722 35.0642C370.62 34.1493 369.279 33.6918 367.699 33.6918C366.118 33.6918 364.756 34.1493 363.613 35.0642C362.49 35.9584 361.616 37.258 360.993 38.9631C360.39 40.6474 360.088 42.6748 360.088 45.0453ZM423.063 69.8733C417.947 69.8733 413.539 68.896 409.838 66.9414C406.157 64.966 403.319 62.138 401.323 58.4575C399.347 54.7561 398.359 50.327 398.359 45.1701C398.359 40.2211 399.358 35.896 401.354 32.1947C403.35 28.4933 406.168 25.6134 409.807 23.5548C413.445 21.4962 417.739 20.4669 422.688 20.4669C426.307 20.4669 429.582 21.0283 432.514 22.1512C435.445 23.274 437.951 24.9064 440.031 27.0482C442.11 29.1691 443.711 31.7476 444.834 34.7835C445.957 37.8194 446.518 41.24 446.518 45.0453V49.0378H403.724V39.5557H430.673C430.652 38.1833 430.299 36.9773 429.613 35.9376C428.947 34.8771 428.043 34.0557 426.899 33.4735C425.776 32.8705 424.497 32.569 423.063 32.569C421.669 32.569 420.391 32.8705 419.226 33.4735C418.062 34.0557 417.126 34.8667 416.419 35.9064C415.733 36.9461 415.369 38.1625 415.327 39.5557V49.7864C415.327 51.3251 415.65 52.6975 416.294 53.9036C416.939 55.1096 417.864 56.0558 419.07 56.742C420.276 57.4282 421.732 57.7713 423.437 57.7713C424.622 57.7713 425.704 57.6049 426.681 57.2722C427.679 56.9395 428.531 56.4612 429.238 55.8374C429.945 55.1928 430.465 54.4234 430.798 53.5293H446.518C445.978 56.8563 444.699 59.7467 442.682 62.2004C440.665 64.6333 437.993 66.5255 434.666 67.8771C431.359 69.2079 427.492 69.8733 423.063 69.8733Z" fill="black"/>
</svg>
