<svg width="431" height="76" viewBox="0 0 431 76" fill="none" xmlns="http://www.w3.org/2000/svg">
<path opacity="0.9" d="M28 75.3125C23.5 75.3125 18.8125 74.5469 13.9375 73.0156C9.0625 71.4531 4.6875 69.3438 0.8125 66.6875L11.7812 51.5C14.3125 53.25 16.9844 54.5938 19.7969 55.5312C22.6094 56.4688 25.3438 56.9375 28 56.9375C30.25 56.9375 32 56.6094 33.25 55.9531C34.5 55.2969 35.125 54.375 35.125 53.1875C35.125 52.5625 34.8906 52.0312 34.4219 51.5938C33.9844 51.125 33.2188 50.6875 32.125 50.2812C31.0625 49.8438 29.5 49.375 27.4375 48.875L24.4375 48.125C17.6562 46.4375 12.4219 43.7656 8.73438 40.1094C5.07812 36.4219 3.25 32.0312 3.25 26.9375C3.25 22.7812 4.4375 19.0156 6.8125 15.6406C9.1875 12.2656 12.4531 9.625 16.6094 7.71875C20.7656 5.78125 25.4375 4.8125 30.625 4.8125C34.7812 4.8125 38.9219 5.45313 43.0469 6.73438C47.2031 8.01562 51.1875 9.875 55 12.3125L44.5 27.7812C41.9375 26.1875 39.5312 25.0312 37.2812 24.3125C35.0625 23.5625 32.8438 23.1875 30.625 23.1875C28.375 23.1875 26.5 23.5312 25 24.2188C23.5 24.875 22.75 25.7188 22.75 26.75C22.75 27.5 23.2344 28.1562 24.2031 28.7188C25.2031 29.2812 26.8438 29.8438 29.125 30.4062L32.125 31.1562C39.7188 33.0938 45.3594 35.8281 49.0469 39.3594C52.7656 42.8594 54.625 47.2812 54.625 52.625C54.625 56.9375 53.4844 60.8281 51.2031 64.2969C48.9219 67.7344 45.75 70.4375 41.6875 72.4062C37.6562 74.3438 33.0938 75.3125 28 75.3125ZM115.375 74H96.625V66.6875H96.2969C94.8281 69.4062 92.7656 71.5312 90.1094 73.0625C87.4531 74.5625 84.4062 75.3125 80.9688 75.3125C77.2812 75.3125 74.0781 74.4219 71.3594 72.6406C68.6406 70.8594 66.5469 68.3281 65.0781 65.0469C63.6094 61.7344 62.875 57.8438 62.875 53.375V25.625H81.625V50C81.625 52.5938 82.2969 54.6562 83.6406 56.1875C85.0156 57.6875 86.8438 58.4375 89.125 58.4375C94.125 58.4375 96.625 54.625 96.625 47V25.625H115.375V74ZM125.5 6.125H144.25V31.25H144.625C147.375 26.625 151.688 24.3125 157.562 24.3125C161.844 24.3125 165.656 25.4219 169 27.6406C172.375 29.8594 175 32.9062 176.875 36.7812C178.75 40.6562 179.688 45 179.688 49.8125C179.688 54.625 178.75 58.9688 176.875 62.8438C175 66.7188 172.375 69.7656 169 71.9844C165.656 74.2031 161.844 75.3125 157.562 75.3125C151.688 75.3125 147.375 73 144.625 68.375H144.25V74H125.5V6.125ZM152.406 58.4375C154.031 58.4375 155.484 58.0781 156.766 57.3594C158.078 56.6094 159.094 55.5781 159.812 54.2656C160.562 52.9531 160.938 51.4688 160.938 49.8125C160.938 48.1562 160.562 46.6719 159.812 45.3594C159.094 44.0469 158.078 43.0312 156.766 42.3125C155.484 41.5625 154.031 41.1875 152.406 41.1875C150.781 41.1875 149.312 41.5625 148 42.3125C146.719 43.0312 145.703 44.0469 144.953 45.3594C144.234 46.6719 143.875 48.1562 143.875 49.8125C143.875 51.4688 144.234 52.9531 144.953 54.2656C145.703 55.5781 146.719 56.6094 148 57.3594C149.312 58.0781 150.781 58.4375 152.406 58.4375ZM204.812 75.3125C200.875 75.3125 197.094 74.7344 193.469 73.5781C189.875 72.4219 186.906 70.8438 184.562 68.8438L193 57.125C197.219 59.75 201.156 61.0625 204.812 61.0625C207.562 61.0625 208.938 60.4375 208.938 59.1875C208.938 58.625 208.625 58.1719 208 57.8281C207.375 57.4531 206.312 57.0938 204.812 56.75L202.656 56.2812C197.281 55.125 193.172 53.25 190.328 50.6562C187.484 48.0312 186.062 44.8438 186.062 41.0938C186.062 37.9062 187.016 35.0469 188.922 32.5156C190.859 29.9531 193.516 27.9531 196.891 26.5156C200.266 25.0469 204.031 24.3125 208.188 24.3125C214.469 24.3125 220.719 26.125 226.938 29.75L218.781 41.9375C215.5 39.6875 211.969 38.5625 208.188 38.5625C206.781 38.5625 205.703 38.7188 204.953 39.0312C204.234 39.3438 203.875 39.7812 203.875 40.3438C203.875 40.75 204.078 41.0938 204.484 41.375C204.891 41.625 205.594 41.875 206.594 42.125L208.938 42.6875C215.031 44.1562 219.516 46.1719 222.391 48.7344C225.297 51.2656 226.75 54.5 226.75 58.4375C226.75 61.75 225.828 64.6875 223.984 67.25C222.172 69.7812 219.594 71.7656 216.25 73.2031C212.938 74.6094 209.125 75.3125 204.812 75.3125ZM258.156 75.3125C253.25 75.3125 248.766 74.2031 244.703 71.9844C240.672 69.7344 237.484 66.6719 235.141 62.7969C232.797 58.8906 231.625 54.5625 231.625 49.8125C231.625 45.0625 232.797 40.75 235.141 36.875C237.484 32.9688 240.672 29.9062 244.703 27.6875C248.766 25.4375 253.25 24.3125 258.156 24.3125C262 24.3125 265.578 25 268.891 26.375C272.234 27.7188 275.109 29.625 277.516 32.0938C279.953 34.5625 281.781 37.4062 283 40.625L266.312 46.25C265.688 44.6875 264.641 43.4531 263.172 42.5469C261.734 41.6406 260.062 41.1875 258.156 41.1875C256.469 41.1875 254.938 41.5625 253.562 42.3125C252.219 43.0312 251.156 44.0469 250.375 45.3594C249.625 46.6719 249.25 48.1562 249.25 49.8125C249.25 51.4688 249.625 52.9531 250.375 54.2656C251.156 55.5781 252.219 56.6094 253.562 57.3594C254.938 58.0781 256.469 58.4375 258.156 58.4375C260.062 58.4375 261.734 57.9844 263.172 57.0781C264.641 56.1719 265.688 54.9375 266.312 53.375L283 59C281.781 62.2188 279.953 65.0625 277.516 67.5312C275.109 70 272.234 71.9219 268.891 73.2969C265.578 74.6406 262 75.3125 258.156 75.3125ZM290.5 25.625H309.25V74H290.5V25.625ZM299.875 21.5C297.906 21.5 296.109 21.0625 294.484 20.1875C292.859 19.2812 291.578 18.0469 290.641 16.4844C289.734 14.8906 289.281 13.125 289.281 11.1875C289.281 9.25 289.734 7.5 290.641 5.9375C291.578 4.34375 292.859 3.10938 294.484 2.23438C296.109 1.32813 297.906 0.875 299.875 0.875C301.844 0.875 303.641 1.32813 305.266 2.23438C306.891 3.10938 308.156 4.34375 309.062 5.9375C310 7.5 310.469 9.25 310.469 11.1875C310.469 13.125 310 14.8906 309.062 16.4844C308.156 18.0469 306.891 19.2812 305.266 20.1875C303.641 21.0625 301.844 21.5 299.875 21.5ZM319.375 6.125H338.125V31.25H338.5C341.25 26.625 345.562 24.3125 351.438 24.3125C355.719 24.3125 359.531 25.4219 362.875 27.6406C366.25 29.8594 368.875 32.9062 370.75 36.7812C372.625 40.6562 373.562 45 373.562 49.8125C373.562 54.625 372.625 58.9688 370.75 62.8438C368.875 66.7188 366.25 69.7656 362.875 71.9844C359.531 74.2031 355.719 75.3125 351.438 75.3125C345.562 75.3125 341.25 73 338.5 68.375H338.125V74H319.375V6.125ZM346.281 58.4375C347.906 58.4375 349.359 58.0781 350.641 57.3594C351.953 56.6094 352.969 55.5781 353.688 54.2656C354.438 52.9531 354.812 51.4688 354.812 49.8125C354.812 48.1562 354.438 46.6719 353.688 45.3594C352.969 44.0469 351.953 43.0312 350.641 42.3125C349.359 41.5625 347.906 41.1875 346.281 41.1875C344.656 41.1875 343.188 41.5625 341.875 42.3125C340.594 43.0312 339.578 44.0469 338.828 45.3594C338.109 46.6719 337.75 48.1562 337.75 49.8125C337.75 51.4688 338.109 52.9531 338.828 54.2656C339.578 55.5781 340.594 56.6094 341.875 57.3594C343.188 58.0781 344.656 58.4375 346.281 58.4375ZM405.719 75.3125C400.219 75.3125 395.406 74.25 391.281 72.125C387.188 70 384.016 67.0156 381.766 63.1719C379.547 59.3281 378.438 54.875 378.438 49.8125C378.438 44.8125 379.562 40.375 381.812 36.5C384.094 32.625 387.25 29.625 391.281 27.5C395.312 25.375 399.875 24.3125 404.969 24.3125C410.031 24.3125 414.516 25.375 418.422 27.5C422.328 29.625 425.359 32.625 427.516 36.5C429.672 40.3438 430.75 44.7812 430.75 49.8125C430.75 51.3438 430.625 52.9062 430.375 54.5H396.906C397.219 56.4688 398.188 58.0625 399.812 59.2812C401.438 60.4688 403.406 61.0625 405.719 61.0625C407.375 61.0625 408.781 60.7344 409.938 60.0781C411.094 59.4219 411.969 58.5 412.562 57.3125L428.969 62.8438C426.906 66.7812 423.891 69.8438 419.922 72.0312C415.953 74.2188 411.219 75.3125 405.719 75.3125ZM412.375 44.375C412.25 42.6875 411.516 41.2969 410.172 40.2031C408.859 39.1094 407.125 38.5625 404.969 38.5625C402.875 38.5625 401.078 39.0938 399.578 40.1562C398.109 41.1875 397.219 42.5938 396.906 44.375H412.375Z" fill="#607ABB"/>
</svg>
