<svg width="81" height="43" viewBox="0 0 81 43" fill="none" xmlns="http://www.w3.org/2000/svg">
<path d="M35.2793 4.94336C35.2793 7.77539 35.2142 10.2819 35.084 12.4629C34.9538 14.6439 34.6283 17.1178 34.1074 19.8848H40.4062V23.6934H22.6816V42.1504H17.9941V23.6934H0.513672V19.8848H29.4199C29.9245 17.4108 30.2581 15.124 30.4209 13.0244C30.5999 10.9085 30.6895 8.7194 30.6895 6.45703V4.94336V4.89453H5.39648V1.13477H35.2793V4.94336ZM80.1191 23.7422H40.2266V20.0312H57.8535V15.1973H45.207V0.158203H75.2363V3.91797H49.8457V11.4375H75.5781V15.1973H62.4922V20.0312H80.1191V23.7422ZM75.2852 42.3945H70.6465V31.3594H44.6211V27.5996H75.2852V42.3945Z" fill="black"/>
</svg>
