<svg width="210" height="45" viewBox="0 0 210 45" fill="none" xmlns="http://www.w3.org/2000/svg">
<path d="M14.18 44V4.7H0.86V0.0199976H33.08V4.7H19.76V44H14.18ZM49.0091 44.78C46.0891 44.78 43.4491 44.1 41.0891 42.74C38.7291 41.38 36.8491 39.44 35.4491 36.92C34.0891 34.36 33.4091 31.3 33.4091 27.74C33.4091 25.06 33.8091 22.68 34.6091 20.6C35.4091 18.48 36.4891 16.68 37.8491 15.2C39.2491 13.68 40.8291 12.54 42.5891 11.78C44.3491 10.98 46.1491 10.58 47.9891 10.58C50.7891 10.58 53.1491 11.2 55.0691 12.44C56.9891 13.68 58.4491 15.46 59.4491 17.78C60.4891 20.06 61.0091 22.76 61.0091 25.88C61.0091 26.48 60.9891 27.04 60.9491 27.56C60.9091 28.08 60.8491 28.56 60.7691 29H38.8091C38.9291 31.32 39.4491 33.34 40.3691 35.06C41.3291 36.74 42.5891 38.06 44.1491 39.02C45.7091 39.94 47.5291 40.4 49.6091 40.4C51.2091 40.4 52.6491 40.18 53.9291 39.74C55.2491 39.26 56.5291 38.62 57.7691 37.82L59.6891 41.48C58.2891 42.4 56.7091 43.18 54.9491 43.82C53.1891 44.46 51.2091 44.78 49.0091 44.78ZM38.7491 25.1H56.2091C56.2091 21.82 55.4891 19.32 54.0491 17.6C52.6491 15.84 50.6691 14.96 48.1091 14.96C46.5891 14.96 45.1491 15.36 43.7891 16.16C42.4691 16.96 41.3491 18.1 40.4291 19.58C39.5491 21.06 38.9891 22.9 38.7491 25.1ZM75.4184 44.78C73.6184 44.78 71.9984 44.42 70.5584 43.7C69.1184 42.98 67.9784 41.94 67.1384 40.58C66.3384 39.18 65.9384 37.5 65.9384 35.54C65.9384 31.98 67.5184 29.26 70.6784 27.38C73.8784 25.46 78.9584 24.12 85.9184 23.36C85.9184 21.96 85.7184 20.64 85.3184 19.4C84.9584 18.12 84.2984 17.1 83.3384 16.34C82.3784 15.54 80.9984 15.14 79.1984 15.14C77.3184 15.14 75.5384 15.52 73.8584 16.28C72.2184 17 70.7384 17.78 69.4184 18.62L67.3184 14.84C68.3184 14.2 69.4784 13.56 70.7984 12.92C72.1184 12.24 73.5584 11.68 75.1184 11.24C76.6784 10.8 78.3384 10.58 80.0984 10.58C82.7384 10.58 84.8784 11.14 86.5184 12.26C88.1984 13.38 89.4184 14.94 90.1784 16.94C90.9784 18.9 91.3784 21.24 91.3784 23.96V44H86.8784L86.3984 40.1H86.2184C84.6984 41.38 83.0184 42.48 81.1784 43.4C79.3784 44.32 77.4584 44.78 75.4184 44.78ZM76.9784 40.34C78.5384 40.34 80.0184 39.98 81.4184 39.26C82.8584 38.54 84.3584 37.48 85.9184 36.08V27.02C82.2784 27.42 79.3784 28 77.2184 28.76C75.0584 29.48 73.5184 30.38 72.5984 31.46C71.6784 32.5 71.2184 33.74 71.2184 35.18C71.2184 37.06 71.7784 38.4 72.8984 39.2C74.0184 39.96 75.3784 40.34 76.9784 40.34ZM101.727 44V11.42H106.227L106.767 16.16H106.887C108.327 14.6 109.887 13.28 111.567 12.2C113.287 11.12 115.107 10.58 117.027 10.58C119.547 10.58 121.507 11.14 122.907 12.26C124.307 13.38 125.347 14.9 126.027 16.82C127.747 14.98 129.467 13.48 131.187 12.32C132.947 11.16 134.827 10.58 136.827 10.58C140.147 10.58 142.607 11.68 144.207 13.88C145.847 16.04 146.667 19.2 146.667 23.36V44H141.207V24.08C141.207 21 140.707 18.78 139.707 17.42C138.747 16.06 137.227 15.38 135.147 15.38C133.907 15.38 132.607 15.8 131.247 16.64C129.927 17.44 128.487 18.68 126.927 20.36V44H121.467V24.08C121.467 21 120.967 18.78 119.967 17.42C119.007 16.06 117.487 15.38 115.407 15.38C114.167 15.38 112.867 15.8 111.507 16.64C110.147 17.44 108.727 18.68 107.247 20.36V44H101.727ZM154.514 29.3V25.1H169.934V29.3H154.514ZM178.615 44V0.0199976H184.255L200.335 27.74L205.075 36.8H205.375C205.175 34.6 204.995 32.3 204.835 29.9C204.675 27.5 204.595 25.16 204.595 22.88V0.0199976H209.875V44H204.175L188.155 16.22L183.415 7.22H183.175C183.295 9.42 183.435 11.68 183.595 14C183.755 16.28 183.835 18.58 183.835 20.9V44H178.615Z" fill="white"/>
</svg>
