<svg width="551" height="95" viewBox="0 0 551 95" fill="none" xmlns="http://www.w3.org/2000/svg">
<path opacity="0.9" d="M0.872587 7.21116H33.5766C40.3702 7.21116 46.4133 8.51458 51.706 11.1214C57.0382 13.7283 61.1855 17.3621 64.1478 22.0228C67.1496 26.6835 68.6505 31.9762 68.6505 37.9008C68.6505 43.8255 67.1496 49.1181 64.1478 53.7789C61.1855 58.4396 57.0382 62.0734 51.706 64.6802C46.4133 67.287 40.3702 68.5905 33.5766 68.5905H25.5191V93H0.872587V7.21116ZM34.0506 46.3138C37.1314 46.3138 39.5605 45.5634 41.3379 44.0624C43.1153 42.5615 44.004 40.5077 44.004 37.9008C44.004 35.294 43.1153 33.2401 41.3379 31.7392C39.5605 30.2383 37.1314 29.4878 34.0506 29.4878H25.5191V46.3138H34.0506ZM78.6039 31.8577H102.302V40.1522H102.776C104.475 36.9924 106.706 34.5435 109.471 32.8056C112.236 31.0677 115.337 30.1988 118.773 30.1988C120.432 30.1988 122.209 30.4358 124.105 30.9097V53.0679C121.498 52.3569 118.891 52.0015 116.285 52.0015C106.963 52.0015 102.302 57.4521 102.302 68.3535V93H78.6039V31.8577ZM166.17 94.6589C159.219 94.6589 153.136 93.316 147.922 90.6301C142.748 87.9443 138.739 84.1723 135.895 79.3141C133.091 74.4559 131.689 68.8275 131.689 62.4288C131.689 56.1092 133.111 50.5006 135.954 45.6029C138.838 40.7051 142.827 36.9134 147.922 34.2275C153.017 31.5417 158.784 30.1988 165.222 30.1988C171.621 30.1988 177.289 31.5417 182.226 34.2275C187.163 36.9134 190.994 40.7051 193.72 45.6029C196.445 50.4611 197.808 56.0697 197.808 62.4288C197.808 64.3642 197.65 66.3391 197.334 68.3535H155.032C155.427 70.8418 156.651 72.8562 158.705 74.3966C160.759 75.8975 163.247 76.648 166.17 76.648C168.264 76.648 170.041 76.2333 171.502 75.4038C172.964 74.5744 174.07 73.4092 174.82 71.9083L195.556 78.8993C192.95 83.876 189.138 87.7468 184.122 90.5116C179.106 93.2765 173.122 94.6589 166.17 94.6589ZM174.583 55.5563C174.425 53.4234 173.497 51.6657 171.799 50.2833C170.14 48.9009 167.948 48.2097 165.222 48.2097C162.576 48.2097 160.305 48.8812 158.409 50.2241C156.552 51.5275 155.427 53.3049 155.032 55.5563H174.583ZM246.864 70.9603H209.42V51.0535H246.864V70.9603ZM248.523 7.21116H276.25L293.55 58.2816H294.024L311.324 7.21116H339.051L305.755 93H281.819L248.523 7.21116ZM347.109 31.8577H370.807V93H347.109V31.8577ZM358.958 26.644C356.47 26.644 354.199 26.091 352.145 24.9851C350.091 23.8397 348.471 22.2795 347.286 20.3046C346.141 18.2902 345.568 16.0586 345.568 13.6098C345.568 11.1609 346.141 8.94906 347.286 6.97418C348.471 4.9598 350.091 3.39964 352.145 2.29371C354.199 1.14828 356.47 0.57556 358.958 0.57556C361.446 0.57556 363.718 1.14828 365.771 2.29371C367.825 3.39964 369.425 4.9598 370.57 6.97418C371.755 8.94906 372.348 11.1609 372.348 13.6098C372.348 16.0586 371.755 18.2902 370.57 20.3046C369.425 22.2795 367.825 23.8397 365.771 24.9851C363.718 26.091 361.446 26.644 358.958 26.644ZM414.768 94.6589C407.817 94.6589 401.734 93.316 396.52 90.6301C391.346 87.9443 387.337 84.1723 384.493 79.3141C381.689 74.4559 380.287 68.8275 380.287 62.4288C380.287 56.1092 381.709 50.5006 384.553 45.6029C387.436 40.7051 391.425 36.9134 396.52 34.2275C401.615 31.5417 407.382 30.1988 413.82 30.1988C420.219 30.1988 425.887 31.5417 430.824 34.2275C435.761 36.9134 439.592 40.7051 442.318 45.6029C445.043 50.4611 446.406 56.0697 446.406 62.4288C446.406 64.3642 446.248 66.3391 445.932 68.3535H403.63C404.025 70.8418 405.249 72.8562 407.303 74.3966C409.357 75.8975 411.845 76.648 414.768 76.648C416.862 76.648 418.639 76.2333 420.1 75.4038C421.562 74.5744 422.668 73.4092 423.418 71.9083L444.154 78.8993C441.548 83.876 437.736 87.7468 432.72 90.5116C427.704 93.2765 421.72 94.6589 414.768 94.6589ZM423.181 55.5563C423.023 53.4234 422.095 51.6657 420.397 50.2833C418.738 48.9009 416.546 48.2097 413.82 48.2097C411.174 48.2097 408.903 48.8812 407.007 50.2241C405.151 51.5275 404.025 53.3049 403.63 55.5563H423.181ZM448.065 31.8577H471.882L480.769 63.6138H481.243L488.826 31.8577H509.326L516.909 63.6138H517.383L526.27 31.8577H550.087L529.588 93H523.9V93.1185L523.841 93H506.363L499.254 62.5473H498.898L491.789 93H468.564L448.065 31.8577Z" fill="#688CC3"/>
</svg>
