<svg width="527" height="94" viewBox="0 0 527 94" fill="none" xmlns="http://www.w3.org/2000/svg">
<g opacity="0.9" filter="url(#filter0_d_1200_10)">
<path d="M38.7188 19.3438C38.7188 24.8125 39.5312 30.0469 41.1562 35.0469C42.7812 40.0156 45.2031 44.4219 48.4219 48.2656C51.6719 52.1094 55.625 55.0312 60.2812 57.0312L53.25 66.875C48.4688 64.6875 44.3594 61.5781 40.9219 57.5469C37.5156 53.4844 34.8281 48.7188 32.8594 43.25C30.8906 49.1875 28.125 54.3438 24.5625 58.7188C21 63.0938 16.6875 66.4375 11.625 68.75L4.40625 58.8125C9.21875 56.7188 13.2812 53.6406 16.5938 49.5781C19.9062 45.5156 22.3906 40.875 24.0469 35.6562C25.7031 30.4375 26.5312 25 26.5312 19.3438V6.875H38.7188V19.3438ZM76.875 85.8125H64.6875V0.21875H76.875V85.8125ZM156.094 24.2188H167.625V34.1562H156.094V61.3438H143.906V0.3125H156.094V24.2188ZM132.938 6.6875C132.938 14.3437 131.375 21.2188 128.25 27.3125C125.156 33.4062 120.625 38.625 114.656 42.9688C108.719 47.2812 101.469 50.6562 92.9062 53.0938L87.8438 43.5312C97.2812 40.9062 104.719 37.25 110.156 32.5625C115.594 27.8438 118.781 22.4375 119.719 16.3438H91.5938V6.6875H132.938ZM159.094 84.125H100.594V55.1562H112.781V74.375H159.094V84.125ZM245.344 85.5312H233.719V42.9688H225.75V81.5H214.5V1.8125H225.75V33.125H233.719V0.3125H245.344V85.5312ZM205.688 19.9062H185.812V56.3281C190.156 56.2656 194.234 56.0781 198.047 55.7656C201.859 55.4219 205.719 54.9062 209.625 54.2188L210.562 64.0625C205.75 64.9688 201.016 65.5781 196.359 65.8906C191.703 66.1719 186.219 66.3125 179.906 66.3125H173.812V10.1562H205.688V19.9062ZM326.344 44.0938H314.156V35.75H298.688V41.6562H258V3.875H270.094V13.8125H286.781V3.875H298.688V11H314.156V0.3125H326.344V44.0938ZM326.344 70.1562H281.625V75.2188H328.875V84.6875H269.719V61.3438H314.344V56.75H269.531V47.375H326.344V70.1562ZM286.781 32.2812V22.9062H270.094V32.2812H286.781ZM314.156 26.5625V20.1875H298.688V26.5625H314.156ZM438.562 75.6875H360.656V65.8438H377.906V44.8906C374.562 42.8594 371.969 40.3594 370.125 37.3906C368.281 34.3906 367.375 31.0625 367.406 27.4062C367.406 22.8438 368.781 18.8281 371.531 15.3594C374.281 11.8906 378.094 9.21875 382.969 7.34375C387.844 5.46875 393.344 4.53125 399.469 4.53125C405.656 4.53125 411.188 5.46875 416.062 7.34375C420.938 9.21875 424.75 11.8906 427.5 15.3594C430.25 18.8281 431.625 22.8438 431.625 27.4062C431.656 31.0312 430.75 34.3438 428.906 37.3438C427.094 40.3125 424.531 42.8125 421.219 44.8438V65.8438H438.562V75.6875ZM399.469 13.9062C395.469 13.9375 391.938 14.4844 388.875 15.5469C385.844 16.6094 383.484 18.1562 381.797 20.1875C380.141 22.2188 379.312 24.625 379.312 27.4062C379.312 30.1875 380.141 32.5938 381.797 34.625C383.484 36.625 385.844 38.1562 388.875 39.2188C391.938 40.2812 395.469 40.8125 399.469 40.8125C403.5 40.8125 407.047 40.2812 410.109 39.2188C413.172 38.1562 415.531 36.625 417.188 34.625C418.875 32.5938 419.719 30.1875 419.719 27.4062C419.719 24.5938 418.875 22.1875 417.188 20.1875C415.531 18.1562 413.172 16.6094 410.109 15.5469C407.078 14.4844 403.531 13.9375 399.469 13.9062ZM409.125 65.8438V49.3438C406.125 49.9062 402.906 50.1875 399.469 50.1875C396.125 50.1875 392.969 49.9062 390 49.3438V65.8438H409.125ZM522.375 21.3125H511.219V29.9375H522.375V39.875H511.219V50.6562H499.125V0.3125H511.219V11.4688H522.375V21.3125ZM511.219 85.625H499.125V63.6875H453.938V54.125H511.219V85.625ZM467.531 4.90625C471.906 4.90625 475.875 5.8125 479.438 7.625C483 9.40625 485.797 11.8906 487.828 15.0781C489.859 18.2656 490.875 21.8438 490.875 25.8125C490.875 29.7812 489.859 33.3594 487.828 36.5469C485.797 39.7031 483 42.1719 479.438 43.9531C475.906 45.7344 471.938 46.625 467.531 46.625C463.156 46.625 459.188 45.7344 455.625 43.9531C452.094 42.1719 449.297 39.7031 447.234 36.5469C445.203 33.3594 444.188 29.7812 444.188 25.8125C444.188 21.8438 445.203 18.2656 447.234 15.0781C449.297 11.8906 452.094 9.40625 455.625 7.625C459.188 5.8125 463.156 4.90625 467.531 4.90625ZM467.531 15.2188C465.312 15.2188 463.328 15.6406 461.578 16.4844C459.859 17.3281 458.5 18.5469 457.5 20.1406C456.5 21.7344 456 23.625 456 25.8125C456 28 456.5 29.9062 457.5 31.5312C458.5 33.125 459.875 34.3438 461.625 35.1875C463.375 36.0312 465.344 36.4688 467.531 36.5C469.75 36.4688 471.734 36.0312 473.484 35.1875C475.234 34.3438 476.594 33.125 477.562 31.5312C478.562 29.9062 479.062 28 479.062 25.8125C479.062 23.625 478.562 21.7344 477.562 20.1406C476.594 18.5156 475.234 17.2969 473.484 16.4844C471.734 15.6406 469.75 15.2188 467.531 15.2188Z" fill="#688CC3"/>
</g>
<defs>
<filter id="filter0_d_1200_10" x="0.40625" y="0.21875" width="525.969" height="93.5938" filterUnits="userSpaceOnUse" color-interpolation-filters="sRGB">
<feFlood flood-opacity="0" result="BackgroundImageFix"/>
<feColorMatrix in="SourceAlpha" type="matrix" values="0 0 0 0 0 0 0 0 0 0 0 0 0 0 0 0 0 0 127 0" result="hardAlpha"/>
<feOffset dy="4"/>
<feGaussianBlur stdDeviation="2"/>
<feComposite in2="hardAlpha" operator="out"/>
<feColorMatrix type="matrix" values="0 0 0 0 0 0 0 0 0 0 0 0 0 0 0 0 0 0 0.25 0"/>
<feBlend mode="normal" in2="BackgroundImageFix" result="effect1_dropShadow_1200_10"/>
<feBlend mode="normal" in="SourceGraphic" in2="effect1_dropShadow_1200_10" result="shape"/>
</filter>
</defs>
</svg>
