<svg width="692" height="115" viewBox="0 0 692 115" fill="none" xmlns="http://www.w3.org/2000/svg">
<path d="M46.625 26.125C46.625 33.4167 47.7083 40.3958 49.875 47.0625C52.0417 53.6875 55.2708 59.5625 59.5625 64.6875C63.8958 69.8125 69.1667 73.7083 75.375 76.375L66 89.5C59.625 86.5833 54.1458 82.4375 49.5625 77.0625C45.0208 71.6458 41.4375 65.2917 38.8125 58C36.1875 65.9167 32.5 72.7917 27.75 78.625C23 84.4583 17.25 88.9167 10.5 92L0.875 78.75C7.29167 75.9583 12.7083 71.8542 17.125 66.4375C21.5417 61.0208 24.8542 54.8333 27.0625 47.875C29.2708 40.9167 30.375 33.6667 30.375 26.125V9.5H46.625V26.125ZM97.5 114.75H81.25V0.625H97.5V114.75ZM203.125 32.625H218.5V45.875H203.125V82.125H186.875V0.75H203.125V32.625ZM172.25 9.25C172.25 19.4583 170.167 28.625 166 36.75C161.875 44.875 155.833 51.8333 147.875 57.625C139.958 63.375 130.292 67.875 118.875 71.125L112.125 58.375C124.708 54.875 134.625 50 141.875 43.75C149.125 37.4583 153.375 30.25 154.625 22.125H117.125V9.25H172.25ZM207.125 112.5H129.125V73.875H145.375V99.5H207.125V112.5ZM322.125 114.375H306.625V57.625H296V109H281V2.75H296V44.5H306.625V0.75H322.125V114.375ZM269.25 26.875H242.75V75.4375C248.542 75.3542 253.979 75.1042 259.062 74.6875C264.146 74.2292 269.292 73.5417 274.5 72.625L275.75 85.75C269.333 86.9583 263.021 87.7708 256.812 88.1875C250.604 88.5625 243.292 88.75 234.875 88.75H226.75V13.875H269.25V26.875ZM430.125 59.125H413.875V48H393.25V55.875H339V5.5H355.125V18.75H377.375V5.5H393.25V15H413.875V0.75H430.125V59.125ZM430.125 93.875H370.5V100.625H433.5V113.25H354.625V82.125H414.125V76H354.375V63.5H430.125V93.875ZM377.375 43.375V30.875H355.125V43.375H377.375ZM413.875 35.75V27.25H393.25V35.75H413.875ZM579.75 101.25H475.875V88.125H498.875V60.1875C494.417 57.4792 490.958 54.1458 488.5 50.1875C486.042 46.1875 484.833 41.75 484.875 36.875C484.875 30.7917 486.708 25.4375 490.375 20.8125C494.042 16.1875 499.125 12.625 505.625 10.125C512.125 7.625 519.458 6.375 527.625 6.375C535.875 6.375 543.25 7.625 549.75 10.125C556.25 12.625 561.333 16.1875 565 20.8125C568.667 25.4375 570.5 30.7917 570.5 36.875C570.542 41.7083 569.333 46.125 566.875 50.125C564.458 54.0833 561.042 57.4167 556.625 60.125V88.125H579.75V101.25ZM527.625 18.875C522.292 18.9167 517.583 19.6458 513.5 21.0625C509.458 22.4792 506.312 24.5417 504.062 27.25C501.854 29.9583 500.75 33.1667 500.75 36.875C500.75 40.5833 501.854 43.7917 504.062 46.5C506.312 49.1667 509.458 51.2083 513.5 52.625C517.583 54.0417 522.292 54.75 527.625 54.75C533 54.75 537.729 54.0417 541.812 52.625C545.896 51.2083 549.042 49.1667 551.25 46.5C553.5 43.7917 554.625 40.5833 554.625 36.875C554.625 33.125 553.5 29.9167 551.25 27.25C549.042 24.5417 545.896 22.4792 541.812 21.0625C537.771 19.6458 533.042 18.9167 527.625 18.875ZM540.5 88.125V66.125C536.5 66.875 532.208 67.25 527.625 67.25C523.167 67.25 518.958 66.875 515 66.125V88.125H540.5ZM691.5 28.75H676.625V40.25H691.5V53.5H676.625V67.875H660.5V0.75H676.625V15.625H691.5V28.75ZM676.625 114.5H660.5V85.25H600.25V72.5H676.625V114.5ZM618.375 6.875C624.208 6.875 629.5 8.08333 634.25 10.5C639 12.875 642.729 16.1875 645.438 20.4375C648.146 24.6875 649.5 29.4583 649.5 34.75C649.5 40.0417 648.146 44.8125 645.438 49.0625C642.729 53.2708 639 56.5625 634.25 58.9375C629.542 61.3125 624.25 62.5 618.375 62.5C612.542 62.5 607.25 61.3125 602.5 58.9375C597.792 56.5625 594.062 53.2708 591.312 49.0625C588.604 44.8125 587.25 40.0417 587.25 34.75C587.25 29.4583 588.604 24.6875 591.312 20.4375C594.062 16.1875 597.792 12.875 602.5 10.5C607.25 8.08333 612.542 6.875 618.375 6.875ZM618.375 20.625C615.417 20.625 612.771 21.1875 610.438 22.3125C608.146 23.4375 606.333 25.0625 605 27.1875C603.667 29.3125 603 31.8333 603 34.75C603 37.6667 603.667 40.2083 605 42.375C606.333 44.5 608.167 46.125 610.5 47.25C612.833 48.375 615.458 48.9583 618.375 49C621.333 48.9583 623.979 48.375 626.312 47.25C628.646 46.125 630.458 44.5 631.75 42.375C633.083 40.2083 633.75 37.6667 633.75 34.75C633.75 31.8333 633.083 29.3125 631.75 27.1875C630.458 25.0208 628.646 23.3958 626.312 22.3125C623.979 21.1875 621.333 20.625 618.375 20.625Z" fill="black" fill-opacity="0.72"/>
</svg>
