<svg width="220" height="220" viewBox="0 0 220 220" fill="none" xmlns="http://www.w3.org/2000/svg">
<rect width="219.238" height="219.238" fill="#E3F0DC"/>
<path d="M91.6118 163.914H102.171V166.534H91.6118V163.914ZM91.6118 174.936H102.171V177.556H91.6118V174.936ZM85.2145 158.827C86.9102 158.827 88.4132 159.328 89.7235 160.33C91.0338 161.306 92.0486 162.706 92.768 164.53C93.513 166.355 93.8856 168.5 93.8856 170.966C93.8856 173.433 93.513 175.578 92.768 177.402C92.0486 179.226 91.0338 180.639 89.7235 181.641C88.4132 182.643 86.9102 183.144 85.2145 183.144C83.5446 183.144 82.0416 182.643 80.7056 181.641C79.3953 180.639 78.3676 179.226 77.6226 177.402C76.9032 175.578 76.5435 173.433 76.5435 170.966C76.5435 168.5 76.9032 166.355 77.6226 164.53C78.3676 162.706 79.3953 161.306 80.7056 160.33C82.0416 159.328 83.5446 158.827 85.2145 158.827ZM85.2145 161.679C84.1098 161.679 83.1335 162.064 82.2857 162.835C81.4378 163.58 80.7698 164.659 80.2817 166.072C79.8192 167.459 79.588 169.091 79.588 170.966C79.588 172.842 79.8192 174.486 80.2817 175.899C80.7698 177.286 81.4378 178.366 82.2857 179.136C83.1335 179.907 84.1098 180.292 85.2145 180.292C86.345 180.292 87.3341 179.907 88.182 179.136C89.0298 178.366 89.6849 177.286 90.1474 175.899C90.6355 174.486 90.8796 172.842 90.8796 170.966C90.8796 169.091 90.6355 167.459 90.1474 166.072C89.6849 164.659 89.0298 163.58 88.182 162.835C87.3341 162.064 86.345 161.679 85.2145 161.679ZM101.439 156.129H104.599V191.044H101.439V156.129ZM137.7 156.129H140.745V178.173H137.7V156.129ZM131.997 165.609H138.587V168.23H131.997V165.609ZM130.224 156.823H133.23V176.94H130.224V156.823ZM111.186 160.291H128.836V162.835H111.186V160.291ZM120.05 164.646C121.514 164.646 122.799 164.89 123.904 165.378C125.034 165.866 125.908 166.56 126.524 167.459C127.167 168.358 127.488 169.412 127.488 170.619C127.488 171.827 127.167 172.88 126.524 173.779C125.908 174.653 125.034 175.334 123.904 175.822C122.799 176.31 121.514 176.554 120.05 176.554C118.611 176.554 117.326 176.31 116.196 175.822C115.066 175.334 114.192 174.653 113.575 173.779C112.959 172.88 112.651 171.827 112.651 170.619C112.651 169.412 112.959 168.358 113.575 167.459C114.192 166.56 115.066 165.866 116.196 165.378C117.326 164.89 118.611 164.646 120.05 164.646ZM120.05 167.035C118.714 167.035 117.622 167.357 116.774 167.999C115.926 168.641 115.502 169.515 115.502 170.619C115.502 171.698 115.913 172.572 116.736 173.24C117.583 173.882 118.688 174.203 120.05 174.203C121.412 174.203 122.503 173.882 123.326 173.24C124.173 172.572 124.597 171.698 124.597 170.619C124.597 169.515 124.173 168.641 123.326 167.999C122.503 167.357 121.412 167.035 120.05 167.035ZM118.47 156.399H121.63V161.756H118.47V156.399ZM129.299 178.789C132.947 178.789 135.799 179.316 137.854 180.369C139.91 181.423 140.937 182.926 140.937 184.878C140.937 186.805 139.91 188.295 137.854 189.349C135.799 190.402 132.947 190.929 129.299 190.929C125.651 190.929 122.799 190.402 120.744 189.349C118.688 188.295 117.66 186.805 117.66 184.878C117.66 182.926 118.688 181.423 120.744 180.369C122.799 179.316 125.651 178.789 129.299 178.789ZM129.299 181.256C126.627 181.256 124.546 181.564 123.056 182.181C121.566 182.797 120.821 183.697 120.821 184.878C120.821 186.035 121.566 186.921 123.056 187.538C124.546 188.154 126.627 188.462 129.299 188.462C131.945 188.462 134.013 188.154 135.504 187.538C136.994 186.921 137.739 186.035 137.739 184.878C137.739 183.697 136.994 182.797 135.504 182.181C134.013 181.564 131.945 181.256 129.299 181.256Z" fill="#4661AC"/>
<path d="M86.3384 122.454L71.6108 113.805L76.4433 108.615L87.9493 110.345L105.899 91.069L70 70.0632L76.4433 63.1437L120.396 75.2529L138.46 56.1006C139.764 54.7002 141.395 54 143.353 54C145.31 54 146.94 54.7002 148.24 56.1006C149.544 57.501 150.196 59.2523 150.196 61.3545C150.196 63.4567 149.544 65.2064 148.24 66.6034L130.291 85.8793L141.567 133.08L135.124 140L115.564 101.448L97.6143 120.724L99.2251 133.08L94.3926 138.27L86.3384 122.454Z" fill="#4661AC"/>
</svg>
