<svg width="199" height="164" viewBox="0 0 199 164" fill="none" xmlns="http://www.w3.org/2000/svg">
<path d="M83.5742 108.943L169.866 156.038V61.849L83.5742 108.943Z" fill="white"/>
<path d="M28.6211 -38.1689H170.009V107.798H28.6211V-38.1689Z" fill="white"/>
<path d="M114.484 107.798L28.6215 60.7037V154.892L114.484 107.798Z" fill="white"/>
<g filter="url(#filter0_d_1149_10)">
<path d="M92.1438 76.1797L110.402 65.6258L92.1438 55.0719V76.1797ZM132.811 48.634C133.269 50.2874 133.585 52.5038 133.797 55.3181C134.043 58.1325 134.148 60.5599 134.148 62.6707L134.359 65.6258C134.359 73.3301 133.797 78.9941 132.811 82.6176C131.932 85.7837 129.892 87.8242 126.725 88.7037C125.072 89.161 122.046 89.4776 117.403 89.6887C112.829 89.9349 108.643 90.0405 104.773 90.0405L99.1797 90.2516C84.4394 90.2516 75.2575 89.6887 71.634 88.7037C68.4678 87.8242 66.4274 85.7837 65.5479 82.6176C65.0906 80.9641 64.774 78.7478 64.5629 75.9334C64.3166 73.1191 64.2111 70.6917 64.2111 68.5809L64 65.6258C64 57.9214 64.5629 52.2575 65.5479 48.634C66.4274 45.4678 68.4678 43.4274 71.634 42.5479C73.2874 42.0906 76.3129 41.774 80.9566 41.5629C85.53 41.3166 89.7164 41.2111 93.5861 41.2111L99.1797 41C113.92 41 123.102 41.5629 126.725 42.5479C129.892 43.4274 131.932 45.4678 132.811 48.634Z" fill="#688CC3"/>
</g>
<defs>
<filter id="filter0_d_1149_10" x="59.8306" y="41" width="78.6983" height="57.5908" filterUnits="userSpaceOnUse" color-interpolation-filters="sRGB">
<feFlood flood-opacity="0" result="BackgroundImageFix"/>
<feColorMatrix in="SourceAlpha" type="matrix" values="0 0 0 0 0 0 0 0 0 0 0 0 0 0 0 0 0 0 127 0" result="hardAlpha"/>
<feOffset dy="4.16945"/>
<feGaussianBlur stdDeviation="2.08472"/>
<feComposite in2="hardAlpha" operator="out"/>
<feColorMatrix type="matrix" values="0 0 0 0 0 0 0 0 0 0 0 0 0 0 0 0 0 0 0.25 0"/>
<feBlend mode="normal" in2="BackgroundImageFix" result="effect1_dropShadow_1149_10"/>
<feBlend mode="normal" in="SourceGraphic" in2="effect1_dropShadow_1149_10" result="shape"/>
</filter>
</defs>
</svg>
