<svg width="81" height="81" viewBox="0 0 81 81" fill="none" xmlns="http://www.w3.org/2000/svg">
<path d="M33.75 50.625L51.2662 40.5L33.75 30.375V50.625ZM72.765 24.1988C73.2038 25.785 73.5075 27.9112 73.71 30.6112C73.9463 33.3112 74.0475 35.64 74.0475 37.665L74.25 40.5C74.25 47.8913 73.71 53.325 72.765 56.8013C71.9212 59.8387 69.9637 61.7962 66.9263 62.64C65.34 63.0787 62.4375 63.3825 57.9825 63.585C53.595 63.8213 49.5788 63.9225 45.8662 63.9225L40.5 64.125C26.3587 64.125 17.55 63.585 14.0738 62.64C11.0363 61.7962 9.07875 59.8387 8.235 56.8013C7.79625 55.215 7.4925 53.0888 7.29 50.3888C7.05375 47.6888 6.9525 45.36 6.9525 43.335L6.75 40.5C6.75 33.1087 7.29 27.675 8.235 24.1988C9.07875 21.1613 11.0363 19.2038 14.0738 18.36C15.66 17.9213 18.5625 17.6175 23.0175 17.415C27.405 17.1787 31.4212 17.0775 35.1337 17.0775L40.5 16.875C54.6413 16.875 63.45 17.415 66.9263 18.36C69.9637 19.2038 71.9212 21.1613 72.765 24.1988Z" fill="#F5F5F7"/>
</svg>
