<svg width="80" height="58" viewBox="0 0 80 58" fill="none" xmlns="http://www.w3.org/2000/svg">
<g filter="url(#filter0_d_1424_329)">
<path d="M33.1438 35.1797L51.402 24.6258L33.1438 14.0719V35.1797ZM73.8115 7.63399C74.2688 9.28744 74.5854 11.5038 74.7965 14.3181C75.0428 17.1325 75.1483 19.5599 75.1483 21.6707L75.3594 24.6258C75.3594 32.3301 74.7965 37.9941 73.8115 41.6176C72.932 44.7837 70.8916 46.8242 67.7254 47.7037C66.0719 48.161 63.0465 48.4776 58.4028 48.6887C53.8294 48.9349 49.643 49.0405 45.7733 49.0405L40.1797 49.2516C25.4394 49.2516 16.2575 48.6887 12.634 47.7037C9.46782 46.8242 7.4274 44.7837 6.54791 41.6176C6.09057 39.9641 5.77395 37.7478 5.56288 34.9334C5.31662 32.1191 5.21108 29.6917 5.21108 27.5809L5 24.6258C5 16.9214 5.56288 11.2575 6.54791 7.63399C7.4274 4.46782 9.46782 2.4274 12.634 1.54791C14.2874 1.09057 17.3129 0.773953 21.9566 0.562874C26.53 0.316617 30.7164 0.211078 34.5861 0.211078L40.1797 0C54.92 0 64.1019 0.562875 67.7254 1.54791C70.8916 2.4274 72.932 4.46782 73.8115 7.63399Z" fill="black"/>
</g>
<defs>
<filter id="filter0_d_1424_329" x="0.830555" y="0" width="78.6983" height="57.5908" filterUnits="userSpaceOnUse" color-interpolation-filters="sRGB">
<feFlood flood-opacity="0" result="BackgroundImageFix"/>
<feColorMatrix in="SourceAlpha" type="matrix" values="0 0 0 0 0 0 0 0 0 0 0 0 0 0 0 0 0 0 127 0" result="hardAlpha"/>
<feOffset dy="4.16945"/>
<feGaussianBlur stdDeviation="2.08472"/>
<feComposite in2="hardAlpha" operator="out"/>
<feColorMatrix type="matrix" values="0 0 0 0 0 0 0 0 0 0 0 0 0 0 0 0 0 0 0.25 0"/>
<feBlend mode="normal" in2="BackgroundImageFix" result="effect1_dropShadow_1424_329"/>
<feBlend mode="normal" in="SourceGraphic" in2="effect1_dropShadow_1424_329" result="shape"/>
</filter>
</defs>
</svg>
