<svg width="80" height="55" viewBox="0 0 80 55" fill="none" xmlns="http://www.w3.org/2000/svg">
<path d="M31.6055 38.8472L52.1096 27.193L31.6055 15.5389V38.8472ZM77.2755 8.42985C77.7891 10.2557 78.1446 12.703 78.3817 15.8108C78.6582 18.9186 78.7767 21.599 78.7767 23.9299L79.0138 27.193C79.0138 35.7006 78.3817 41.955 77.2755 45.9563C76.2878 49.4525 73.9964 51.7056 70.4408 52.6768C68.5839 53.1818 65.1864 53.5315 59.9715 53.7645C54.8356 54.0365 50.1342 54.153 45.7885 54.153L39.5069 54.3861C22.9535 54.3861 12.6422 53.7645 8.57299 52.6768C5.01738 51.7056 2.72598 49.4525 1.7383 45.9563C1.22471 44.1304 0.869152 41.6831 0.63211 38.5753C0.355562 35.4675 0.237041 32.787 0.237041 30.4562L0 27.193C0 18.6855 0.63211 12.4311 1.7383 8.42985C2.72598 4.9336 5.01738 2.68046 8.57299 1.70928C10.4298 1.20426 13.8274 0.854638 19.0423 0.621555C24.1782 0.349624 28.8795 0.233083 33.2253 0.233083L39.5069 0C56.0603 0 66.3716 0.621556 70.4408 1.70928C73.9964 2.68046 76.2878 4.9336 77.2755 8.42985Z" fill="#B6CAF4"/>
</svg>
