<svg width="88" height="64" viewBox="0 0 88 64" fill="none" xmlns="http://www.w3.org/2000/svg">
<g filter="url(#filter0_d_1548_330)">
<path d="M36.3086 39.4898L56.8127 27.8356L36.3086 16.1815V39.4898ZM81.9786 9.07242C82.4922 10.8982 82.8477 13.3456 83.0848 16.4534C83.3613 19.5612 83.4799 22.2416 83.4799 24.5725L83.7169 27.8356C83.7169 36.3432 83.0848 42.5976 81.9786 46.5988C80.9909 50.0951 78.6995 52.3482 75.1439 53.3194C73.2871 53.8244 69.8895 54.174 64.6746 54.4071C59.5387 54.679 54.8374 54.7956 50.4916 54.7956L44.21 55.0287C27.6566 55.0287 17.3453 54.4071 13.2761 53.3194C9.7205 52.3482 7.4291 50.0951 6.44143 46.5988C5.92784 44.773 5.57228 42.3256 5.33524 39.2179C5.05869 36.1101 4.94017 33.4296 4.94017 31.0988L4.70312 27.8356C4.70312 19.3281 5.33524 13.0737 6.44143 9.07242C7.4291 5.57618 9.7205 3.32304 13.2761 2.35186C15.1329 1.84684 18.5305 1.49722 23.7454 1.26413C28.8813 0.992202 33.5827 0.875661 37.9284 0.875661L44.21 0.642578C60.7634 0.642578 71.0747 1.26413 75.1439 2.35186C78.6995 3.32304 80.9909 5.57618 81.9786 9.07242Z" fill="#B1B1B1"/>
</g>
<defs>
<filter id="filter0_d_1548_330" x="0.703125" y="0.642578" width="87.0156" height="62.386" filterUnits="userSpaceOnUse" color-interpolation-filters="sRGB">
<feFlood flood-opacity="0" result="BackgroundImageFix"/>
<feColorMatrix in="SourceAlpha" type="matrix" values="0 0 0 0 0 0 0 0 0 0 0 0 0 0 0 0 0 0 127 0" result="hardAlpha"/>
<feOffset dy="4"/>
<feGaussianBlur stdDeviation="2"/>
<feComposite in2="hardAlpha" operator="out"/>
<feColorMatrix type="matrix" values="0 0 0 0 0 0 0 0 0 0 0 0 0 0 0 0 0 0 0.25 0"/>
<feBlend mode="normal" in2="BackgroundImageFix" result="effect1_dropShadow_1548_330"/>
<feBlend mode="normal" in="SourceGraphic" in2="effect1_dropShadow_1548_330" result="shape"/>
</filter>
</defs>
</svg>
