<svg width="184" height="184" viewBox="0 0 184 184" fill="none" xmlns="http://www.w3.org/2000/svg">
<g filter="url(#filter0_d_1215_42)">
<rect x="4" width="176" height="176" rx="43.8816" fill="url(#paint0_linear_1215_42)" shape-rendering="crispEdges"/>
</g>
<path opacity="0.9" d="M95.875 125.312C88.2188 125.312 81.8906 123.656 76.8906 120.344C71.9219 117.031 68.625 112.281 67 106.094L85.1875 101.406C85.75 103.906 86.9062 105.828 88.6562 107.172C90.4375 108.516 92.6562 109.188 95.3125 109.188C97.1875 109.188 98.8281 108.875 100.234 108.25C101.672 107.625 102.766 106.781 103.516 105.719C104.297 104.625 104.688 103.406 104.688 102.062C104.688 99.8125 103.656 98.0625 101.594 96.8125C99.5625 95.5625 96.7812 94.9375 93.25 94.9375H91V82.1875H93.25C96.3125 82.1875 98.7188 81.7031 100.469 80.7344C102.219 79.7344 103.094 78.3438 103.094 76.5625C103.094 74.9375 102.375 73.5938 100.938 72.5312C99.5312 71.4688 97.6562 70.9375 95.3125 70.9375C92.9062 70.9375 90.9688 71.5312 89.5 72.7188C88.0625 73.9062 87.1562 75.625 86.7812 77.875L68.4062 73.375C70 67.375 73.1562 62.7812 77.875 59.5938C82.5938 56.4062 88.5938 54.8125 95.875 54.8125C101.031 54.8125 105.625 55.5781 109.656 57.1094C113.719 58.6406 116.875 60.8125 119.125 63.625C121.375 66.4062 122.5 69.5938 122.5 73.1875C122.5 76.6562 121.406 79.6875 119.219 82.2812C117.062 84.875 113.969 86.8906 109.938 88.3281V88.6562C114.562 90.1562 118.125 92.3438 120.625 95.2188C123.125 98.0938 124.375 101.5 124.375 105.438C124.375 109.344 123.156 112.812 120.719 115.844C118.312 118.844 114.953 121.172 110.641 122.828C106.328 124.484 101.406 125.312 95.875 125.312Z" fill="#688CC3"/>
<defs>
<filter id="filter0_d_1215_42" x="0.489471" y="0" width="183.021" height="183.021" filterUnits="userSpaceOnUse" color-interpolation-filters="sRGB">
<feFlood flood-opacity="0" result="BackgroundImageFix"/>
<feColorMatrix in="SourceAlpha" type="matrix" values="0 0 0 0 0 0 0 0 0 0 0 0 0 0 0 0 0 0 127 0" result="hardAlpha"/>
<feOffset dy="3.51053"/>
<feGaussianBlur stdDeviation="1.75526"/>
<feComposite in2="hardAlpha" operator="out"/>
<feColorMatrix type="matrix" values="0 0 0 0 0 0 0 0 0 0 0 0 0 0 0 0 0 0 0.25 0"/>
<feBlend mode="normal" in2="BackgroundImageFix" result="effect1_dropShadow_1215_42"/>
<feBlend mode="normal" in="SourceGraphic" in2="effect1_dropShadow_1215_42" result="shape"/>
</filter>
<linearGradient id="paint0_linear_1215_42" x1="92" y1="0" x2="92" y2="176" gradientUnits="userSpaceOnUse">
<stop stop-color="white"/>
<stop offset="1" stop-color="white" stop-opacity="0"/>
</linearGradient>
</defs>
</svg>
