<svg width="184" height="184" viewBox="0 0 184 184" fill="none" xmlns="http://www.w3.org/2000/svg">
<g filter="url(#filter0_d_1215_44)">
<rect x="4" width="176" height="176" rx="43.8816" fill="url(#paint0_linear_1215_44)" shape-rendering="crispEdges"/>
</g>
<path opacity="0.9" d="M73 56.125H119.875V73H89.5L88.1406 84.3438H88.5156C90.3281 82.3438 92.4375 80.8281 94.8438 79.7969C97.2812 78.7656 99.8125 78.25 102.438 78.25C105.969 78.25 109.422 79.1406 112.797 80.9219C116.172 82.6719 118.938 85.2344 121.094 88.6094C123.281 91.9844 124.375 95.9688 124.375 100.562C124.375 105.344 123.172 109.609 120.766 113.359C118.359 117.109 115.016 120.047 110.734 122.172C106.484 124.266 101.688 125.312 96.3438 125.312C91.8438 125.312 87.5938 124.578 83.5938 123.109C79.625 121.609 76.2188 119.531 73.375 116.875C70.5625 114.219 68.5625 111.156 67.375 107.688L85.2812 101.969C85.8125 104.094 87.0625 105.828 89.0312 107.172C91 108.516 93.3125 109.188 95.9688 109.188C97.8125 109.188 99.4531 108.844 100.891 108.156C102.328 107.438 103.438 106.453 104.219 105.203C105.031 103.953 105.438 102.531 105.438 100.938C105.438 99.3438 105.031 97.9219 104.219 96.6719C103.438 95.4219 102.328 94.4531 100.891 93.7656C99.4844 93.0469 97.875 92.6875 96.0625 92.6875C94.0625 92.6875 92.3125 93.1094 90.8125 93.9531C89.3125 94.7969 88.1875 95.9375 87.4375 97.375H68.6875L73 56.125Z" fill="#688CC3"/>
<defs>
<filter id="filter0_d_1215_44" x="0.489471" y="0" width="183.021" height="183.021" filterUnits="userSpaceOnUse" color-interpolation-filters="sRGB">
<feFlood flood-opacity="0" result="BackgroundImageFix"/>
<feColorMatrix in="SourceAlpha" type="matrix" values="0 0 0 0 0 0 0 0 0 0 0 0 0 0 0 0 0 0 127 0" result="hardAlpha"/>
<feOffset dy="3.51053"/>
<feGaussianBlur stdDeviation="1.75526"/>
<feComposite in2="hardAlpha" operator="out"/>
<feColorMatrix type="matrix" values="0 0 0 0 0 0 0 0 0 0 0 0 0 0 0 0 0 0 0.25 0"/>
<feBlend mode="normal" in2="BackgroundImageFix" result="effect1_dropShadow_1215_44"/>
<feBlend mode="normal" in="SourceGraphic" in2="effect1_dropShadow_1215_44" result="shape"/>
</filter>
<linearGradient id="paint0_linear_1215_44" x1="92" y1="0" x2="92" y2="176" gradientUnits="userSpaceOnUse">
<stop stop-color="white"/>
<stop offset="1" stop-color="white" stop-opacity="0"/>
</linearGradient>
</defs>
</svg>
