<svg width="184" height="184" viewBox="0 0 184 184" fill="none" xmlns="http://www.w3.org/2000/svg">
<g filter="url(#filter0_d_1215_45)">
<rect x="4" width="176" height="176" rx="43.8816" fill="url(#paint0_linear_1215_45)" shape-rendering="crispEdges"/>
</g>
<path opacity="0.9" d="M96.9062 125.312C91.125 125.312 86 123.859 81.5312 120.953C77.0625 118.047 73.5781 114 71.0781 108.812C68.6094 103.625 67.375 97.7188 67.375 91.0938C67.375 84.125 68.7812 77.8906 71.5938 72.3906C74.4062 66.8594 78.3125 62.5469 83.3125 59.4531C88.3125 56.3594 93.9688 54.8125 100.281 54.8125C104.406 54.8125 108.375 55.4844 112.188 56.8281C116 58.1719 119.312 60.0625 122.125 62.5L109.75 76.1875C107.125 73.9375 103.969 72.8125 100.281 72.8125C97.6562 72.8125 95.3594 73.375 93.3906 74.5C91.4219 75.5938 89.875 77.1875 88.75 79.2812C87.625 81.3438 87 83.8125 86.875 86.6875H87.25C89.1562 84.1562 91.5 82.1875 94.2812 80.7812C97.0625 79.3438 100.094 78.625 103.375 78.625C107.281 78.625 110.828 79.625 114.016 81.625C117.234 83.5938 119.766 86.2656 121.609 89.6406C123.453 93.0156 124.375 96.6875 124.375 100.656C124.375 105.219 123.141 109.391 120.672 113.172C118.234 116.922 114.922 119.891 110.734 122.078C106.547 124.234 101.938 125.312 96.9062 125.312ZM96.9062 109.188C98.5312 109.188 99.9844 108.844 101.266 108.156C102.578 107.469 103.594 106.5 104.312 105.25C105.062 104 105.438 102.594 105.438 101.031C105.438 99.4688 105.062 98.0625 104.312 96.8125C103.594 95.5625 102.578 94.5938 101.266 93.9062C99.9844 93.2188 98.5312 92.875 96.9062 92.875C95.2812 92.875 93.8125 93.2188 92.5 93.9062C91.2188 94.5938 90.2031 95.5625 89.4531 96.8125C88.7344 98.0625 88.375 99.4688 88.375 101.031C88.375 102.594 88.7344 104 89.4531 105.25C90.2031 106.5 91.2188 107.469 92.5 108.156C93.8125 108.844 95.2812 109.188 96.9062 109.188Z" fill="#688CC3"/>
<defs>
<filter id="filter0_d_1215_45" x="0.489471" y="0" width="183.021" height="183.021" filterUnits="userSpaceOnUse" color-interpolation-filters="sRGB">
<feFlood flood-opacity="0" result="BackgroundImageFix"/>
<feColorMatrix in="SourceAlpha" type="matrix" values="0 0 0 0 0 0 0 0 0 0 0 0 0 0 0 0 0 0 127 0" result="hardAlpha"/>
<feOffset dy="3.51053"/>
<feGaussianBlur stdDeviation="1.75526"/>
<feComposite in2="hardAlpha" operator="out"/>
<feColorMatrix type="matrix" values="0 0 0 0 0 0 0 0 0 0 0 0 0 0 0 0 0 0 0.25 0"/>
<feBlend mode="normal" in2="BackgroundImageFix" result="effect1_dropShadow_1215_45"/>
<feBlend mode="normal" in="SourceGraphic" in2="effect1_dropShadow_1215_45" result="shape"/>
</filter>
<linearGradient id="paint0_linear_1215_45" x1="92" y1="0" x2="92" y2="176" gradientUnits="userSpaceOnUse">
<stop stop-color="white"/>
<stop offset="1" stop-color="white" stop-opacity="0"/>
</linearGradient>
</defs>
</svg>
