<svg width="184" height="184" viewBox="0 0 184 184" fill="none" xmlns="http://www.w3.org/2000/svg">
<g filter="url(#filter0_d_1215_47)">
<rect x="4" width="176" height="176" rx="43.8816" fill="url(#paint0_linear_1215_47)" shape-rendering="crispEdges"/>
</g>
<path opacity="0.9" d="M95.875 110.688C97.5625 110.688 99.0781 110.344 100.422 109.656C101.766 108.969 102.812 108.016 103.562 106.797C104.312 105.547 104.688 104.156 104.688 102.625C104.688 101.094 104.312 99.7188 103.562 98.5C102.812 97.25 101.766 96.2812 100.422 95.5938C99.0781 94.9062 97.5625 94.5625 95.875 94.5625C94.1875 94.5625 92.6719 94.9062 91.3281 95.5938C89.9844 96.2812 88.9375 97.25 88.1875 98.5C87.4375 99.7188 87.0625 101.094 87.0625 102.625C87.0625 104.156 87.4375 105.547 88.1875 106.797C88.9375 108.016 89.9844 108.969 91.3281 109.656C92.6719 110.344 94.1875 110.688 95.875 110.688ZM95.875 82.5625C98 82.5625 99.7344 81.9531 101.078 80.7344C102.422 79.4844 103.094 77.9062 103.094 76C103.094 74.0938 102.422 72.5312 101.078 71.3125C99.7344 70.0625 98 69.4375 95.875 69.4375C93.75 69.4375 92.0156 70.0625 90.6719 71.3125C89.3281 72.5312 88.6562 74.0938 88.6562 76C88.6562 77.9062 89.3281 79.4844 90.6719 80.7344C92.0156 81.9531 93.75 82.5625 95.875 82.5625ZM67.375 105.438C67.375 101.594 68.5469 98.2344 70.8906 95.3594C73.2344 92.4531 76.5625 90.2188 80.875 88.6562V88.2812C77.1562 86.8125 74.2812 84.7812 72.25 82.1875C70.25 79.5938 69.25 76.5938 69.25 73.1875C69.25 69.5938 70.375 66.4062 72.625 63.625C74.875 60.8125 78.0156 58.6406 82.0469 57.1094C86.1094 55.5781 90.7188 54.8125 95.875 54.8125C101.031 54.8125 105.625 55.5781 109.656 57.1094C113.719 58.6406 116.875 60.8125 119.125 63.625C121.375 66.4062 122.5 69.5938 122.5 73.1875C122.5 76.5938 121.484 79.5938 119.453 82.1875C117.453 84.7812 114.594 86.8125 110.875 88.2812V88.6094C115.188 90.1719 118.516 92.4062 120.859 95.3125C123.203 98.2188 124.375 101.594 124.375 105.438C124.375 109.344 123.156 112.812 120.719 115.844C118.312 118.844 114.953 121.172 110.641 122.828C106.328 124.484 101.406 125.312 95.875 125.312C90.3438 125.312 85.4219 124.484 81.1094 122.828C76.7969 121.172 73.4219 118.844 70.9844 115.844C68.5781 112.812 67.375 109.344 67.375 105.438Z" fill="#688CC3"/>
<defs>
<filter id="filter0_d_1215_47" x="0.489471" y="0" width="183.021" height="183.021" filterUnits="userSpaceOnUse" color-interpolation-filters="sRGB">
<feFlood flood-opacity="0" result="BackgroundImageFix"/>
<feColorMatrix in="SourceAlpha" type="matrix" values="0 0 0 0 0 0 0 0 0 0 0 0 0 0 0 0 0 0 127 0" result="hardAlpha"/>
<feOffset dy="3.51053"/>
<feGaussianBlur stdDeviation="1.75526"/>
<feComposite in2="hardAlpha" operator="out"/>
<feColorMatrix type="matrix" values="0 0 0 0 0 0 0 0 0 0 0 0 0 0 0 0 0 0 0.25 0"/>
<feBlend mode="normal" in2="BackgroundImageFix" result="effect1_dropShadow_1215_47"/>
<feBlend mode="normal" in="SourceGraphic" in2="effect1_dropShadow_1215_47" result="shape"/>
</filter>
<linearGradient id="paint0_linear_1215_47" x1="92" y1="0" x2="92" y2="176" gradientUnits="userSpaceOnUse">
<stop stop-color="white"/>
<stop offset="1" stop-color="white" stop-opacity="0"/>
</linearGradient>
</defs>
</svg>
