<svg width="184" height="184" viewBox="0 0 184 184" fill="none" xmlns="http://www.w3.org/2000/svg">
<g filter="url(#filter0_d_1215_41)">
<rect x="4" width="176" height="176" rx="43.8816" fill="url(#paint0_linear_1215_41)" shape-rendering="crispEdges"/>
</g>
<path opacity="0.9" d="M69.625 107.5C77.2188 103.469 83.3281 99.8594 87.9531 96.6719C92.6094 93.4531 96.0312 90.4531 98.2188 87.6719C100.406 84.8594 101.5 82.0938 101.5 79.375C101.5 77.2188 100.875 75.4375 99.625 74.0312C98.4062 72.5938 96.7188 71.875 94.5625 71.875C90.5625 71.875 88 74.5312 86.875 79.8438L68.5 75.7188C70.0625 68.8438 73.1094 63.6406 77.6406 60.1094C82.1719 56.5781 87.8125 54.8125 94.5625 54.8125C100.031 54.8125 104.703 55.9219 108.578 58.1406C112.484 60.3281 115.438 63.2344 117.438 66.8594C119.438 70.4844 120.438 74.4062 120.438 78.625C120.438 83.8125 118.719 88.7344 115.281 93.3906C111.875 98.0469 106.438 102.516 98.9688 106.797V107.125H121.375V124H69.625V107.5Z" fill="#688CC3"/>
<defs>
<filter id="filter0_d_1215_41" x="0.489471" y="0" width="183.021" height="183.021" filterUnits="userSpaceOnUse" color-interpolation-filters="sRGB">
<feFlood flood-opacity="0" result="BackgroundImageFix"/>
<feColorMatrix in="SourceAlpha" type="matrix" values="0 0 0 0 0 0 0 0 0 0 0 0 0 0 0 0 0 0 127 0" result="hardAlpha"/>
<feOffset dy="3.51053"/>
<feGaussianBlur stdDeviation="1.75526"/>
<feComposite in2="hardAlpha" operator="out"/>
<feColorMatrix type="matrix" values="0 0 0 0 0 0 0 0 0 0 0 0 0 0 0 0 0 0 0.25 0"/>
<feBlend mode="normal" in2="BackgroundImageFix" result="effect1_dropShadow_1215_41"/>
<feBlend mode="normal" in="SourceGraphic" in2="effect1_dropShadow_1215_41" result="shape"/>
</filter>
<linearGradient id="paint0_linear_1215_41" x1="92" y1="0" x2="92" y2="176" gradientUnits="userSpaceOnUse">
<stop stop-color="white"/>
<stop offset="1" stop-color="white" stop-opacity="0"/>
</linearGradient>
</defs>
</svg>
